<?xml version="1.0" encoding="UTF-8" standalone="no"?>
<!-- Created with Inkscape (http://www.inkscape.org/) -->

<svg
   xmlns:dc="http://purl.org/dc/elements/1.1/"
   xmlns:cc="http://creativecommons.org/ns#"
   xmlns:rdf="http://www.w3.org/1999/02/22-rdf-syntax-ns#"
   xmlns:svg="http://www.w3.org/2000/svg"
   xmlns="http://www.w3.org/2000/svg"
   xmlns:sodipodi="http://sodipodi.sourceforge.net/DTD/sodipodi-0.dtd"
   xmlns:inkscape="http://www.inkscape.org/namespaces/inkscape"
   width="210mm"
   height="297mm"
   viewBox="0 0 210 297"
   version="1.1"
   id="svg8416"
   inkscape:version="0.92.4 (5da689c313, 2019-01-14)"
   sodipodi:docname="newfwuit.svg">
  <defs
     id="defs8410">
    <clipPath
       clipPathUnits="userSpaceOnUse"
       id="clipPath20">
      <path
         d="M 0,612 H 792 V 0 H 0 Z"
         id="path18"
         inkscape:connector-curvature="0" />
    </clipPath>
    <clipPath
       clipPathUnits="userSpaceOnUse"
       id="clipPath28">
      <path
         d="m 677.278,559.106 h 64.691 v -64.202 h -64.691 z"
         id="path26"
         inkscape:connector-curvature="0" />
    </clipPath>
    <clipPath
       clipPathUnits="userSpaceOnUse"
       id="clipPath160">
      <path
         d="m 549.234,547.03 h 59.057 v -51.677 h -59.057 z"
         id="path158"
         inkscape:connector-curvature="0" />
    </clipPath>
    <clipPath
       clipPathUnits="userSpaceOnUse"
       id="clipPath234">
      <path
         d="M 486.063,555.081 H 545.59 V 490.296 H 486.063 Z"
         id="path232"
         inkscape:connector-curvature="0" />
    </clipPath>
    <clipPath
       clipPathUnits="userSpaceOnUse"
       id="clipPath346">
      <path
         d="m 411.925,558.562 h 71.464 V 491.37 h -71.464 z"
         id="path344"
         inkscape:connector-curvature="0" />
    </clipPath>
    <clipPath
       clipPathUnits="userSpaceOnUse"
       id="clipPath394">
      <path
         d="m 613.571,549.059 h 59.051 v -52.871 h -59.051 z"
         id="path392"
         inkscape:connector-curvature="0" />
    </clipPath>
    <clipPath
       clipPathUnits="userSpaceOnUse"
       id="clipPath7010">
      <path
         d="M 0,612 H 792 V 0 H 0 Z"
         id="path7008"
         inkscape:connector-curvature="0" />
    </clipPath>
  </defs>
  <sodipodi:namedview
     id="base"
     pagecolor="#ffffff"
     bordercolor="#666666"
     borderopacity="1.0"
     inkscape:pageopacity="0.0"
     inkscape:pageshadow="2"
     inkscape:zoom="1.2910014"
     inkscape:cx="572.23434"
     inkscape:cy="446.73012"
     inkscape:document-units="mm"
     inkscape:current-layer="layer2"
     showgrid="false"
     inkscape:window-width="1680"
     inkscape:window-height="1022"
     inkscape:window-x="0"
     inkscape:window-y="0"
     inkscape:window-maximized="1"
     inkscape:snap-global="false" />
  <metadata
     id="metadata8413">
    <rdf:RDF>
      <cc:Work
         rdf:about="">
        <dc:format>image/svg+xml</dc:format>
        <dc:type
           rdf:resource="http://purl.org/dc/dcmitype/StillImage" />
        <dc:title />
      </cc:Work>
    </rdf:RDF>
  </metadata>
  <g
     inkscape:label="Layer 1"
     inkscape:groupmode="layer"
     id="layer1"
     sodipodi:insensitive="true"
     style="display:none">
    <path
       d="m 157.31253,141.12473 c 0.15628,-0.23812 0.18274,-0.42086 0.0152,-0.67028 -0.38735,-0.58843 -0.96097,-1.04246 -1.61608,-1.32926 -0.68509,-0.30163 -1.45979,-0.41346 -2.1971,-0.29422 -0.0967,0.0148 -0.19332,0.0335 -0.29033,0.0596 -0.097,0.0222 -0.19015,0.0483 -0.28328,0.0818 v 0.004 c 0.0113,0.0296 0.0226,0.0522 0.0374,0.0744 0.0148,0.0183 0.03,0.0335 0.0487,0.0448 0,0 0,-0.004 0.003,0 0.019,0.0109 0.0378,0.0183 0.0565,0.0222 0.0519,0.0148 0.11853,0.007 0.18203,-0.004 1.40017,-0.21202 2.53224,0.57361 2.88607,1.94768 0.048,0.18239 -0.16792,0.57327 0.26423,0.56233 0.37218,-0.007 0.67416,-0.17145 0.89359,-0.49918 m -0.0967,1.73531 c 0.33514,-0.36512 1.10948,-0.46178 0.72602,-1.27352 -2.05917,1.18427 -4.64715,1.57127 -6.07343,3.94335 1.05763,0.14146 1.84715,-0.28293 2.63666,-0.64806 1.04246,-0.48013 1.93993,-1.17651 2.71075,-2.02177 m 1.95862,4.22628 c 1.17651,-0.91616 1.42981,-1.9438 0.74471,-2.8261 -0.33513,-0.43568 -0.72601,-0.8195 -1.17651,-1.14688 -0.62935,-0.45826 -0.92357,-0.21978 -1.10984,0.42439 2.07786,0.46179 1.47849,2.10397 1.54164,3.54859 m 2.05528,-5.58553 c -0.86712,-0.29774 -1.55257,-0.0892 -2.22673,0.13406 -0.24941,0.0818 -0.47272,0.29069 -0.38735,0.5401 0.097,0.28681 0.37994,0.26035 0.62583,0.11148 0.56585,-0.34608 1.21003,-0.51012 1.98825,-0.78564 m 1.35926,-0.68509 c 0.28681,0.0857 0.65899,0.0931 0.52493,0.55104 -0.0928,0.31291 -0.0631,0.68156 -0.61419,0.6925 -0.998,0.0187 -1.96215,0.26811 -2.8448,0.7747 0.0632,0.34643 0.36866,0.4766 0.55845,0.69991 0.28681,0.33902 0.6664,0.6925 0.64805,1.12465 -0.0561,1.17687 0.61419,2.07787 1.02024,3.07587 0.29774,0.73343 0.24553,2.25637 0.20461,2.27119 -0.2346,-0.24554 -0.26423,-0.53622 -0.29775,-0.87489 -0.0596,-0.67028 -0.0744,-1.40018 -0.72248,-1.85455 -0.36513,-0.52882 -0.71509,-0.48754 -1.0721,0.0113 -0.13088,0.17498 -0.2794,0.33514 -0.42121,0.50271 -0.33867,0.0893 -0.50624,0.66287 -0.99025,0.34255 -0.48048,-0.31644 -0.20849,-0.70379 -0.15275,-1.10596 0.0744,-0.55845 0.037,-2.17452 -0.0893,-2.40171 -0.2607,-0.4766 -1.12818,-0.74471 -1.39664,-0.4318 -0.29422,0.0445 -0.46532,0.28293 -0.68474,0.43921 -1.30705,0.91969 -2.71851,1.57868 -4.33458,1.67957 -0.86008,0.0522 -1.03894,-0.25717 -0.68157,-1.03893 0.43215,-0.94227 1.19909,-1.55292 2.01859,-2.13007 0.0444,-0.0296 0.0893,-0.0631 0.13759,-0.0892 0.0335,-0.0187 0.067,-0.0409 0.10407,-0.0635 0.50658,-0.29387 1.32962,-0.67769 1.74625,-0.91969 0.0748,-0.0261 0.14534,-0.067 0.20143,-0.13406 0.0183,-0.0148 0.0332,-0.0296 0.0448,-0.0448 -2.0073,-2.56928 -4.68453,-3.11291 -7.3099,-1.48555 -1.32186,0.81527 -2.23026,1.98473 -2.78166,3.41454 -0.52493,1.36666 -0.96414,2.76683 -1.44815,4.14831 -0.71508,2.03659 -1.63865,3.98427 -2.54705,5.9429 -0.37254,0.80045 -0.68898,1.63089 -0.0409,2.46485 -0.0374,0.30551 0.23072,0.46179 0.33867,0.70027 -0.0409,0.26811 -0.22331,0.36124 -0.47272,0.37218 -1.04281,-1.03858 -1.143,-2.29729 -0.55139,-3.51861 1.56809,-3.24344 2.76683,-6.62093 3.98109,-9.99842 1.10561,-3.0794 3.24309,-4.94842 6.64634,-5.10858 0.0822,-0.004 0.17885,0.0113 0.242,-0.0296 1.73532,-1.18075 4.21534,-0.85302 5.82754,0.77434 0.64452,0.65159 0.68933,0.66675 0.99836,-0.20108 0.33831,-0.96061 0.58455,-1.95474 0.87842,-2.93052 0.11183,-0.37254 0.24588,-0.74472 0.70379,-0.2794 0.037,0.48436 -0.37606,0.89746 -0.22719,1.61254 0.2346,-0.58102 0.39123,-0.97578 0.54751,-1.36666 0.48013,-0.078 0.72637,0.0631 0.49177,0.57362 -0.55527,1.20615 -0.77117,2.53189 -1.43792,3.80189 1.13982,-0.14535 2.20451,-0.272 3.25473,0.037"
       style="fill:#412c1a;fill-opacity:1;fill-rule:nonzero;stroke:none;stroke-width:0.35277778"
       id="path30"
       inkscape:connector-curvature="0" />
    <path
       d="m 162.08639,150.00566 c 0.0222,0.40569 -0.14887,0.76694 -0.34607,1.09502 -1.5494,2.57281 -3.66043,4.50533 -6.68761,4.99322 -3.17641,0.50623 -6.25616,1.31833 -9.32427,2.24543 -1.53071,0.46179 -3.05717,0.31644 -4.39032,-0.71508 -0.0335,-0.0557 -0.0709,-0.11536 -0.10407,-0.17498 0.24941,-0.0113 0.4318,-0.10407 0.47237,-0.37253 0.77505,0.55492 1.62771,0.82691 2.58798,0.70414 0.19402,0.0109 0.39123,0.0632 0.57361,0.0222 0.21237,-0.0448 0.44309,-0.0967 0.69639,-0.15628 2.268,-0.51788 5.98417,-1.5233 7.87929,-2.03341 0.007,0 0.0113,-0.004 0.0187,-0.004 3.32494,-0.1898 5.73794,-1.86937 7.51064,-4.60622 0.58456,-0.90488 0.64806,-1.85455 0.34608,-2.85609 -0.0854,-0.29034 -0.16722,-0.58103 -0.2533,-0.87136 0.64806,0.45438 0.66287,1.18427 0.72249,1.85455 0.0339,0.33867 0.0635,0.629 0.2981,0.87489"
       style="fill:#552015;fill-opacity:1;fill-rule:nonzero;stroke:none;stroke-width:0.35277778"
       id="path34"
       inkscape:connector-curvature="0" />
    <path
       d="m 159.00304,141.63495 c 0.67416,-0.22331 1.35961,-0.43215 2.22673,-0.13406 -0.77822,0.27552 -1.4224,0.43921 -1.98825,0.78564 -0.24589,0.14887 -0.52882,0.17498 -0.62583,-0.11183 -0.0854,-0.24941 0.13794,-0.45791 0.38735,-0.53975"
       style="fill:#90a669;fill-opacity:1;fill-rule:nonzero;stroke:none;stroke-width:0.35277778"
       id="path42"
       inkscape:connector-curvature="0" />
    <path
       d="m 159.96006,136.15744 c 0.1083,0.0818 0.2159,0.16369 0.32032,0.24553 -0.15628,0.39123 -0.31291,0.78599 -0.54751,1.36666 -0.14852,-0.71508 0.26423,-1.12818 0.22719,-1.61219"
       style="fill:#90a669;fill-opacity:1;fill-rule:nonzero;stroke:none;stroke-width:0.35277778"
       id="path46"
       inkscape:connector-curvature="0" />
    <path
       d="m 159.91907,144.26011 c 0.68509,0.8823 0.43215,1.91029 -0.74436,2.8261 -0.0635,-1.44462 0.53587,-3.0868 -1.54164,-3.54859 0.18591,-0.64417 0.48013,-0.8823 1.10949,-0.42439 0.45049,0.32773 0.84172,0.7112 1.17651,1.14688"
       style="fill:#90a669;fill-opacity:1;fill-rule:nonzero;stroke:none;stroke-width:0.35277778"
       id="path50"
       inkscape:connector-curvature="0" />
    <path
       d="m 157.94192,141.58655 c 0.38347,0.81174 -0.39088,0.9084 -0.72637,1.27353 -0.77047,0.84525 -1.66793,1.54128 -2.71039,2.02177 -0.78952,0.36477 -1.57903,0.78951 -2.63666,0.64805 1.42628,-2.37208 4.01426,-2.75943 6.07342,-3.94335"
       style="fill:#90a669;fill-opacity:1;fill-rule:nonzero;stroke:none;stroke-width:0.35277778"
       id="path66"
       inkscape:connector-curvature="0" />
    <path
       d="m 157.32767,140.45448 c 0.16757,0.24941 0.14111,0.43215 -0.0152,0.67028 -0.21943,0.32773 -0.5214,0.49142 -0.89359,0.49883 -0.43215,0.0113 -0.2159,-0.37959 -0.26423,-0.56198 -0.35383,-1.37407 -1.4859,-2.1597 -2.88607,-1.94769 -0.0635,0.0113 -0.13018,0.0187 -0.18203,0.004 -0.0187,-0.007 -0.0413,-0.0148 -0.0564,-0.0222 -0.003,-0.004 -0.003,0 -0.003,0 -0.0187,-0.0148 -0.0339,-0.0296 -0.0487,-0.0444 -0.0148,-0.0222 -0.0261,-0.0448 -0.0374,-0.0744 0.0931,-0.0339 0.18627,-0.0596 0.28328,-0.0857 0.097,-0.0261 0.19367,-0.0448 0.29034,-0.0596 0.7373,-0.11924 1.50812,-0.007 2.1971,0.29421 0.6551,0.28646 1.22872,0.74084 1.61607,1.32927"
       style="fill:#90a669;fill-opacity:1;fill-rule:nonzero;stroke:none;stroke-width:0.35277778"
       id="path70"
       inkscape:connector-curvature="0" />
    <path
       d="m 156.44883,153.94912 c 0.13017,-0.10054 0.26035,-0.20496 0.38735,-0.30551 -0.13018,0.10055 -0.25718,0.20497 -0.38735,0.30551"
       style="fill:#d03e3b;fill-opacity:1;fill-rule:nonzero;stroke:none;stroke-width:0.35277778"
       id="path74"
       inkscape:connector-curvature="0" />
    <path
       d="m 155.35398,154.71235 c 0.0635,-0.037 0.12665,-0.0744 0.18979,-0.11536 -0.0631,0.0409 -0.12629,0.0819 -0.18979,0.11536"
       style="fill:#d03e3b;fill-opacity:1;fill-rule:nonzero;stroke:none;stroke-width:0.35277778"
       id="path78"
       inkscape:connector-curvature="0" />
    <path
       d="m 155.2496,142.07059 c 0.0857,-0.0557 0.15628,-0.10054 0.20108,-0.13406 -0.0557,0.067 -0.12629,0.10795 -0.20108,0.13406"
       style="fill:#412c1a;fill-opacity:1;fill-rule:nonzero;stroke:none;stroke-width:0.35277778"
       id="path86"
       inkscape:connector-curvature="0" />
    <path
       d="m 154.55335,155.08478 c 0.067,-0.0222 0.13406,-0.0483 0.20108,-0.0783 -0.067,0.03 -0.13405,0.0561 -0.20108,0.0783"
       style="fill:#d03e3b;fill-opacity:1;fill-rule:nonzero;stroke:none;stroke-width:0.35277778"
       id="path94"
       inkscape:connector-curvature="0" />
    <path
       d="m 154.30013,155.16299 c 0.0744,-0.0187 0.14922,-0.0409 0.22366,-0.067 -0.0744,0.0261 -0.14922,0.0483 -0.22366,0.067"
       style="fill:#d03e3b;fill-opacity:1;fill-rule:nonzero;stroke:none;stroke-width:0.35277778"
       id="path98"
       inkscape:connector-curvature="0" />
    <path
       d="m 155.71159,139.12522 c -0.68897,-0.30162 -1.45979,-0.41346 -2.1971,-0.29422 0.73731,-0.11924 1.51201,-0.007 2.1971,0.29422"
       style="fill:#90a669;fill-opacity:1;fill-rule:nonzero;stroke:none;stroke-width:0.35277778"
       id="path102"
       inkscape:connector-curvature="0" />
    <path
       d="m 154.25914,155.17417 c -0.0667,0.0222 -0.13406,0.037 -0.20461,0.0519 -0.22366,0.0487 -2.93793,0.5775 -3.45193,0.65934 0.45438,-0.0892 2.87443,-0.65158 3.65654,-0.7112"
       style="fill:#d03e3b;fill-opacity:1;fill-rule:nonzero;stroke:none;stroke-width:0.35277778"
       id="path106"
       inkscape:connector-curvature="0" />
    <path
       d="m 153.22423,138.89058 c -0.097,0.0261 -0.19015,0.0519 -0.28328,0.0857 v -0.004 c 0.0931,-0.0335 0.18627,-0.0596 0.28328,-0.0818"
       style="fill:#90a669;fill-opacity:1;fill-rule:nonzero;stroke:none;stroke-width:0.35277778"
       id="path110"
       inkscape:connector-curvature="0" />
    <path
       d="m 153.03027,139.09541 c 0.0152,0.007 0.0374,0.0148 0.0561,0.0222 -0.0187,-0.004 -0.037,-0.0109 -0.0561,-0.0222"
       style="fill:#90a669;fill-opacity:1;fill-rule:nonzero;stroke:none;stroke-width:0.35277778"
       id="path114"
       inkscape:connector-curvature="0" />
    <path
       d="m 152.97824,139.0506 c 0.0148,0.0148 0.03,0.0296 0.0487,0.0448 -0.0187,-0.0113 -0.0339,-0.0261 -0.0487,-0.0448"
       style="fill:#90a669;fill-opacity:1;fill-rule:nonzero;stroke:none;stroke-width:0.35277778"
       id="path118"
       inkscape:connector-curvature="0" />
    <path
       d="m 151.51132,140.84173 c -0.35384,0.0448 -0.69991,0.14534 -1.0354,0.29034 0.35383,-0.1711 0.70026,-0.27552 1.0354,-0.29034"
       style="fill:#ec5c5a;fill-opacity:1;fill-rule:nonzero;stroke:none;stroke-width:0.35277778"
       id="path126"
       inkscape:connector-curvature="0" />
    <path
       d="m 145.5644,157.64672 c 2.49132,-0.58843 7.44714,-1.96991 7.87929,-2.03306 -1.89512,0.51012 -5.61128,1.51554 -7.87929,2.03306"
       style="fill:#d03e3b;fill-opacity:1;fill-rule:nonzero;stroke:none;stroke-width:0.35277778"
       id="path130"
       inkscape:connector-curvature="0" />
    <path
       d="m 144.61493,148.31896 c 0.0187,-0.0744 0.18274,-0.40605 0.45791,-0.89006 -0.33479,0.65899 -0.52141,1.08726 -0.52141,1.08726 -0.0706,0.18274 -0.1711,0.42475 -0.28646,0.7112 z"
       style="fill:#ec5c5a;fill-opacity:1;fill-rule:nonzero;stroke:none;stroke-width:0.35277778"
       id="path138"
       inkscape:connector-curvature="0" />
    <g
       id="g164"
       transform="matrix(-0.35277777,0,0,-0.35277777,108.04277,141.8191)">
      <path
         inkscape:connector-curvature="0"
         id="path162"
         style="fill:#443321;fill-opacity:1;fill-rule:nonzero;stroke:none"
         d="m 0,0 c 1.027,-0.168 2.131,-0.292 3.411,0.01 -7.484,4.227 -15.016,3.469 -22.568,2.749 2.139,-0.965 4.217,-1.939 6.222,-3.051 2.375,-1.32 4.813,-2.515 7.581,-2.87 3.407,-0.436 6.703,-0.091 10.468,1.162 -1.876,0.364 -3.602,0.671 -5.272,0.901 z m 11.193,-4.971 c 0.198,0.269 -0.311,0.562 -0.642,0.428 -0.677,-0.274 -1.708,-0.058 -1.905,-1.041 -0.096,-0.485 0.283,-0.835 0.94,-0.907 0.514,0.465 1.166,0.921 1.607,1.52 m 2.779,-3.862 c 2.538,-4.524 3.439,-9.389 2.945,-14.465 -0.542,-5.566 -2.321,-10.666 -6.788,-14.499 C 3.383,-43.588 -4.61,-46.4 -13.491,-47 c -3.181,-0.215 -6.315,-0.023 -9.423,0.423 l 0.129,0.959 c 0.049,-0.005 0.097,-0.009 0.144,-0.014 0.058,-0.01 0.116,-0.014 0.173,-0.019 4.999,-0.437 10.08,-0.442 15.074,0.657 6.564,1.444 12.61,4.035 17.326,8.718 5.921,5.877 6.736,13.242 5.219,21.009 -0.517,2.639 -1.659,5.053 -3.108,7.327 -0.466,0.724 -0.504,0.7 -1.229,0.244 -2.552,-0.542 -4.251,1.113 -3.377,3.441 0.538,1.448 -0.197,1.535 -1.157,1.204 -5.843,-2.02 -11.639,-2.044 -17.426,0.182 -1.386,0.892 -2.538,2.394 -4.557,1.636 -5.297,-1.981 -10.339,-4.443 -14.73,-7.974 -7.326,-5.892 -11.298,-13.295 -10.162,-22.771 0.193,-1.602 0.514,-3.19 1.267,-4.586 l -1.036,-0.461 c -1.18,2.308 -1.703,5.014 -1.641,8.229 0.139,7.081 2.984,13.059 8.026,18.073 4.406,4.38 9.822,7.244 15.512,9.677 0.662,0.283 1.329,0.542 2.207,0.898 -1.794,1.333 -3.689,1.559 -5.565,1.708 -0.926,0.071 -1.013,0.551 -1.152,1.242 -0.182,0.907 0.442,0.993 1.017,1.055 7.893,0.821 15.775,1.545 23.447,-1.319 1.814,-0.676 3.431,-1.684 5.081,-2.653 2.342,-1.372 4.788,-2.548 6.88,-4.308 0.85,-0.711 0.927,-0.648 -0.81,-1.656 -0.346,-0.441 -0.043,-0.624 0.316,-0.782 v -0.005 c 0.015,-0.316 0.192,-0.503 0.509,-0.575 0.058,-0.096 0.115,-0.192 0.168,-0.293 0.11,-0.37 0.158,-0.767 0.341,-1.099" />
    </g>
    <g
       id="g172"
       transform="matrix(-0.35277777,0,0,-0.35277777,103.47113,144.23944)">
      <path
         inkscape:connector-curvature="0"
         id="path170"
         style="fill:#d49047;fill-opacity:1;fill-rule:nonzero;stroke:none"
         d="m 0,0 c 0.336,-0.053 0.581,-0.182 0.504,-0.581 -0.317,0.073 -0.494,0.26 -0.509,0.576 H 0 Z" />
    </g>
    <path
       inkscape:connector-curvature="0"
       id="path174"
       style="fill:#d49047;fill-opacity:1;fill-rule:nonzero;stroke:none;stroke-width:0.35277778"
       d="m 103.47116,144.24124 h 0.002 v -0.002 h -0.002 z" />
    <g
       id="g178"
       transform="matrix(-0.35277777,0,0,-0.35277777,103.58448,143.96349)">
      <path
         inkscape:connector-curvature="0"
         id="path176"
         style="fill:#d49047;fill-opacity:1;fill-rule:nonzero;stroke:none"
         d="M 0,0 C 0.105,-0.264 0.216,-0.523 0.316,-0.782 -0.043,-0.624 -0.346,-0.441 0,0" />
    </g>
    <g
       id="g186"
       transform="matrix(-0.35277777,0,0,-0.35277777,104.32069,143.42191)">
      <path
         inkscape:connector-curvature="0"
         id="path184"
         style="fill:#90a96a;fill-opacity:1;fill-rule:nonzero;stroke:none"
         d="m 0,0 c 0.331,0.134 0.84,-0.158 0.643,-0.427 -0.442,-0.6 -1.094,-1.055 -1.608,-1.521 -0.657,0.072 -1.036,0.422 -0.94,0.907 C -1.708,-0.058 -0.677,-0.273 0,0" />
    </g>
    <g
       id="g190"
       transform="matrix(-0.35277777,0,0,-0.35277777,106.83938,141.81564)">
      <path
         inkscape:connector-curvature="0"
         id="path188"
         style="fill:#90a96a;fill-opacity:1;fill-rule:nonzero;stroke:none"
         d="m 0,0 c -1.28,-0.302 -2.384,-0.178 -3.411,-0.01 -0.734,0.125 -1.435,0.269 -2.13,0.302 -0.36,0.015 -0.725,0.044 -1.089,0.068 -0.624,0.048 -1.253,0.1 -1.881,0.124 -0.538,0.024 -1.253,0.015 -1.271,-0.613 -0.025,-0.759 0.758,-0.548 1.237,-0.562 0.614,-0.015 1.224,-0.043 1.833,-0.086 1.036,-0.072 2.077,-0.187 3.143,-0.331 1.67,-0.231 3.396,-0.538 5.272,-0.902 -3.766,-1.253 -7.061,-1.598 -10.469,-1.161 -2.767,0.355 -5.205,1.549 -7.58,2.869 -2.006,1.113 -4.083,2.087 -6.222,3.051 C -15.017,3.469 -7.484,4.227 0,0" />
    </g>
    <g
       id="g194"
       transform="matrix(-0.35277777,0,0,-0.35277777,108.04277,141.8191)">
      <path
         inkscape:connector-curvature="0"
         id="path192"
         style="fill:#443321;fill-opacity:1;fill-rule:nonzero;stroke:none"
         d="m 0,0 -0.158,-1.099 c -1.066,0.144 -2.107,0.26 -3.143,0.331 L -3.219,0.37 C -2.854,0.346 -2.49,0.317 -2.13,0.302 -1.435,0.269 -0.733,0.125 0,0" />
    </g>
    <g
       id="g198"
       transform="matrix(-0.35277777,0,0,-0.35277777,109.17826,141.68871)">
      <path
         inkscape:connector-curvature="0"
         id="path196"
         style="fill:#443321;fill-opacity:1;fill-rule:nonzero;stroke:none"
         d="m 0,0 -0.082,-1.137 c -0.609,0.043 -1.219,0.072 -1.833,0.086 -0.48,0.014 -1.262,-0.197 -1.237,0.562 0.018,0.628 0.733,0.637 1.271,0.614 C -1.253,0.101 -0.624,0.048 0,0" />
    </g>
    <g
       id="g206"
       transform="matrix(-0.35277777,0,0,-0.35277777,116.02988,157.91716)">
      <path
         inkscape:connector-curvature="0"
         id="path204"
         style="fill:#d49047;fill-opacity:1;fill-rule:nonzero;stroke:none"
         d="M 0,0 C -0.048,0.005 -0.096,0.01 -0.145,0.015 -0.216,0.024 -0.293,0.039 -0.369,0.053 -0.24,0.029 -0.115,0.015 0,0" />
    </g>
    <g
       id="g210"
       transform="matrix(-0.35277777,0,0,-0.35277777,116.08085,157.91201)">
      <path
         inkscape:connector-curvature="0"
         id="path208"
         style="fill:#443321;fill-opacity:1;fill-rule:nonzero;stroke:none"
         d="m 0,0 -0.129,-0.959 c -2.245,0.316 -4.476,0.767 -6.698,1.295 -3.78,1.401 -6.626,3.104 -8.631,5.248 l 1.041,0.941 C -12.892,4.995 -6.396,1.837 -2.188,0.533 -1.516,0.312 -0.844,0.134 -0.225,0.038 -0.148,0.024 -0.071,0.01 0,0" />
    </g>
    <g
       id="g214"
       transform="matrix(-0.35277777,0,0,-0.35277777,116.85255,157.72405)">
      <path
         inkscape:connector-curvature="0"
         id="path212"
         style="fill:#d49047;fill-opacity:1;fill-rule:nonzero;stroke:none"
         d="M 0,0 C 0.739,-0.226 1.406,-0.398 1.963,-0.495 1.344,-0.398 0.672,-0.221 0,0" />
    </g>
    <g
       id="g222"
       transform="matrix(-0.35277777,0,0,-0.35277777,121.16685,155.61017)">
      <path
         inkscape:connector-curvature="0"
         id="path220"
         style="fill:#443321;fill-opacity:1;fill-rule:nonzero;stroke:none"
         d="M 0,0 -1.041,-0.94 C -1.9,-0.019 -2.605,0.979 -3.162,2.068 l 1.036,0.46 C -1.67,1.689 -1.056,0.921 -0.221,0.259 -0.168,0.178 -0.091,0.091 0,0" />
    </g>
    <g
       id="g238"
       transform="matrix(0.35277777,0,0,-0.35277777,101.42549,152.17644)">
      <path
         inkscape:connector-curvature="0"
         id="path236"
         style="fill:#592912;fill-opacity:1;fill-rule:nonzero;stroke:none"
         d="m 0,0 c 2.249,7.946 0.752,15.401 -4.005,22.194 -0.787,1.113 -1.474,1.379 -2.42,0.237 -0.385,-0.456 -0.835,-0.864 -1.255,-1.284 -0.917,-0.923 -2.083,-1.846 0.231,-2.497 0.166,-0.047 0.166,-0.663 0.237,-1.012 -0.669,-0.017 -1.367,-0.165 -2.006,-0.041 -1.1,0.213 -2.023,0.662 -2.716,1.26 -0.1,0.083 -0.195,0.172 -0.284,0.266 -0.822,0.835 -1.23,1.899 -1.083,2.964 0.03,0.214 0.083,0.433 0.16,0.651 0.078,0.214 0.184,0.427 0.308,0.639 0.178,-0.011 0.343,-0.023 0.515,-0.041 0.354,-0.71 0.183,-1.544 0.686,-2.266 0.775,-1.101 1.319,-0.876 1.917,0.077 v 0.006 c 0.586,0.568 1.112,1.183 1.745,1.686 0.077,0.065 0.155,0.13 0.225,0.201 0.077,0.071 0.148,0.142 0.207,0.219 0.201,0.219 0.367,0.456 0.485,0.693 0.012,0.006 0.018,0.017 0.018,0.023 0.515,0.911 0.686,1.834 0.686,1.834 0.06,-0.006 0.12,0.047 0.178,0.136 0.267,0.231 0.426,0.592 0.485,1.077 0,0 2.047,-2.863 2.45,-3.408 10.348,-13.899 6.793,-33.543 -10.165,-43.335 -5.006,-2.911 -15.828,-2.964 -16.284,-2.876 -0.029,0.592 -0.017,1.166 0.722,1.237 0.042,0 0.083,0.006 0.131,0.006 3.384,0 6.751,0.142 9.958,1.408 C -8.916,-16.769 -2.792,-9.84 0,0" />
    </g>
    <g
       id="g250"
       transform="matrix(0.35277777,0,0,-0.35277777,99.419767,142.64351)">
      <path
         inkscape:connector-curvature="0"
         id="path248"
         style="fill:#592912;fill-opacity:1;fill-rule:nonzero;stroke:none"
         d="M 0,0 C -0.012,0.018 -0.018,0.029 -0.029,0.047 -0.018,0.047 -0.006,0.035 0,0" />
    </g>
    <g
       id="g254"
       transform="matrix(0.35277777,0,0,-0.35277777,99.409431,142.62678)">
      <path
         inkscape:connector-curvature="0"
         id="path252"
         style="fill:#592912;fill-opacity:1;fill-rule:nonzero;stroke:none"
         d="M 0,0 C 0.012,-0.018 0.018,-0.03 0.029,-0.047 -0.03,-0.533 -0.189,-0.894 -0.456,-1.125 -0.249,-0.805 -0.083,0 0,0" />
    </g>
    <g
       id="g258"
       transform="matrix(0.35277777,0,0,-0.35277777,99.409431,142.62678)">
      <path
         inkscape:connector-curvature="0"
         id="path256"
         style="fill:#4a382e;fill-opacity:1;fill-rule:nonzero;stroke:none"
         d="m 0,0 c -0.083,0 -0.249,-0.805 -0.456,-1.125 -0.053,-0.053 -0.112,-0.1 -0.178,-0.136 -0.248,-0.154 -0.573,-0.218 -0.975,-0.207 -5.42,0.207 -11.811,-0.059 -16.912,1.172 l 0.161,0.657 c 0.65,-0.154 1.348,-0.249 2.106,-0.278 4.095,-0.172 8.107,0.005 12.608,0.272 -4.981,3.698 -10.886,4.242 -15.703,7.183 5.734,-0.396 10.775,-2.917 15.964,-5.012 -4.207,5.846 -9.733,9.254 -16.999,9.515 -4.041,1.922 -8.325,1.165 -12.567,1.467 v -0.024 c 0,-0.929 0.739,-1.946 1.265,-2.491 l -0.78,-0.745 c -0.81,0.846 -1.621,1.692 -2.432,2.538 -0.467,0.491 -1.107,1.018 -0.757,1.722 0.29,0.603 1.077,0.385 1.65,0.379 6.225,-0.072 12.443,0.047 18.515,-1.829 C -9.254,11.129 -4.432,7.52 -1.137,1.87 -0.775,1.242 -0.379,0.621 0,0" />
    </g>
    <g
       id="g262"
       transform="matrix(0.35277777,0,0,-0.35277777,99.18584,143.07157)">
      <path
         inkscape:connector-curvature="0"
         id="path260"
         style="fill:#f6953f;fill-opacity:1;fill-rule:nonzero;stroke:none"
         d="m 0,0 c 0,0 -0.171,-0.923 -0.687,-1.834 0.433,0.816 0.385,1.604 -0.289,1.627 C -0.573,-0.219 -0.248,-0.154 0,0" />
    </g>
    <g
       id="g286"
       transform="matrix(0.35277777,0,0,-0.35277777,97.115352,145.43024)">
      <path
         inkscape:connector-curvature="0"
         id="path284"
         style="fill:#f6953f;fill-opacity:1;fill-rule:nonzero;stroke:none"
         d="M 0,0 C 0.089,-0.094 0.184,-0.183 0.284,-0.266 0.184,-0.183 0.089,-0.094 0,0" />
    </g>
    <g
       id="g290"
       transform="matrix(0.35277777,0,0,-0.35277777,98.215349,141.73556)">
      <path
         inkscape:connector-curvature="0"
         id="path288"
         style="fill:#92ac6d;fill-opacity:1;fill-rule:nonzero;stroke:none"
         d="m 0,0 c -5.189,2.094 -10.23,4.615 -15.964,5.012 4.817,-2.941 10.722,-3.486 15.703,-7.183 -4.502,-0.267 -8.513,-0.444 -12.608,-0.273 -0.758,0.03 -1.456,0.125 -2.107,0.278 -2.81,0.675 -4.727,2.426 -6.745,4.503 -0.053,0.059 -0.112,0.119 -0.166,0.178 -1.958,2.124 -4.946,7.052 -4.236,7.159 3.059,0.468 6.083,-0.225 9.124,-0.16 C -9.733,9.254 -4.207,5.846 0,0" />
    </g>
    <g
       id="g294"
       transform="matrix(0.35277777,0,0,-0.35277777,95.368326,160.17095)">
      <path
         inkscape:connector-curvature="0"
         id="path292"
         style="fill:#f6953f;fill-opacity:1;fill-rule:nonzero;stroke:none"
         d="m 0,0 -0.083,-0.124 -0.095,0.088 z" />
    </g>
    <g
       id="g302"
       transform="matrix(0.35277777,0,0,-0.35277777,92.93229,142.4995)">
      <path
         inkscape:connector-curvature="0"
         id="path300"
         style="fill:#4a382e;fill-opacity:1;fill-rule:nonzero;stroke:none"
         d="m 0,0 -0.16,-0.657 c -0.621,0.142 -1.225,0.32 -1.805,0.515 -3.668,1.248 -6.91,4.627 -8.561,5.147 -0.095,0.089 -0.254,0.119 -0.486,0.06 -0.029,-0.006 -0.064,-0.012 -0.1,-0.024 -6.117,-1.899 -11.206,-5.266 -14.97,-10.425 -0.283,-0.391 -0.562,-0.787 -0.816,-1.184 -4.171,-6.266 -5.651,-13.224 -3.947,-20.75 1.77,-10.97 13.473,-17.763 15.674,-18.751 3.331,-1.485 6.852,-2.16 10.414,-2.716 -0.048,0 -0.089,0 -0.131,-0.006 -1.023,-0.041 -0.721,-1.236 -0.721,-1.236 -14.278,1.142 -29.064,13.248 -27.099,31.732 0.698,6.586 3.745,11.952 7.94,16.904 3.266,3.858 13.39,7.929 13.65,8.16 -1.006,1.047 -2,2.083 -2.987,3.118 l 0.78,0.745 c 0.178,-0.177 0.326,-0.307 0.421,-0.361 C -10.479,8.857 -8.793,6.645 -6.911,4.68 -6.857,4.621 -6.799,4.562 -6.745,4.502 -4.728,2.426 -2.811,0.674 0,0" />
    </g>
    <g
       id="g306"
       transform="matrix(0.35277777,0,0,-0.35277777,92.218479,138.37916)">
      <path
         inkscape:connector-curvature="0"
         id="path304"
         style="fill:#92ac6d;fill-opacity:1;fill-rule:nonzero;stroke:none"
         d="M 0,0 C -3.041,-0.065 -6.065,0.627 -9.124,0.16 -9.846,0.047 -12.55,0.225 -12.567,1.444 V 1.467 C -8.325,1.166 -4.041,1.923 0,0" />
    </g>
    <g
       id="g310"
       transform="matrix(0.35277777,0,0,-0.35277777,91.254196,159.70966)">
      <path
         inkscape:connector-curvature="0"
         id="path308"
         style="fill:#592912;fill-opacity:1;fill-rule:nonzero;stroke:none"
         d="M 0,0 C -0.048,0 -0.089,-0.006 -0.131,-0.006 -0.089,0 -0.048,0 0,0" />
    </g>
    <g
       id="g314"
       transform="matrix(0.35277777,0,0,-0.35277777,91.208018,159.71171)">
      <path
         inkscape:connector-curvature="0"
         id="path312"
         style="fill:#592912;fill-opacity:1;fill-rule:nonzero;stroke:none"
         d="m 0,0 c -0.739,-0.071 -0.751,-0.645 -0.722,-1.237 0,0 -0.301,1.195 0.722,1.237" />
    </g>
    <g
       id="g318"
       transform="matrix(0.35277777,0,0,-0.35277777,90.494207,140.84843)">
      <path
         inkscape:connector-curvature="0"
         id="path316"
         style="fill:#92ac6d;fill-opacity:1;fill-rule:nonzero;stroke:none"
         d="M 0,0 C -1.882,1.964 -3.567,4.177 -5.993,5.591 -6.088,5.645 -6.236,5.775 -6.414,5.952 -6.94,6.497 -7.68,7.514 -7.68,8.443 -7.662,7.225 -4.958,7.047 -4.236,7.159 -4.946,7.053 -1.958,2.124 0,0" />
    </g>
    <g
       id="g326"
       transform="matrix(0.35277777,0,0,-0.35277777,89.047607,140.71272)">
      <path
         inkscape:connector-curvature="0"
         id="path324"
         style="fill:#4a382e;fill-opacity:1;fill-rule:nonzero;stroke:none"
         d="M 0,0 C 0.231,0.059 0.391,0.029 0.485,-0.06 0.302,-0.006 0.143,0.018 0,0" />
    </g>
    <g
       id="g334"
       transform="matrix(-0.35277777,0,0,0.35277777,56.764364,151.15074)">
      <path
         inkscape:connector-curvature="0"
         id="path332"
         style="fill:#4a382e;fill-opacity:1;fill-rule:nonzero;stroke:none"
         d="M 0,0 C -4.112,-6.254 -5.183,-13.135 -3.946,-20.75 -5.65,-13.224 -4.171,-6.266 0,0" />
    </g>
    <g
       id="g350"
       transform="matrix(-0.35277777,0,0,0.35277777,59.575226,155.02424)">
      <path
         inkscape:connector-curvature="0"
         id="path348"
         style="fill:#4c2f14;fill-opacity:1;fill-rule:nonzero;stroke:none"
         d="m 0,0 c 7.434,-13.852 4.189,-34.589 -11.571,-44.313 -2.254,-1.387 -4.447,-2.873 -6.674,-4.295 -6.02,-3.855 -12.553,-5.56 -19.694,-4.747 -4.084,0.848 -7.983,2.253 -11.837,3.818 -1.255,0.681 -2.519,1.362 -3.775,2.051 -0.22,0.115 -0.432,0.239 -0.609,0.389 v 0.009 c -0.027,0.088 -0.168,0.716 -0.177,1.264 0.459,0.716 1.105,0.38 1.697,0.062 3.404,-1.795 6.877,-3.412 10.581,-4.526 7.205,-2.184 14.099,-1.635 20.658,2.13 4.446,2.555 8.866,5.145 12.676,8.628 0.177,0.15 0.354,0.309 0.531,0.459 0.168,0.151 0.336,0.301 0.504,0.451 v -0.018 c 0.318,0.23 0.68,0.425 0.954,0.699 10.334,10.651 11.491,28.171 2.652,40.149 -0.336,0.451 -0.84,0.884 -0.442,1.467 0.397,0.575 0.999,0.46 1.494,0.106 0.787,-0.556 0.954,-0.115 1.016,0.557 1.379,-0.044 0.672,1.485 1.432,1.892 C -0.327,4.597 0.354,2.997 -0.434,1.299 -0.575,0.999 -0.222,0.407 0,0" />
    </g>
    <g
       id="g354"
       transform="matrix(-0.35277777,0,0,0.35277777,59.76883,157.50335)">
      <path
         inkscape:connector-curvature="0"
         id="path352"
         style="fill:#463024;fill-opacity:1;fill-rule:nonzero;stroke:none"
         d="m 0,0 c -0.009,-0.265 -0.018,-0.53 -0.035,-0.795 -0.76,-0.407 -0.053,-1.936 -1.432,-1.892 -0.274,0.822 -0.548,1.653 -0.822,2.475 -1.776,1.945 -3.527,2.369 -5.799,1.299 0.602,-0.459 1.15,-0.875 1.715,-1.299 0.071,-0.203 0.124,-0.398 0.15,-0.592 0.053,-0.53 -0.106,-1.008 -0.654,-1.3 -0.875,-0.468 -1.272,0.398 -1.697,0.884 -1.308,1.476 -2.28,3.298 -4.331,3.951 -4.287,2.326 -8.814,2.432 -13.313,1.008 -13.701,-4.322 -23.92,-13.082 -31.159,-25.343 -4.154,-7.027 -6.895,-14.488 -4.88,-22.903 0.115,-0.46 -0.212,-1.282 -0.212,-1.282 0,0 -3.783,-6.214 -3.076,-7.991 1.008,-2.536 6.1,-1.166 9.246,-0.053 0.009,0.009 0.027,0.009 0.035,0.009 0.77,0.097 2.025,0.265 2.476,0.972 -0.371,-0.583 -0.194,-0.972 0.177,-1.264 v -0.009 c -1.035,0.009 -6.118,-3.288 -10.634,-2.616 -4.623,0.69 -2.732,6.745 -0.681,9.246 0.849,1.026 1.096,3.307 1.096,3.307 -0.354,1.131 -0.822,1.785 -1.061,2.952 -0.026,0.477 -0.052,0.954 -0.088,1.432 0.036,0.946 0.08,1.891 0.115,2.837 0.052,0.345 0.106,0.681 0.159,1.026 3.536,19.482 21.533,38.355 40.184,42.058 5.039,0.999 9.927,0.646 14.214,-2.59 C -9.511,2.926 -8.954,3.165 -8.149,3.421 -5.136,4.376 -1.511,2.802 0,0" />
    </g>
    <g
       id="g370"
       transform="matrix(-0.35277777,0,0,0.35277777,62.285123,141.40321)">
      <path
         inkscape:connector-curvature="0"
         id="path368"
         style="fill:#fcd261;fill-opacity:1;fill-rule:nonzero;stroke:none"
         d="m 0,0 -0.009,-0.027 v 0.018 z" />
    </g>
    <g
       id="g378"
       transform="matrix(-0.35277777,0,0,0.35277777,78.744076,138.85848)">
      <path
         inkscape:connector-curvature="0"
         id="path376"
         style="fill:#463024;fill-opacity:1;fill-rule:nonzero;stroke:none"
         d="M 0,0 C 0.009,-0.548 0.15,-1.176 0.177,-1.264 -0.194,-0.972 -0.371,-0.583 0,0" />
    </g>
    <g
       id="g382"
       transform="matrix(-0.35277777,0,0,0.35277777,78.744076,138.85848)">
      <path
         inkscape:connector-curvature="0"
         id="path380"
         style="fill:#463024;fill-opacity:1;fill-rule:nonzero;stroke:none"
         d="M 0,0 C -0.451,-0.707 -1.706,-0.875 -2.476,-0.972 -1.043,-0.451 -0.026,0 0,0" />
    </g>
    <g
       id="g398"
       transform="matrix(0.35277777,0,0,-0.35277777,143.36677,144.85232)">
      <path
         inkscape:connector-curvature="0"
         id="path396"
         style="fill:#9f7053;fill-opacity:1;fill-rule:nonzero;stroke:none"
         d="M 0,0 C 0.132,-0.554 0.328,-1.123 0.117,-1.531 0.109,-0.882 0.052,-0.299 0,0" />
    </g>
    <g
       id="g402"
       transform="matrix(0.35277777,0,0,-0.35277777,143.40812,145.39253)">
      <path
         inkscape:connector-curvature="0"
         id="path400"
         style="fill:#442615;fill-opacity:1;fill-rule:nonzero;stroke:none"
         d="m 0,0 c 0.007,-0.459 -0.022,-0.955 -0.109,-1.393 -0.11,-0.532 -0.299,-1.145 -0.526,-1.691 -0.116,0.466 -0.408,0.853 -1.123,0.751 -0.16,-0.022 -0.291,-0.066 -0.4,-0.131 0.021,0.51 0.065,1.049 0.095,1.545 0.058,0.802 0.109,1.502 0.058,1.794 0.234,-0.7 0.444,-1.699 1.487,-1.291 0.27,0.103 0.43,0.248 0.518,0.416" />
    </g>
    <g
       id="g406"
       transform="matrix(0.35277777,0,0,-0.35277777,143.36677,144.85232)">
      <path
         inkscape:connector-curvature="0"
         id="path404"
         style="fill:#442615;fill-opacity:1;fill-rule:nonzero;stroke:none"
         d="M 0,0 C 0.052,-0.299 0.109,-0.882 0.117,-1.531 0.029,-1.699 -0.131,-1.845 -0.4,-1.947 c -1.043,-0.408 -1.254,0.591 -1.488,1.291 -0.008,0.029 -0.014,0.058 -0.022,0.08 -0.306,0.897 -0.372,1.881 -0.722,2.756 -0.204,0.51 -0.357,1.071 -0.525,1.611 l 1.699,2.217 C -1.574,3.9 -0.452,2.085 -0.021,0.109 -0.015,0.073 -0.007,0.036 0,0" />
    </g>
    <g
       id="g410"
       transform="matrix(0.35277777,0,0,-0.35277777,143.22037,146.80208)">
      <path
         inkscape:connector-curvature="0"
         id="path408"
         style="fill:#442615;fill-opacity:1;fill-rule:nonzero;stroke:none"
         d="m 0,0 c 0.167,-5.724 -1.306,-10.973 -4.63,-15.69 -3.427,-4.856 -8.458,-7.613 -13.416,-10.478 -5.016,-2.894 -10.383,-4.754 -16.121,-5.527 l 1.758,2.29 c 0.984,0.189 1.961,0.415 2.93,0.699 9.246,2.713 17.586,7.015 23.617,14.758 3.054,3.915 4.119,8.684 3.828,13.685 -0.037,0.671 -0.212,1.481 0.408,1.794 -0.051,-1.29 0,-2.399 0.518,-2.195 0.298,0.117 0.685,0.781 1.005,1.575 C -0.022,0.605 -0.008,0.263 0,0" />
    </g>
    <g
       id="g414"
       transform="matrix(0.35277777,0,0,-0.35277777,143.18418,146.48063)">
      <path
         inkscape:connector-curvature="0"
         id="path412"
         style="fill:#442615;fill-opacity:1;fill-rule:nonzero;stroke:none"
         d="m 0,0 c -0.32,-0.794 -0.707,-1.458 -1.006,-1.575 -0.517,-0.204 -0.568,0.905 -0.517,2.195 0.109,0.066 0.24,0.109 0.4,0.131 C -0.408,0.854 -0.116,0.467 0,0" />
    </g>
    <g
       id="g418"
       transform="matrix(0.35277777,0,0,-0.35277777,142.85242,142.7329)">
      <path
         inkscape:connector-curvature="0"
         id="path416"
         style="fill:#442615;fill-opacity:1;fill-rule:nonzero;stroke:none"
         d="m 0,0 -1.699,-2.217 c -0.459,1.495 -1.042,2.909 -3.215,3.143 l -1.415,1.32 C -5.935,2.027 -5.57,1.917 -5.301,2.005 -4.958,2.107 -5.038,2.712 -5.482,3.529 -3.799,3.733 -0.481,1.4 0,0" />
    </g>
    <g
       id="g426"
       transform="matrix(0.35277777,0,0,-0.35277777,142.099,145.66261)">
      <path
         inkscape:connector-curvature="0"
         id="path424"
         style="fill:#442615;fill-opacity:1;fill-rule:nonzero;stroke:none"
         d="m 0,0 c 0,-0.146 -0.052,-0.313 -0.161,-0.496 -0.415,-0.671 -1.094,-0.416 -1.713,-0.19 -0.161,0.059 -0.328,0.139 -0.503,0.227 -0.452,0.248 -0.927,0.605 -1.4,1.042 l 1.181,1.546 C -2.093,1.706 -1.517,1.327 -0.875,0.984 -0.424,0.744 0,0.445 0,0" />
    </g>
    <g
       id="g430"
       transform="matrix(0.35277777,0,0,-0.35277777,141.18329,144.91158)">
      <path
         inkscape:connector-curvature="0"
         id="path428"
         style="fill:#442615;fill-opacity:1;fill-rule:nonzero;stroke:none"
         d="m 0,0 -1.182,-1.545 c -2.048,1.88 -4.024,5.256 -3.645,7.786 0.065,0.256 0.139,0.547 0.219,0.839 0.13,0.32 0.269,0.598 0.51,0.714 0.087,0.037 0.175,0.059 0.277,0.059 0.065,0 0.138,-0.008 0.218,-0.022 C -3.07,7.714 -2.808,7.335 -2.837,6.788 -2.968,3.908 -2.006,1.655 0,0" />
    </g>
    <g
       id="g434"
       transform="matrix(0.35277777,0,0,-0.35277777,141.11884,142.4063)">
      <path
         inkscape:connector-curvature="0"
         id="path432"
         style="fill:#442615;fill-opacity:1;fill-rule:nonzero;stroke:none"
         d="M 0,0 -0.109,0.015 C -0.795,0.131 -1.451,0.7 -1.524,1.378 -1.487,1.356 -1.451,1.334 -1.415,1.32 Z" />
    </g>
    <g
       id="g438"
       transform="matrix(0.35277777,0,0,-0.35277777,140.91835,141.48802)">
      <path
         inkscape:connector-curvature="0"
         id="path436"
         style="fill:#442615;fill-opacity:1;fill-rule:nonzero;stroke:none"
         d="m 0,0 c 0.444,-0.816 0.524,-1.422 0.182,-1.524 -0.27,-0.087 -0.634,0.022 -1.029,0.241 l -0.109,0.109 c -0.022,0.212 0.022,0.43 0.139,0.656 C -0.649,-0.204 -0.365,-0.044 0,0" />
    </g>
    <g
       id="g442"
       transform="matrix(0.35277777,0,0,-0.35277777,141.26044,145.82471)">
      <path
         inkscape:connector-curvature="0"
         id="path440"
         style="fill:#9f7053;fill-opacity:1;fill-rule:nonzero;stroke:none"
         d="M 0,0 C -0.481,0.241 -0.963,0.591 -1.437,0.999 L -1.4,1.043 C -0.927,0.605 -0.452,0.248 0,0" />
    </g>
    <g
       id="g446"
       transform="matrix(0.35277777,0,0,-0.35277777,140.76641,145.45677)">
      <path
         inkscape:connector-curvature="0"
         id="path444"
         style="fill:#af856b;fill-opacity:1;fill-rule:nonzero;stroke:none"
         d="m 0,0 -0.036,-0.044 c -1.984,1.765 -3.675,4.805 -3.74,7.298 0.036,0.139 0.08,0.321 0.13,0.533 C -4.024,5.257 -2.049,1.881 0,0" />
    </g>
    <g
       id="g454"
       transform="matrix(0.35277777,0,0,-0.35277777,140.91835,141.48802)">
      <path
         inkscape:connector-curvature="0"
         id="path452"
         style="fill:#463125;fill-opacity:1;fill-rule:nonzero;stroke:none"
         d="m 0,0 c -0.365,-0.044 -0.649,-0.204 -0.817,-0.518 -0.117,-0.226 -0.161,-0.444 -0.139,-0.656 l -1.006,0.933 c -0.087,-0.029 -0.168,-0.043 -0.24,-0.051 -0.65,0.569 -1.203,1.167 -1.401,1.422 -1.268,1.626 -3.214,1.801 -4.979,2.355 -1.108,0.321 -2.209,0.729 -3.397,0.423 -1.189,-0.073 -2.392,-0.066 -3.574,-0.233 -11.323,-1.582 -20.422,-7.35 -28.165,-15.392 -8.48,-8.815 -8.123,-20.852 0.67,-29.398 0.904,-0.875 1.539,-2.297 3.194,-2.078 1.917,-1.917 4.593,-1.363 6.869,-2.107 -0.154,-1.108 1.538,-0.802 1.436,-1.874 -8.167,-0.321 -13.824,3.675 -17.441,10.631 -3.988,7.655 -4.112,15.625 1.087,22.573 8.326,11.134 23.521,19.642 37.659,19.65 C -4.863,5.68 -1.175,2.114 0,0" />
    </g>
    <g
       id="g458"
       transform="matrix(0.35277777,0,0,-0.35277777,140.58106,141.90211)">
      <path
         inkscape:connector-curvature="0"
         id="path456"
         style="fill:#442615;fill-opacity:1;fill-rule:nonzero;stroke:none"
         d="M 0,0 0.109,-0.109 C 0.073,-0.095 0.037,-0.073 0,-0.051 0,-0.037 -0.007,-0.022 0,0" />
    </g>
    <g
       id="g462"
       transform="matrix(0.35277777,0,0,-0.35277777,140.58106,141.90211)">
      <path
         inkscape:connector-curvature="0"
         id="path460"
         style="fill:#463125;fill-opacity:1;fill-rule:nonzero;stroke:none"
         d="m 0,0 c -0.007,-0.022 0,-0.037 0,-0.051 -0.408,0.233 -0.846,0.576 -1.246,0.933 0.072,0.008 0.153,0.022 0.24,0.051 z" />
    </g>
    <g
       id="g466"
       transform="matrix(0.35277777,0,0,-0.35277777,140.14147,141.59085)">
      <path
         inkscape:connector-curvature="0"
         id="path464"
         style="fill:#af856b;fill-opacity:1;fill-rule:nonzero;stroke:none"
         d="M 0,0 C -0.132,-0.015 -0.241,0 -0.343,0.036 -0.868,0.219 -1.05,0.977 -1.4,1.422 -1.203,1.167 -0.649,0.569 0,0" />
    </g>
    <g
       id="g478"
       transform="matrix(0.35277777,0,0,-0.35277777,139.48036,142.70983)">
      <path
         inkscape:connector-curvature="0"
         id="path476"
         style="fill:#442615;fill-opacity:1;fill-rule:nonzero;stroke:none"
         d="M 0,0 C 0.036,0.292 0.109,0.569 0.219,0.838 0.139,0.547 0.065,0.255 0,0" />
    </g>
    <g
       id="g490"
       transform="matrix(0.35277777,0,0,-0.35277777,131.78713,157.17562)">
      <path
         inkscape:connector-curvature="0"
         id="path488"
         style="fill:#442615;fill-opacity:1;fill-rule:nonzero;stroke:none"
         d="m 0,0 -1.758,-2.29 c -0.488,-0.065 -2.96,-0.524 -3.907,-0.415 0.102,1.072 -1.59,0.766 -1.437,1.874 C -4.718,-0.664 -2.341,-0.452 0,0" />
    </g>
    <path
       inkscape:connector-curvature="0"
       id="path7014"
       style="fill:#452f1f;fill-opacity:1;fill-rule:nonzero;stroke:none;stroke-width:0.35277778"
       d="m 176.50659,142.23853 c -0.0187,0.0436 -0.0378,0.0874 -0.0565,0.13106 -0.005,-0.0276 -0.0219,-0.0606 -0.0124,-0.082 0.01,-0.0224 0.0446,-0.0337 0.0689,-0.0491 m 1.37055,0.52389 c -0.99688,-0.0165 -0.93809,-0.37466 -0.51938,-0.94179 0.0952,0.2178 0.14141,0.35602 0.21209,0.47934 0.0925,0.16027 0.20405,0.3088 0.30729,0.46245 m -4.76853,-5.75572 c 0.0263,-0.0444 0.053,-0.0889 0.0794,-0.13353 0.2585,0.0861 0.53436,0.14073 0.77209,0.26697 0.23136,0.1232 0.63158,0.31077 0.46207,0.58132 -0.21708,0.3471 -0.46626,-0.0581 -0.67074,-0.18804 -0.23237,-0.14739 -0.43015,-0.34867 -0.64283,-0.52672 m 5.35677,15.84256 0.12716,0.0816 c -0.0913,0.45438 -0.17639,0.91053 -0.27619,1.36355 -0.0593,0.2705 -0.22411,0.34973 -0.48776,0.24041 -0.27878,-0.11546 -0.29363,-0.30089 -0.14975,-0.52153 0.25629,-0.39171 0.52358,-0.7763 0.78654,-1.16402 m -7.30835,-29.55725 c -0.30776,1.01332 -0.50323,1.76418 -0.76725,2.48979 -0.19091,0.5234 -0.40318,1.06415 -0.90862,1.38957 -0.18203,0.11802 -0.34998,0.51677 -0.5884,0.20632 -0.13689,-0.17895 -0.39543,-0.46017 -0.0985,-0.81642 0.29414,-0.35333 0.48085,-0.79888 0.70036,-1.21157 0.37813,-0.70991 0.80367,-1.37911 1.66243,-2.05769 m -2.97723,-3.93531 c 0.67278,1.53176 1.0808,3.04413 1.02473,4.68065 -1.78807,-1.17017 -2.10264,-2.53976 -1.02473,-4.68065 m -2.63363,9.95253 c -0.54412,-0.003 -1.14868,0.0833 -0.93719,-0.81878 0.032,-0.13779 -0.1591,-0.32909 -0.24968,-0.49435 -0.63139,-1.15062 -1.2634,-2.30158 -1.93511,-3.52395 0.5659,0.11485 1.08315,0.22035 1.60105,0.3254 0.81912,0.0231 1.6296,0.27305 2.15877,0.83237 1.04595,1.10518 2.91106,1.887 1.9327,3.9977 -0.12767,0.27542 -0.14809,0.63295 0.17686,0.72958 0.45544,0.13554 0.42618,-0.30837 0.53394,-0.58849 0.41739,-1.08534 0.91869,-2.10474 2.17003,-2.45566 0.40458,-0.51625 0.87391,-0.9436 1.65972,-1.20719 -0.95965,1.45987 -2.00973,2.70728 -2.41682,4.31127 -0.037,0.14711 -0.34512,0.22618 -0.52739,0.33645 -0.32962,0.18245 -0.51459,0.90931 -1.03325,0.3945 -0.8952,-0.88794 -1.97956,-1.41294 -3.13363,-1.83885 m -2.3381,-7.28628 c -0.23818,-0.19096 -0.51052,-0.35863 -0.51964,-0.80574 0.91402,0.31365 1.84017,0.44236 2.66231,0.90527 1.8131,0.23795 2.51098,1.73194 3.33989,3.03964 0.16539,0.26078 -0.16078,0.66698 -0.42678,0.88083 -0.30772,0.24749 -0.50284,-0.0541 -0.69816,-0.25325 -0.87985,-0.9001 -1.9031,-1.53725 -3.16866,-1.73272 -0.21038,-0.0326 -0.51608,-0.0175 -0.5076,-0.30298 0.0195,-0.68649 -0.52758,-1.12765 -0.68136,-1.73105 m 10.50745,8.46357 c -0.46068,0.83736 -1.0853,1.54531 -1.75447,2.21768 -0.402,0.88093 -1.13213,1.46406 -1.8713,2.0327 -0.1533,0.11824 -0.31676,0.26506 -0.53779,-0.0196 -0.51002,-0.65677 -0.64342,-2.08395 -0.0666,-2.65016 1.37089,-1.34568 3.1542,-1.90522 4.95573,-2.54709 0.0567,0.67897 -0.4166,0.75092 -0.72559,0.96649 m -11.76578,2.31462 c 1.82315,0.93509 3.11676,2.70897 5.21513,3.26333 -0.80652,0.3602 -1.59986,0.55285 -2.45044,0.36183 -0.42533,0.1474 -0.78814,-0.0353 -1.16393,-0.20049 -1.16649,-0.5123 -1.73218,-1.58994 -2.41956,-2.55077 -0.25806,-0.36107 -0.8281,-0.77734 -0.43849,-1.18308 0.31714,-0.33055 0.86017,0.0652 1.25729,0.30918 m 0.41194,-2.81824 c 0.13788,-0.0829 0.20496,-0.0296 0.22447,0.1159 0.0374,4.8e-4 0.072,0.01 0.10445,0.0277 1.89684,-0.39676 3.58985,-2.8e-4 5.08601,1.25686 0.45765,0.38468 0.79756,0.73208 0.61536,1.41357 -0.14737,0.55042 -0.018,1.12184 0.17822,1.66637 0.0917,0.2548 0.40471,0.53006 0.18974,0.77415 -0.24501,0.27761 -0.63999,0.17938 -0.97773,0.0879 -2.10454,-0.5697 -3.77427,-1.78639 -5.13524,-3.46031 -0.29798,-0.38293 -0.58463,-0.775 -0.89636,-1.1465 -0.47683,-0.56803 -0.18879,-0.6791 0.3684,-0.64786 0.0844,-0.0295 0.16891,-0.0594 0.2536,-0.0887 z m 0.32155,-0.88774 c -0.47781,0.27179 -1.01757,0.19624 -1.52881,0.24417 -0.58026,0.0549 -0.83707,0.29931 -0.73763,0.88311 0.28446,0.30156 0.74937,0.64368 0.52118,1.04049 -0.21556,0.37555 -0.72816,0.10272 -1.11037,0.0262 -0.14577,-0.0291 -0.28938,-0.0667 -0.4347,-0.10036 -0.30161,-0.0589 -0.60106,-0.13215 -0.90543,-0.17245 -0.32734,-0.043 -0.72526,-0.18051 -0.91839,0.19951 -0.22663,0.4453 0.27209,0.53684 0.47508,0.77016 0.82841,0.14064 1.37285,0.66411 1.82872,1.32622 0.35616,0.51756 0.78121,0.99045 1.11183,1.52272 0.7269,1.17114 1.72946,1.97861 3.01936,2.44391 0.0434,0.004 0.0869,0.008 0.13063,0.0126 l -0.10109,0.0874 c -0.0733,0.0924 -0.14614,0.18537 -0.21978,0.27836 -0.17352,0.18266 -0.45295,0.26432 -0.52182,0.54733 0.46366,0.31541 0.7511,-0.4657 1.20754,-0.19423 l 8.2e-4,-7.6e-4 c 0.22474,-0.48798 0.55985,-0.60539 1.01932,-0.30305 l 0.0119,-0.004 c 0.0733,-0.0759 0.14674,-0.15221 0.2205,-0.2283 0.18137,-0.38794 0.57717,-0.32251 0.89363,-0.41269 0.75151,-0.21394 0.61694,0.19275 0.42561,0.629 0.22782,0.0456 0.45517,0.0914 0.68316,0.13664 0.2743,-0.49818 0.62222,-0.34594 0.97967,-0.11087 0.23947,-0.15482 0.54942,0.10677 0.77478,-0.13133 -0.14575,-0.33753 -0.81432,-0.49235 -0.52328,-0.91665 0.18495,-0.26945 0.69377,-0.28905 1.11756,-0.082 0.38225,0.18672 0.6647,0.33259 0.39899,0.80215 0.24724,-0.0129 0.49448,-0.0257 0.74189,-0.0389 0.23607,-0.18428 0.45044,-0.23283 0.75846,-0.0816 0.77627,0.38137 1.49276,0.81952 1.98741,1.55254 0.0279,0.77202 -0.52641,1.34917 -0.89781,2.26778 0.85566,-0.62737 0.8289,-1.55341 1.51427,-1.9423 2.42978,0.8267 2.56412,1.31431 1.793,2.70292 -0.004,0.20902 -0.0847,0.37502 -0.26895,0.48303 -0.39831,0.69826 0.31984,0.72514 0.60777,1.01055 0.0947,0.0577 0.18992,0.11534 0.28512,0.17294 0.53697,0.20663 1.15457,0.30281 1.15718,1.1017 0.002,0.68649 -0.0824,1.30554 -0.74475,1.68518 -0.075,0.008 -0.15037,0.0145 -0.22587,0.0215 -0.1702,0.20329 -0.48681,-0.10996 -0.65622,0.21551 0.16414,0.15435 0.33363,0.31439 0.50343,0.47459 0.15298,0.10509 0.20866,0.2548 0.20112,0.43419 0.16815,0.31152 -0.35777,0.81059 0.27006,0.99798 0.062,-0.10643 0.11404,-0.22026 0.18889,-0.317 0.15459,-0.19886 0.11785,-0.61395 0.50842,-0.54773 0.37642,0.0642 0.30152,0.41208 0.31587,0.67815 0.0379,0.7005 0.0663,1.4015 0.10274,2.18214 -0.37537,-0.13695 -0.63239,-0.2303 -0.88987,-0.32429 -0.18963,0.35265 -0.49638,0.0367 -0.74427,0.11929 0.19081,0.30288 0.63395,0.28402 0.75699,0.64218 0.57332,0.34834 0.46426,0.83124 0.19505,1.28048 -0.38446,0.64123 -0.82644,1.24791 -1.24377,1.86906 -0.0566,0.1238 0.3166,0.574 -0.24097,0.31703 -0.20257,-0.0933 -0.33486,0.008 -0.44635,0.16414 0.0377,0.0527 0.0868,0.0896 0.14823,0.11095 0.35361,-0.0498 0.46402,0.32442 0.73373,0.42098 0.0358,0.0317 0.0747,0.0362 0.11701,0.0141 0.30132,-0.33986 0.49607,-0.30203 0.57164,0.16078 0.32514,0.0799 0.37348,0.29616 0.25142,0.56338 -0.31862,0.69905 -0.65759,1.38677 -1.33846,1.82094 -0.0956,0.11601 -0.28703,0.247 -0.27183,0.3461 0.14246,0.93137 -0.42683,1.02619 -1.12042,0.9961 l 0.0129,0.006 -0.25849,0.10975 -0.0471,0.0564 c -0.0994,0.11922 -0.2234,0.16667 -0.37644,0.12723 -0.42922,0.0236 -0.81611,0.33782 -1.27084,0.18382 -0.13309,-0.18452 -0.0582,-0.48471 -0.32961,-0.593 -0.10637,0.17472 -0.17161,0.39438 -0.43439,0.39888 -0.94823,0.34888 -1.49082,0.73444 -1.78562,1.26926 0.10216,0.105 0.20479,0.20986 0.30726,0.31503 l -0.01,3.4e-4 c 0.69368,-0.60473 1.47481,-0.57803 2.28809,-0.31615 0.29819,0.0943 0.59319,0.20041 0.89531,0.27916 0.25859,0.0674 0.65292,0.023 0.5347,-0.27405 -0.28137,-0.70806 0.30281,-0.63986 0.61106,-0.8362 0.34413,-0.21911 0.71303,-0.41127 1.01919,-0.67523 0.37938,-0.32712 0.71458,-0.6071 1.2398,-0.2706 0.17037,0.10923 0.44106,0.16227 0.58801,-0.082 0.17533,-0.29104 0.01,-0.49531 -0.25563,-0.58607 -0.41907,-0.14283 -0.33642,-0.34272 -0.13906,-0.62112 0.21764,-0.30715 0.44495,-0.62111 0.58667,-0.96588 0.22064,-0.53545 0.47199,-0.87774 1.10452,-0.53521 0.22089,0.11958 0.4376,0.0771 0.53414,-0.19183 0.0969,-0.27034 -0.0694,-0.46832 -0.28961,-0.4998 -0.7574,-0.10807 -0.64857,-0.53541 -0.50146,-1.07715 0.13896,-0.51168 0.16519,-1.05433 0.23729,-1.58394 0.0589,-0.43057 -0.20876,-1.05314 0.71445,-0.87354 0.35638,0.0695 0.37911,-0.38695 0.12058,-0.60487 -0.83038,-0.70086 -0.8459,-1.6545 -0.88592,-2.6125 -0.0147,-0.34436 0.10165,-0.45123 0.44401,-0.32962 0.19852,0.0703 0.37377,-0.0269 0.4361,-0.24415 0.0477,-0.16699 -0.007,-0.36859 -0.15892,-0.39868 -1.04996,-0.2061 -0.84459,-1.0722 -0.9517,-1.76987 -0.0708,-0.46504 -0.11584,-0.93468 -0.17043,-1.39182 0.18372,-0.20162 0.35588,-0.0622 0.52719,-0.0113 0.23346,0.0687 0.4693,0.0569 0.55429,-0.19502 0.10025,-0.29817 -0.0914,-0.49296 -0.36898,-0.53767 -1.62627,-0.26285 -1.14867,-1.89221 -1.80982,-2.77965 -0.0298,-0.04 0.0194,-0.18062 0.0725,-0.23381 0.55403,-0.55805 0.56196,-0.56981 -0.16351,-0.86539 -0.45162,-0.18436 -0.79647,-0.45031 -1.07409,-0.86515 -0.7263,-1.0851 -1.60008,-2.03001 -2.84651,-2.52921 -0.46373,-0.18567 -0.32447,-0.37315 -0.13119,-0.68939 0.71207,-1.16481 1.53086,-2.22417 2.66476,-3.01516 0.23821,-0.1659 0.63443,-0.34258 0.31743,-0.72292 -0.29764,-0.35672 -0.56998,-0.0201 -0.8114,0.14208 -1.14879,0.77175 -1.93019,1.87406 -2.6919,2.99935 -0.30773,0.45458 -0.59798,0.99585 -1.3088,0.87118 -0.30682,0.15345 -0.61656,0.0494 -0.92165,0.001 -0.20925,-0.0332 -0.49085,-0.0116 -0.57231,-0.24446 -0.095,-0.27257 0.21623,-0.33434 0.36204,-0.47663 0.58327,-0.56997 1.15264,-1.15582 1.76309,-1.69515 0.42795,-0.37871 0.68246,-0.99729 1.36422,-1.04725 0.57514,-0.66286 1.34126,-0.89057 2.17787,-0.98865 0.27908,-0.0326 0.71967,0.0449 0.6657,-0.44914 -0.0419,-0.38542 -0.36189,-0.37284 -0.65853,-0.30684 -0.26296,0.0585 -0.54391,0.0372 -0.60526,-0.24055 -0.0482,-0.21499 0.19008,-0.36763 0.39084,-0.47357 0.0807,-0.0427 0.14805,-0.11666 0.23257,-0.14571 0.37665,-0.12912 0.95976,-0.16845 0.89497,-0.6543 -0.0674,-0.50487 -0.67862,-0.46986 -1.09305,-0.51406 -1.26784,-0.13461 -2.42301,0.27804 -3.53661,0.82719 -0.16676,0.0822 -0.34259,0.24677 -0.49495,0.12118 -0.14329,-0.1179 -0.0564,-0.33392 -0.0259,-0.52621 0.1656,-1.05731 0.93176,-1.75364 1.5242,-2.54178 0.46936,-0.62481 1.05419,-1.16269 1.59008,-1.73691 0.1883,-0.20196 0.49522,-0.38539 0.26531,-0.70569 -0.2264,-0.31641 -0.50796,-0.11012 -0.74949,0.024 -1.0359,0.57372 -2.06791,1.15512 -3.25149,1.81726 0.42093,-2.00591 1.2627,-3.57282 2.56014,-4.91153 0.21496,-0.22247 0.69942,-0.4314 0.39642,-0.82585 -0.34752,-0.45243 -0.68624,-0.007 -0.96269,0.1873 -0.86917,0.60929 -1.73513,1.22752 -2.5584,1.89594 -0.48361,0.39284 -0.59792,0.38345 -0.72268,-0.27244 -0.27795,-1.46005 -0.86886,-2.82002 -1.60175,-4.11334 -0.13286,-0.23487 -0.259,-0.58428 -0.60959,-0.46118 -0.33288,0.11701 -0.44966,0.4824 -0.35656,0.786 0.16359,0.53378 -0.04,0.99145 -0.16911,1.4728 -0.12836,0.37278 -0.28869,0.73799 -0.37864,1.1198 -0.16004,0.67899 -0.48872,0.87757 -1.09572,0.46745 -1.22095,-0.36334 -2.43494,-0.75378 -3.66701,-1.07262 -0.33551,-0.0867 -0.79812,-0.53812 -1.07316,9.2e-4 -0.24086,0.47251 0.32417,0.65377 0.55561,0.94965 0.61689,0.78875 1.23039,1.58007 1.60804,2.58504 -0.82221,-0.0464 -1.41291,-0.41009 -2.03377,-0.68866 -0.36015,0.47164 0.0743,0.97164 -0.0517,1.45182 1.68061,1.08396 2.02702,3.02303 3.17843,4.70081 -0.66152,-0.121 -1.09514,0.0448 -1.51772,-0.1444" />
    <path
       inkscape:connector-curvature="0"
       id="path7018"
       style="fill:#472d14;fill-opacity:1;fill-rule:nonzero;stroke:none;stroke-width:0.35277778"
       d="m 175.74572,155.76087 c 0.12364,-0.10255 0.18934,-0.15694 0.2552,-0.21165 0.004,0.0565 0.0292,0.12304 0.008,0.16723 -0.0371,0.0758 -0.10306,0.13804 -0.15655,0.20621 -0.0376,-0.0575 -0.075,-0.11445 -0.10646,-0.16179 m -12.41259,-0.85503 c 0.64573,-0.0217 0.73843,0.64541 1.21769,0.74931 0.22615,0.0487 0.46989,0.18538 0.40201,0.43006 -0.0682,0.24373 -0.27943,0.46899 -0.54694,0.54264 -0.26082,0.0716 -0.46153,-0.0259 -0.61128,-0.29265 -0.24312,-0.43355 -0.48836,-0.85421 -0.46148,-1.42936 m -1.24674,-4.90018 c 0.14079,-0.23872 0.32333,-0.27354 0.53422,-0.0936 0.54446,0.4646 1.08839,0.93092 1.62549,1.40399 0.13965,0.12316 0.28209,0.26945 0.0608,0.45448 -0.4534,0.37985 -0.90361,0.76421 -1.35897,1.141 -0.17653,0.1458 -0.3316,0.11089 -0.47766,-0.0674 -0.20608,-0.2514 -0.53075,-2.58173 -0.38391,-2.83843 m 0.88828,-10.00064 c 0.45545,0.50647 0.84853,0.94494 1.24309,1.38141 0.16061,0.17729 0.26659,0.36085 0.0483,0.5635 -0.68871,0.63943 -1.29242,1.39267 -2.29402,1.81099 0.16149,-1.35433 0.30269,-2.58378 1.00266,-3.7559 m -1.08614,4.71117 c 0.43059,0.4134 0.71864,0.68965 1.00587,0.96667 1.37708,1.32889 1.38045,1.33231 -0.0951,2.56565 -0.14988,0.12529 -0.27961,0.4008 -0.54151,0.25396 -0.22512,-0.12586 -0.35945,-0.33788 -0.35914,-0.61929 3e-4,-0.992 -0.006,-1.98387 -0.0102,-3.16699 m 6.00195,-2.60294 c -0.3629,0.19739 -0.30928,1.29248 -1.06126,0.76836 -0.46237,-0.32153 -1.55435,-0.65357 -1.00987,-1.55441 0.29583,-0.48981 0.47674,-1.55252 1.23213,-1.32376 1.07689,0.32512 1.35048,1.27333 0.839,2.10981 m -3.13473,8.68252 c -0.42494,-0.62504 -1.51063,-0.81832 -1.60609,-1.7857 -0.0414,-0.41918 1.68401,-1.63673 1.83262,-1.44827 0.52715,0.66959 1.77713,0.81061 1.69635,1.82862 -0.0533,0.66591 -1.53436,1.59383 -1.92288,1.40535 m 7.29932,1.74125 c 1.36902,0.78222 1.36978,0.78303 0.34752,1.95488 -0.1644,0.18878 -0.3533,0.35757 -0.5061,0.55459 -0.19382,0.24946 -0.40019,0.25184 -0.65306,0.10385 -0.5673,-0.33349 -1.14423,-0.65053 -1.70654,-0.99255 -0.17101,-0.10358 -0.47069,-0.25391 -0.24927,-0.49213 0.53139,-0.57183 1.057,-1.18281 1.69736,-1.60792 0.39965,-0.26576 0.70016,0.41935 1.07009,0.47928 m -6.50204,2.80148 c -0.46246,-0.34 -0.89579,-0.65073 -1.32058,-0.97287 -0.19943,-0.1513 -0.37137,-0.34029 -0.57562,-0.48337 -0.24539,-0.1716 -0.21517,-0.30676 -0.0429,-0.52734 0.92218,-1.1764 1.49317,-1.27512 2.69614,-0.43439 0.0775,0.0541 0.15909,0.10117 0.23773,0.15307 1.34853,0.88215 1.35764,0.89426 0.0813,1.86221 -0.30988,0.23512 -0.56978,0.75867 -1.07611,0.40269 m -1.05764,-9.19008 c -0.57908,-0.55292 -1.08643,-1.02321 -1.5759,-1.51111 -0.27349,-0.27204 -0.0311,-0.43008 0.1628,-0.6022 0.51667,-0.45878 1.03336,-0.91835 1.53305,-1.39547 0.2307,-0.22121 0.40067,-0.32128 0.71767,-0.0952 1.39547,0.99672 1.44272,1.26566 0.35191,2.57689 -0.24175,0.29018 -0.48673,0.57742 -0.72447,0.87056 -0.1599,0.1968 -0.32494,0.30112 -0.46506,0.15648 m 8.30463,5.98648 c -0.34008,-0.21971 -0.96933,-0.43872 -0.97077,-0.661 -0.007,-1.01492 1.02189,-1.45643 1.4528,-2.25332 0.19426,-0.35978 0.41091,-0.25169 0.69285,-0.12572 1.88101,0.84164 1.87075,0.93746 0.66142,2.64638 -0.55853,0.78916 -1.03346,1.12338 -1.8363,0.39366 m -5.80766,-3.73536 c -0.30494,-0.89737 -1.92207,-0.8517 -1.32752,-1.95513 0.37422,-0.6952 0.85625,-2.10187 1.88664,-1.73125 1.49764,0.53855 1.96041,1.47313 1.49394,1.96371 -0.5815,0.61137 -0.8689,1.66728 -2.05306,1.72267 m -0.3983,3.80891 c -1.00219,-0.56534 -1.00188,-0.56517 -0.1935,-1.39661 0.17566,-0.17992 0.37125,-0.34551 0.5202,-0.5458 0.39346,-0.52984 0.7526,-0.73887 1.34752,-0.18264 0.49956,0.46689 1.12929,0.7975 1.71146,1.17184 0.26515,0.17061 0.36265,0.32077 0.0943,0.57701 -0.54229,0.5191 -0.97093,1.27155 -1.67122,1.47217 -0.49573,0.142 -0.91296,-0.57783 -1.40884,-0.84448 -0.13858,-0.0745 -0.26698,-0.1672 -0.3999,-0.25149 m 3.64851,-1.66545 c -0.21905,-0.11779 -0.36574,-0.17944 -0.49395,-0.26801 -1.70459,-1.18016 -1.6538,-1.14203 -0.37228,-2.81015 0.51998,-0.67649 0.91555,-0.60318 1.52067,-0.25736 2.1349,1.22089 2.12082,1.19569 0.56299,3.09014 -0.42806,0.52044 -0.77874,0.67874 -1.21743,0.24538 m -1.09485,8.01902 c -0.26165,-0.30373 -0.12021,-0.60699 8.7e-4,-0.91038 -0.3732,-0.23112 -0.74902,-0.45885 -1.11941,-0.69446 -1.49532,-0.95107 -1.48305,-0.93887 -0.14168,-2.09334 0.39944,-0.34357 0.73099,-0.56984 1.19804,-0.14005 0.54543,0.50077 1.71656,0.63945 1.7112,1.25501 -0.006,0.65358 -1.00559,1.0939 -1.5891,1.60846 -0.0232,0.0208 -0.0438,0.045 -0.0655,0.0681 0.40478,0.22527 0.76229,0.46918 0.37217,0.99281 0.40395,0.3594 1.00943,0.43865 1.45386,1.05574 -1.04259,-0.0984 -1.94999,0.0554 -2.90179,-0.23495 0.41263,-0.3465 0.74673,-0.62667 1.08131,-0.90698 m 8.38058,-10.1155 c -0.62752,-0.18722 -0.10191,-0.68646 -0.27006,-0.99798 -0.33267,0.60899 -0.66566,1.21781 -0.9985,1.82711 0.17797,0.0713 0.44176,-0.29639 0.53232,0.0499 0.0663,0.25514 -0.14208,0.48917 -0.41515,0.50015 -0.36391,0.0138 -0.23349,-0.25853 -0.19788,-0.45809 -0.505,-0.24672 -0.99881,-0.51946 -1.51708,-0.73406 -0.58844,-0.24352 -0.60736,-0.53608 -0.28618,-1.06112 0.86637,-1.4175 0.84249,-1.43194 2.33895,-0.71017 0.11233,0.0548 0.22852,0.10165 0.34288,0.15193 -0.1698,-0.1602 -0.33977,-0.32009 -0.50391,-0.47445 0.1694,-0.32547 0.48602,-0.0122 0.65622,-0.2155 -0.49261,-0.2653 -0.9857,-0.53044 -1.47832,-0.79573 l -0.0417,0.0164 c 0.0419,0.2036 0.084,0.40767 0.15777,0.76657 l -1.35002,-0.72594 c -0.11705,0.8419 -0.54531,1.66665 -1.14265,2.07804 -0.49164,0.33926 -1.04653,-0.57596 -1.63223,-0.83203 -0.3093,-0.13467 -0.56503,-0.38834 -0.8552,-0.57201 -0.3323,-0.21034 -0.24024,-0.45603 -0.0858,-0.71708 0.13068,-0.24376 0.17922,-0.54931 0.49376,-0.65455 0.0705,-0.11107 0.14077,-0.22231 0.21117,-0.33386 -0.11734,-0.25255 0.14121,-0.62462 -0.25083,-0.79017 -1.5576,1.86052 -1.54294,1.84517 -3.10818,0.37384 -0.36483,-0.34278 -0.34852,-0.53028 -0.0745,-0.91767 0.98415,-1.39222 0.96252,-1.40265 2.32622,-0.35652 0.32499,0.24926 0.68016,0.46027 0.90616,0.81691 0.1443,-0.23483 0.28908,-0.46981 0.43354,-0.70495 l -0.0213,-0.0735 c -0.27723,-0.20475 -0.56983,-0.39134 -0.82942,-0.61624 -1.6121,-1.39759 -1.71064,-0.73761 -0.50653,-2.84428 l -0.60085,-0.52136 c -0.96274,1.8239 -0.94163,1.80401 -2.17956,0.49867 -0.61813,-0.65162 0.14283,-1.06115 0.17311,-1.59121 -0.22782,-0.0456 -0.45534,-0.091 -0.68299,-0.13695 -0.25981,0.64256 -0.58556,0.6949 -0.99652,0.11984 -0.0894,-0.12498 -0.21445,-0.22466 -0.32289,-0.33585 -0.0738,0.0761 -0.14721,0.15236 -0.2205,0.22831 -0.002,0.0306 -0.004,0.0608 -0.006,0.0911 -0.002,-0.0291 -0.004,-0.0582 -0.006,-0.0878 -0.45963,-0.30204 -0.79474,-0.18463 -1.01901,0.30321 0.81845,-0.48516 0.9569,0.38437 1.36807,0.69759 0.25746,0.19532 0.45536,0.44033 0.22509,0.79556 -0.33697,0.52016 -0.57901,1.11179 -1.11515,1.47718 -0.0332,0.023 -0.15179,-0.0656 -0.22359,-0.11381 -1.34593,-0.90039 -1.41868,-1.71857 -0.25571,-2.85561 -0.45644,-0.27148 -0.74388,0.50963 -1.20754,0.19422 0,0 -0.0662,-0.0184 -0.0659,-0.019 -0.10427,0.19987 -0.24533,0.34152 -0.49517,0.30931 l -0.43235,0.24537 c 0.0703,1.38884 -0.94792,2.50399 -0.97796,3.87012 -0.001,0.0614 -0.11118,0.16132 -0.18273,0.17371 -0.77963,0.13513 -0.54986,0.4922 -0.21522,0.89485 0.0969,0.11621 0.24752,0.32256 0.20726,0.39744 -0.48175,0.89292 0.17778,1.7871 -0.0267,2.67249 -0.0373,0.16177 0.0895,0.41224 -0.19993,0.43883 -0.91035,0.0833 -0.58613,0.44867 -0.2129,0.85404 0.56143,0.61032 0.8045,1.24211 0.14605,1.96231 -0.26101,0.28503 -0.22575,0.48463 0.19109,0.70237 0.50686,0.26414 0.54784,0.82331 0.13209,1.17934 -0.41864,0.35768 -0.27597,0.61304 0.01,0.83035 0.49299,0.37484 0.65022,0.89959 0.8168,1.44419 0.67775,2.21376 1.85795,4.05924 3.89892,5.26487 0.18195,-0.20578 0.57274,-0.13102 0.6474,-0.48141 -0.588,-0.31137 -1.12641,-0.69262 -1.58493,-1.1755 -0.13467,-0.14211 -0.4432,-0.3773 -0.17739,-0.51556 0.50724,-0.26397 0.91957,-1.0993 1.68161,-0.39352 0.22627,0.20939 0.5479,0.31144 0.80044,0.49731 0.37007,0.27269 1.09277,0.36931 1.05914,0.79984 -0.0341,0.4403 -0.69693,0.65024 -1.11895,0.91438 -0.073,0.0456 -0.17991,0.0366 -0.27132,0.0532 0.14303,0.33887 0.64763,0.46641 0.55166,0.94433 0.99894,0.54156 2.11603,0.22059 3.16011,0.43315 0.2948,-0.53483 0.83755,-0.9207 1.78593,-1.2691 l -0.0144,-0.035 c -0.32048,-0.11985 -0.64515,-0.23115 -0.962,-0.36148 -1.68575,-0.69378 -1.68769,-0.69762 -0.35469,-1.91547 0.34835,-0.31858 0.59561,-0.70913 1.24963,-0.38349 1.6941,0.84287 1.71694,0.79667 0.4836,2.21952 l 0.0323,0.077 c 0.27111,0.10813 0.19621,0.40831 0.32913,0.59315 0.32275,-0.33354 0.68626,-0.63636 0.95864,-1.00659 0.53362,-0.72644 1.10655,-0.78407 1.83296,-0.17516 -0.28976,0.23793 -0.57092,0.46806 -0.8513,0.69821 0.69342,0.0304 1.26272,-0.0644 1.12026,-0.99578 -0.015,-0.0994 0.17637,-0.23041 0.27183,-0.34611 -1.12079,-0.56823 -1.11709,-0.56544 -0.32367,-1.56794 0.25354,-0.32029 0.4821,-0.66042 0.72206,-0.99121 -0.26971,-0.0966 -0.38012,-0.47077 -0.73357,-0.4213 -0.18621,0.31724 -0.34019,0.66022 -0.56388,0.94809 -0.93581,1.20472 -1.68145,1.27442 -2.91907,0.35136 -0.29647,-0.2211 -0.22806,-0.34534 -0.0482,-0.59111 1.25477,-1.71373 1.24889,-1.71769 3.20257,-0.87263 0.0572,0.0247 0.12015,0.0358 0.18023,0.0537 0.1118,-0.15577 0.24395,-0.25775 0.44652,-0.16444 0.5574,0.25727 0.18425,-0.19293 0.24111,-0.31656 -0.51782,-0.22437 -1.02846,-0.46731 -1.55551,-0.66781 -0.50115,-0.19057 -0.49132,-0.43082 -0.21399,-0.84005 0.41136,-0.60634 0.9739,-1.10574 1.24671,-1.8142 0.12471,-0.32428 0.40482,-0.33868 0.7078,-0.19299 0.28104,0.1351 0.57515,0.24439 0.8634,0.36534 -0.12304,-0.35816 -0.56618,-0.3393 -0.75699,-0.64218 0.24789,-0.0826 0.55464,0.23336 0.74427,-0.11929 -0.63258,-0.3037 -0.88724,-0.69939 -0.34233,-1.31722 0.0756,-0.0855 0.0793,-0.23456 0.11628,-0.35405" />
    <path
       inkscape:connector-curvature="0"
       id="path7030"
       style="fill:#799254;fill-opacity:1;fill-rule:nonzero;stroke:none;stroke-width:0.35277778"
       d="m 162.68315,129.09516 c 0.4229,0.18935 0.8562,0.0234 1.51773,0.1444 -1.15142,-1.67778 -1.49751,-3.61668 -3.17844,-4.7008 -0.28982,0.0116 -0.63002,-0.30995 -0.85977,0.0384 -0.26463,0.40124 0.22346,0.5215 0.38517,0.74144 0.86185,1.17642 1.35909,2.55491 2.13531,3.7766" />
    <path
       inkscape:connector-curvature="0"
       id="path7034"
       style="fill:#8faa68;fill-opacity:1;fill-rule:nonzero;stroke:none;stroke-width:0.35277778"
       d="m 173.85666,132.46156 c -0.68176,0.05 -0.93597,0.66871 -1.36406,1.04694 -0.61045,0.53933 -1.17999,1.12549 -1.76325,1.69546 -0.14581,0.14229 -0.45701,0.20407 -0.36205,0.47663 0.0816,0.23256 0.36306,0.21125 0.57231,0.24446 0.30526,0.0476 0.615,0.15166 0.92182,-0.002 0.76448,-1.09618 1.49144,-2.21493 1.99523,-3.4617" />
    <path
       inkscape:connector-curvature="0"
       id="path7038"
       style="fill:#799254;fill-opacity:1;fill-rule:nonzero;stroke:none;stroke-width:0.35277778"
       d="m 161.0741,123.08699 c 0.62102,0.27826 1.21187,0.64244 2.03394,0.68835 -0.37766,-1.00497 -0.99133,-1.79599 -1.60774,-2.58487 -0.45492,0.29852 -0.88392,-0.1052 -1.41919,0.0239 0.32207,0.60777 0.65746,1.23994 0.99299,1.87258" />
    <path
       inkscape:connector-curvature="0"
       id="path7042"
       style="fill:#799254;fill-opacity:1;fill-rule:nonzero;stroke:none;stroke-width:0.35277778"
       d="m 165.68439,121.31258 c 0.607,0.41011 0.93585,0.21123 1.09571,-0.46745 0.09,-0.38181 0.25029,-0.74702 0.37895,-1.11963 -0.31064,-0.19028 -0.28334,-0.82728 -0.71031,-0.73644 -0.34421,0.0733 -0.1838,0.59732 -0.31088,0.9059 -0.18785,0.45735 -0.30584,0.94345 -0.45347,1.41762" />
    <path
       inkscape:connector-curvature="0"
       id="path7046"
       style="fill:#799254;fill-opacity:1;fill-rule:nonzero;stroke:none;stroke-width:0.35277778"
       d="m 159.39311,131.18873 c 0.14484,0.0338 0.28862,0.0711 0.4347,0.10037 0.38173,0.0767 0.8948,0.34938 1.11037,-0.0262 0.22788,-0.39697 -0.23673,-0.73893 -0.52118,-1.04049 -0.92251,-0.29338 -1.00556,0.30204 -1.02389,0.9663" />
    <path
       inkscape:connector-curvature="0"
       id="path7050"
       style="fill:#f3ca63;fill-opacity:1;fill-rule:nonzero;stroke:none;stroke-width:0.35277778"
       d="m 173.21831,160.50038 c -0.81328,-0.26188 -1.5941,-0.28841 -2.28809,0.31614 0.80373,0.19026 1.57239,0.12694 2.28809,-0.31614" />
    <path
       inkscape:connector-curvature="0"
       id="path7054"
       style="fill:#f3ca63;fill-opacity:1;fill-rule:nonzero;stroke:none;stroke-width:0.35277778"
       d="m 162.73092,138.49495 c 0.24984,0.0322 0.3909,-0.10944 0.49518,-0.30932 -0.27577,-0.0734 -0.39542,0.10221 -0.49518,0.30932" />
    <path
       inkscape:connector-curvature="0"
       id="path7058"
       style="fill:#8faa68;fill-opacity:1;fill-rule:nonzero;stroke:none;stroke-width:0.35277778"
       d="m 162.64687,131.86501 c 1.36129,1.67408 3.0307,2.89061 5.13525,3.46031 0.33804,0.0916 0.73303,0.18989 0.97772,-0.0879 0.21497,-0.24409 -0.0977,-0.51919 -0.18974,-0.77415 -0.19595,-0.54436 -0.32528,-1.11579 -0.17791,-1.6662 0.18221,-0.68149 -0.15801,-1.02906 -0.61567,-1.41374 -1.49616,-1.25715 -3.18886,-1.65345 -5.08618,-1.25656 0.22024,0.77332 0.93525,1.26115 1.24391,2.01752 -0.5263,0.11394 -0.81119,-0.48626 -1.28738,-0.27929" />
    <path
       inkscape:connector-curvature="0"
       id="path7062"
       style="fill:#8faa68;fill-opacity:1;fill-rule:nonzero;stroke:none;stroke-width:0.35277778"
       d="m 170.99758,127.31299 c -1.25151,0.35123 -1.75264,1.37031 -2.17003,2.45566 -0.10793,0.28042 -0.0785,0.72403 -0.53394,0.58848 -0.32495,-0.0966 -0.30454,-0.45415 -0.17687,-0.72957 0.97837,-2.1107 -0.88674,-2.89252 -1.9327,-3.9977 -0.52917,-0.55932 -1.33965,-0.80928 -2.15862,-0.8319 0.034,0.43806 0.19505,0.80824 0.42467,1.19688 0.51558,0.87285 0.90828,1.81782 1.39697,2.70866 0.22892,0.41749 0.0616,0.53421 -0.30085,0.60567 1.15407,0.4259 2.23842,0.95091 3.13346,1.83915 0.51883,0.51451 0.7038,-0.21235 1.03359,-0.39511 -0.46915,-0.21061 -0.4196,-0.51282 -0.19209,-0.89196 0.50517,-0.84188 0.98599,-1.69805 1.47641,-2.54826" />
    <path
       inkscape:connector-curvature="0"
       id="path7066"
       style="fill:#472d14;fill-opacity:1;fill-rule:nonzero;stroke:none;stroke-width:0.35277778"
       d="m 176.73812,143.34289 c -0.28793,-0.28541 -1.00591,-0.31259 -0.60777,-1.01055 -0.30387,-0.1634 -0.61326,-0.31654 -0.90982,-0.49204 -1.67768,-0.99185 -1.7928,-0.46936 -0.65132,-2.50276 0.0123,-0.0639 0.0251,-0.12711 0.0376,-0.19129 -0.68568,0.38873 -0.65909,1.31507 -1.51475,1.94244 0.3714,-0.91861 0.92599,-1.49559 0.89797,-2.26809 -0.19696,0.35512 -0.43589,0.69368 -0.58183,1.06862 -0.23223,0.59651 -0.53703,0.57561 -0.9712,0.21877 -0.55437,-0.45511 -1.12738,-0.8882 -1.69237,-1.331 0.0444,0.27058 0.24139,0.57681 -0.17259,0.74033 0.23341,0.20802 0.4563,0.43041 0.7025,0.62209 1.48043,1.14934 1.48256,1.14688 0.4231,2.76256 l 0.0216,0.0737 c 0.22501,0.17226 0.4497,0.34435 0.67456,0.51613 0.0162,-0.0918 0.0155,-0.19115 0.0516,-0.27468 0.71727,-1.63706 0.71821,-1.63656 2.283,-0.79233 1.31297,0.70842 1.29354,0.69838 0.58385,2.05393 -0.25132,0.47929 -0.47186,0.56018 -0.92314,0.24782 -0.61492,-0.42519 -1.27252,-0.78961 -1.91181,-1.18064 -0.18814,0.91301 0.57269,0.99609 1.11335,1.22713 0.68485,0.29216 1.39836,0.51762 2.09948,0.77206 l 0.0414,-0.0166 c 0.23859,-0.77293 0.56252,-1.50718 1.00664,-2.18562" />
    <path
       inkscape:connector-curvature="0"
       id="path7070"
       style="fill:#8faa68;fill-opacity:1;fill-rule:nonzero;stroke:none;stroke-width:0.35277778"
       d="m 163.20817,122.02292 c 0.15379,0.6034 0.70083,1.04457 0.68106,1.73088 -0.008,0.2856 0.29736,0.27085 0.5079,0.30316 1.26556,0.19546 2.28881,0.83261 3.16867,1.73271 0.19501,0.19899 0.39043,0.50075 0.69816,0.25325 0.266,-0.21385 0.59217,-0.62005 0.42661,-0.88051 -0.82874,-1.30801 -1.52663,-2.80201 -3.34004,-3.04012 -0.15445,0.31629 -0.33852,0.45003 -0.7351,0.31528 -0.46068,-0.15559 -0.88281,-0.4715 -1.40726,-0.41465" />
    <path
       inkscape:connector-curvature="0"
       id="path7074"
       style="fill:#8faa68;fill-opacity:1;fill-rule:nonzero;stroke:none;stroke-width:0.35277778"
       d="m 173.71547,130.48657 c 0.30898,-0.21557 0.78243,-0.28783 0.72575,-0.9668 -1.8017,0.64218 -3.585,1.20172 -4.95558,2.54757 -0.57715,0.56605 -0.44359,1.99292 0.0664,2.64969 0.22103,0.28468 0.38449,0.13785 0.53763,0.0199 0.73933,-0.56896 1.46929,-1.15177 1.8713,-2.0327 -0.2423,-0.12669 -0.14463,-0.29567 -0.0628,-0.46796 0.38668,-0.81147 0.98936,-1.39743 1.81727,-1.74973" />
    <path
       inkscape:connector-curvature="0"
       id="path7094"
       style="fill:#8faa68;fill-opacity:1;fill-rule:nonzero;stroke:none;stroke-width:0.35277778"
       d="m 164.71435,136.42638 c 0.85058,0.19102 1.64423,-0.001 2.45044,-0.36183 -2.0982,-0.55467 -3.39198,-2.32824 -5.21513,-3.26333 -0.0267,0.56 0.39745,0.89665 0.64532,1.32434 0.5377,0.9256 1.39348,1.5524 2.11937,2.30082" />
    <path
       inkscape:connector-curvature="0"
       id="path7098"
       style="fill:#799254;fill-opacity:1;fill-rule:nonzero;stroke:none;stroke-width:0.35277778"
       d="m 165.54636,129.30913 c 0.36247,-0.0715 0.52946,-0.18834 0.30085,-0.60567 -0.48917,-0.8907 -0.88187,-1.83566 -1.39728,-2.70883 -0.22931,-0.38847 -0.39066,-0.75881 -0.42467,-1.19687 -0.51773,-0.10536 -1.03546,-0.21072 -1.60088,-0.32571 0.67123,1.22252 1.30341,2.37316 1.93479,3.52378 0.0909,0.16543 0.28203,0.35673 0.24983,0.49483 -0.21133,0.90175 0.39307,0.81539 0.93736,0.81847" />
    <path
       inkscape:connector-curvature="0"
       id="path7102"
       style="fill:#fffffd;fill-opacity:1;fill-rule:nonzero;stroke:none;stroke-width:0.35277778"
       d="m 168.17984,119.35679 c -1.07791,2.14089 -0.76334,3.51048 1.02472,4.68065 0.0561,-1.63652 -0.35178,-3.1492 -1.02472,-4.68065" />
    <path
       inkscape:connector-curvature="0"
       id="path7106"
       style="fill:#799254;fill-opacity:1;fill-rule:nonzero;stroke:none;stroke-width:0.35277778"
       d="m 164.71435,136.42638 c -0.72589,-0.74842 -1.58167,-1.37522 -2.11937,-2.30082 -0.24787,-0.42769 -0.67207,-0.76434 -0.64532,-1.32434 -0.39712,-0.24399 -0.93998,-0.64004 -1.25729,-0.30918 -0.38944,0.40543 0.18044,0.82201 0.43866,1.18277 0.68722,0.96114 1.25321,2.03895 2.4194,2.55108 0.37579,0.16522 0.73875,0.34758 1.16392,0.20049" />
    <path
       inkscape:connector-curvature="0"
       id="path7114"
       style="fill:#fffffd;fill-opacity:1;fill-rule:nonzero;stroke:none;stroke-width:0.35277778"
       d="m 171.15707,123.29195 c -0.85876,0.67858 -1.2843,1.34778 -1.66243,2.05769 -0.21951,0.41269 -0.40622,0.85824 -0.70036,1.21157 -0.29691,0.35625 -0.0385,0.63778 0.0985,0.81642 0.23842,0.31045 0.40637,-0.0883 0.58823,-0.20601 0.50561,-0.32574 0.71771,-0.86618 0.90879,-1.38988 0.26402,-0.72562 0.45949,-1.47647 0.76725,-2.48979" />
    <path
       inkscape:connector-curvature="0"
       id="path7118"
       style="fill:#fffffd;fill-opacity:1;fill-rule:nonzero;stroke:none;stroke-width:0.35277778"
       d="m 170.99758,127.31299 c -0.49042,0.85021 -0.97124,1.70638 -1.47641,2.54826 -0.22751,0.37914 -0.27706,0.68135 0.19209,0.89196 0.18209,-0.10996 0.49001,-0.18872 0.52705,-0.33583 0.40726,-1.6043 1.45734,-2.85171 2.41699,-4.31158 -0.78582,0.26358 -1.25515,0.69094 -1.65972,1.20719" />
    <path
       inkscape:connector-curvature="0"
       id="path7130"
       style="fill:#fffffd;fill-opacity:1;fill-rule:nonzero;stroke:none;stroke-width:0.35277778"
       d="m 177.52832,148.44642 c -0.0372,0.1198 -0.0408,0.26884 -0.11597,0.35421 -0.54522,0.61766 -0.29056,1.01335 0.34233,1.31722 0.25717,0.0938 0.5145,0.18734 0.88956,0.32413 -0.0365,-0.78064 -0.0649,-1.48164 -0.10274,-2.18215 -0.0144,-0.26606 0.0605,-0.61392 -0.31587,-0.67814 -0.39026,-0.0661 -0.35383,0.34887 -0.50842,0.54773 -0.0748,0.0967 -0.12654,0.21074 -0.18889,0.317" />
    <path
       inkscape:connector-curvature="0"
       id="path7142"
       style="fill:#799254;fill-opacity:1;fill-rule:nonzero;stroke:none;stroke-width:0.35277778"
       d="m 162.64687,131.86501 c 0.47619,-0.20697 0.76108,0.39323 1.28738,0.27929 -0.30866,-0.75637 -1.02367,-1.2442 -1.24391,-2.01752 -0.0323,-0.0182 -0.0669,-0.0275 -0.10428,-0.028 l -0.22416,-0.11573 0.0106,-0.001 c -0.0847,0.0294 -0.16923,0.0592 -0.2536,0.0887 -0.55718,-0.0312 -0.84475,0.0797 -0.36809,0.64802 0.31142,0.37134 0.59808,0.76341 0.89605,1.14634" />
    <path
       inkscape:connector-curvature="0"
       id="path7158"
       style="fill:#fffffd;fill-opacity:1;fill-rule:nonzero;stroke:none;stroke-width:0.35277778"
       d="m 163.20817,122.02292 c 0.52445,-0.0568 0.94658,0.25906 1.40726,0.41465 0.39658,0.13475 0.58065,0.001 0.7351,-0.31528 -0.82183,-0.46275 -1.74797,-0.59146 -2.66216,-0.9048 0.009,0.4468 0.28131,0.6143 0.5198,0.80543" />
    <path
       inkscape:connector-curvature="0"
       id="path7162"
       style="fill:#fffffd;fill-opacity:1;fill-rule:nonzero;stroke:none;stroke-width:0.35277778"
       d="m 173.71547,130.48657 c -0.82791,0.3523 -1.43059,0.93826 -1.81727,1.74973 -0.0818,0.17229 -0.1795,0.34127 0.0628,0.46796 0.66934,-0.67269 1.29379,-1.38033 1.75447,-2.21769" />
    <path
       inkscape:connector-curvature="0"
       id="path7170"
       style="fill:#fffffd;fill-opacity:1;fill-rule:nonzero;stroke:none;stroke-width:0.35277778"
       d="m 178.46527,152.84932 c -0.26279,0.38741 -0.53025,0.77231 -0.78623,1.16419 -0.14419,0.22047 -0.12918,0.40559 0.1496,0.52104 0.26397,0.1095 0.42842,0.0301 0.4876,-0.24009 0.0998,-0.45302 0.18518,-0.909 0.27667,-1.36369 z" />
    <path
       inkscape:connector-curvature="0"
       id="path7182"
       style="fill:#472d14;fill-opacity:1;fill-rule:nonzero;stroke:none;stroke-width:0.35277778"
       d="m 169.89621,137.95364 c -0.12909,-0.12269 -0.25833,-0.24586 -0.38728,-0.36807 -0.2252,0.2378 -0.53515,-0.0238 -0.77461,0.13102 0.2017,0.3616 0.5066,0.62289 0.83591,0.85965 0.10877,-0.20748 0.21753,-0.41495 0.32598,-0.6226" />
    <path
       inkscape:connector-curvature="0"
       id="path7186"
       style="fill:#fffffd;fill-opacity:1;fill-rule:nonzero;stroke:none;stroke-width:0.35277778"
       d="m 177.87719,142.76233 c -0.10323,-0.15365 -0.21483,-0.30217 -0.30729,-0.46244 -0.0707,-0.12332 -0.11708,-0.26123 -0.21225,-0.47904 -0.41855,0.56682 -0.47734,0.92494 0.51954,0.94148" />
    <path
       inkscape:connector-curvature="0"
       id="path7190"
       style="fill:#472d14;fill-opacity:1;fill-rule:nonzero;stroke:none;stroke-width:0.35277778"
       d="m 177.03001,155.05581 c 0.18431,0.0759 0.33576,0.26947 0.57243,0.16081 -0.0764,-0.46284 -0.27112,-0.50067 -0.57243,-0.16081" />
    <path
       inkscape:connector-curvature="0"
       id="path7194"
       style="fill:#472d14;fill-opacity:1;fill-rule:nonzero;stroke:none;stroke-width:0.35277778"
       d="m 172.4186,159.23209 c 0.26246,-0.005 0.32802,-0.22416 0.43439,-0.39888 3.1e-4,1.7e-4 -0.0323,-0.077 -0.0323,-0.077 -0.21853,0.072 -0.30964,0.26448 -0.41639,0.4414 z" />
    <path
       inkscape:connector-curvature="0"
       id="path7198"
       style="fill:#472d14;fill-opacity:1;fill-rule:nonzero;stroke:none;stroke-width:0.35277778"
       d="m 176.50632,142.23838 c -0.024,0.0155 -0.0589,0.0268 -0.0685,0.0493 -0.009,0.0213 0.007,0.0543 0.0124,0.082 0.0187,-0.0436 0.0378,-0.0874 0.0561,-0.13123" />
    <path
       inkscape:connector-curvature="0"
       id="path7202"
       style="fill:#799254;fill-opacity:1;fill-rule:nonzero;stroke:none;stroke-width:0.35277778"
       d="m 164.03357,137.3789 0.10109,-0.0874 c -0.0433,-0.004 -0.0872,-0.008 -0.13063,-0.0126 0.008,0.0332 0.0184,0.0671 0.0295,0.1" />
    <path
       inkscape:connector-curvature="0"
       id="path7214"
       style="fill:#8faa68;fill-opacity:1;fill-rule:nonzero;stroke:none;stroke-width:0.35277778"
       d="m 162.11898,130.07089 c 0.0844,-0.0295 0.16891,-0.0594 0.2536,-0.0887 -0.0847,0.0294 -0.16923,0.0592 -0.2536,0.0887" />
    <path
       inkscape:connector-curvature="0"
       id="path7218"
       style="fill:#8faa68;fill-opacity:1;fill-rule:nonzero;stroke:none;stroke-width:0.35277778"
       d="m 162.36187,129.98284 0.22416,0.11573 c -0.0192,-0.14531 -0.0866,-0.19877 -0.22416,-0.11573" />
    <path
       inkscape:connector-curvature="0"
       id="path7298"
       style="fill:#452f1f;fill-opacity:1;fill-rule:nonzero;stroke:none;stroke-width:0.35277778"
       d="m 171.28565,143.68061 c -0.0425,0.012 -0.0591,0.0399 -0.0498,0.083 0.39187,0.16586 0.1338,0.53778 0.25097,0.79065 0.26578,-0.43988 0.5488,-0.47235 0.98937,-0.16614 0.64162,0.44555 1.34442,0.80264 2.02133,1.19747 l 1.35032,0.7261 c -0.0736,-0.35921 -0.11584,-0.56297 -0.15777,-0.76657 -0.70112,-0.25444 -1.41463,-0.4799 -2.09948,-0.77205 -0.54035,-0.23088 -1.30149,-0.31412 -1.11318,-1.22745 -1.7e-4,3.1e-4 -0.0284,-0.0477 -0.0284,-0.0477 l -0.0549,-0.006 c -0.22517,-0.17195 -0.44986,-0.34404 -0.67487,-0.5163 -0.1443,0.23483 -0.28924,0.47012 -0.43354,0.70495" />
    <path
       inkscape:connector-curvature="0"
       id="path7314"
       style="fill:#452f1f;fill-opacity:1;fill-rule:nonzero;stroke:none;stroke-width:0.35277778"
       d="m 170.36183,139.44166 c 0.0701,0.0253 0.13992,0.0504 0.21021,0.0754 0.41397,-0.16352 0.21694,-0.46974 0.17242,-0.74002 0,0 -0.0433,-0.0617 -0.043,-0.0616 -0.26996,-0.15718 -0.19956,-0.60319 -0.57171,-0.67313 -0.0779,-0.0295 -0.15577,-0.0589 -0.23349,-0.0887 -0.10845,0.20765 -0.21753,0.41496 -0.32598,0.6226 0.0635,0.11506 0.12703,0.22933 0.1907,0.34408 z" />
    <path
       inkscape:connector-curvature="0"
       id="path7322"
       style="fill:#452f1f;fill-opacity:1;fill-rule:nonzero;stroke:none;stroke-width:0.35277778"
       d="m 176.25977,149.27575 c -0.0479,0.0123 -0.0748,0.0431 -0.0807,0.092 -0.0356,0.19955 -0.16602,0.47189 0.19789,0.45808 0.27306,-0.011 0.48142,-0.24501 0.41514,-0.50015 -0.0906,-0.3463 -0.35418,0.021 -0.53232,-0.0499" />
    <path
       inkscape:connector-curvature="0"
       id="path7326"
       style="fill:#452f1f;fill-opacity:1;fill-rule:nonzero;stroke:none;stroke-width:0.35277778"
       d="m 170.78159,145.54255 c 0.2554,-0.14945 0.38269,-0.39584 0.49376,-0.65455 -0.31454,0.10524 -0.36308,0.41079 -0.49376,0.65455" />
    <path
       inkscape:connector-curvature="0"
       id="path7330"
       style="fill:#452f1f;fill-opacity:1;fill-rule:nonzero;stroke:none;stroke-width:0.35277778"
       d="m 175.74572,155.76087 c 0.0314,0.0473 0.0689,0.10433 0.10646,0.16179 0.0535,-0.0682 0.11942,-0.13045 0.15655,-0.20621 0.0214,-0.0442 -0.004,-0.11077 -0.008,-0.16723 -0.0659,0.0547 -0.13156,0.1091 -0.2552,0.21165" />
    <path
       inkscape:connector-curvature="0"
       id="path7334"
       style="fill:#452f1f;fill-opacity:1;fill-rule:nonzero;stroke:none;stroke-width:0.35277778"
       d="m 165.5199,137.70638 c 0.002,0.0293 0.004,0.0587 0.006,0.0878 0.002,-0.0302 0.004,-0.0605 0.005,-0.0912 z" />
  </g>
  <g
     inkscape:groupmode="layer"
     id="layer2"
     inkscape:label="lemon"
     style="display:inline">
    <path
       style="fill:none;stroke:#000000;stroke-width:0.26458332px;stroke-linecap:butt;stroke-linejoin:miter;stroke-opacity:1"
       d="m 102.16682,148.67696 c 0,0 -0.65212,-1.59409 -0.79704,-1.88393 -0.14491,-0.28983 -0.19864,-1.04992 -0.43476,-1.52163 -0.33947,-0.6782 -0.984671,-1.16224 -1.376711,-1.81147 -0.206665,-0.34224 -0.373581,-0.71007 -0.507212,-1.08688 -0.06657,-0.18772 -0.04927,-0.40497 -0.144917,-0.57967 -0.574342,-1.04907 -1.443279,-1.98453 -2.463597,-2.60852 -1.030255,-0.63007 -3.188185,-1.01442 -3.47802,-1.01442 -0.289835,0 -2.053621,-0.63021 -3.115726,-0.72459 -0.939499,-0.0835 -2.487383,-0.73544 -2.82589,0.14492 -0.367763,0.95645 1.781618,1.22704 2.173762,2.17376 0.0647,0.1562 0.09572,0.36785 0,0.50722 -0.190455,0.27731 -0.632738,0.22981 -0.941964,0.36229 -0.466753,0.19997 -0.929991,0.41071 -1.376716,0.65213 -0.448237,0.24224 -0.90394,0.48186 -1.304257,0.79704 -0.456236,0.35921 -0.8212,0.8212 -1.231799,1.2318 -0.338141,0.33814 -0.721161,0.6367 -1.014422,1.01443 -0.464865,0.59876 -0.4183,2.11599 -1.159335,1.95638 -0.427622,-0.0921 -0.146836,-0.86684 -0.144918,-1.30426 0.0027,-0.60815 0.19794,-1.20363 0.217376,-1.81147 0.01392,-0.4352 -0.14158,-0.87435 -0.07246,-1.30425 0.115342,-0.71739 0.677385,-1.31217 0.797046,-2.02885 0.09157,-0.54845 -10e-7,-1.37672 -0.07246,-1.66655 -0.07246,-0.28984 -0.798348,-0.39336 -1.231799,-0.43475 -0.486251,-0.0464 -1.086882,0.14487 -1.449176,0.21737 -0.362294,0.0725 -1.037479,0.47382 -1.594091,0.50721 -0.515404,0.0309 -1.033631,-0.12116 -1.521634,-0.28983 -0.74532,-0.25761 -1.353639,-0.83615 -2.101302,-1.08688 -0.813178,-0.2727 -2.246223,-0.43475 -2.536058,-0.43475 -0.289833,0 -1.308534,-0.23377 -1.956384,-0.14492 -0.915886,0.12561 -1.666554,0.72459 -2.608515,0.94196 -0.941965,0.21738 -1.689747,0.57869 -2.463599,1.01442 -0.496704,0.27968 -0.900726,0.70079 -1.376714,1.01443 -0.677965,0.44673 -1.811467,0.94196 -2.101305,1.2318 -0.289833,0.28983 -1.159338,1.52163 -1.521632,2.1013 -0.362294,0.57967 -0.920955,0.98183 -1.15934,1.59409 -0.308709,0.79288 -0.289836,2.17376 -0.289836,2.53606 0,0.36229 -0.292156,1.1024 -0.362294,1.66655 -0.08945,0.71945 -0.07246,1.88393 -0.07246,2.17376 0,0.28984 0.362294,1.44918 0.57967,1.73901 0.217376,0.28983 0.239846,0.67689 0.362294,1.01442 0.166782,0.45974 0.362294,1.01443 0.507211,1.37672 0.144918,0.36229 0.800862,0.59022 0.65213,0.94196 -0.114437,0.27063 -0.70382,-0.0977 -0.869506,0.14492 -0.26444,0.3873 0.07634,0.95917 0.289835,1.37672 0.163462,0.31969 0.402041,0.63929 0.724588,0.79704 0.565787,0.27672 1.279212,0.32101 1.883927,0.14492 0.115948,-0.0338 0.170004,-0.20239 0.289835,-0.21737 0.311563,-0.0389 0.578248,0.245 0.869505,0.36229 0.432701,0.17425 0.905332,0.26544 1.304257,0.50721 0.219572,0.13307 0.289835,0.50721 0.57967,0.50721 0.289835,0 1.690704,-0.24153 2.536056,-0.36229 0.507211,-0.0725 1.014422,-0.14488 1.521634,-0.21738 0.507211,-0.0725 1.406265,-0.56695 2.101303,-0.8695 0.852252,-0.37098 1.763626,-0.64232 2.536056,-1.15934 0.411836,-0.27566 0.797044,-0.79705 1.086881,-1.01443 0.289833,-0.21737 1.385895,-1.37015 2.028845,-2.1013 0.612765,-0.69682 1.153667,-1.45375 1.739009,-2.17376 0.454529,-0.5591 1.00593,-1.04872 1.376717,-1.66655 0.457002,-0.76148 0.145923,-2.64912 1.014422,-2.4636 0.779819,0.16658 -0.07324,1.59373 -0.07246,2.39114 7.32e-4,0.74913 -0.07446,1.51164 0.07246,2.24622 0.146917,0.73458 0.451794,1.43647 0.797046,2.1013 0.416796,0.80259 0.883637,1.60526 1.521634,2.24622 0.784535,0.78818 1.804078,1.30474 2.753432,1.88393 0.86721,0.52907 1.704214,1.17005 2.680973,1.44918 1.140071,0.3258 3.188185,0.21737 3.550478,0.21737 0.362294,0 2.608515,-0.72458 2.89835,-0.8695 0.289835,-0.14492 2.608515,-1.81147 2.898349,-1.95639 0.289835,-0.14492 1.186019,-1.09581 1.666548,-1.73901 0.46618,-0.624 0.85541,-1.31168 1.15934,-2.02884 0.30422,-0.71785 0.65213,-2.24622 0.65213,-2.24622"
       id="path985"
       inkscape:connector-curvature="0"
       sodipodi:nodetypes="cssssssssssssssssssssssssssssssssssssssssssssssssssssssssssssssssssssssc" />
    <path
       style="fill:none;stroke:#000000;stroke-width:0.26458332px;stroke-linecap:butt;stroke-linejoin:miter;stroke-opacity:1"
       d="m 102.16682,148.53204 0.28984,-1.81147 0.57967,-1.37672 0.65213,-0.94196 0.43475,-0.72459 -0.94197,-0.36229 1.81147,-1.01442 1.81147,-1.30426 2.60851,-0.43475 2.97082,-0.28984 3.3331,0.3623 c 0,0 0,0.21737 -0.43476,0.43475 -0.43475,0.21738 -2.02884,0.94196 -2.02884,0.94196 l 2.24622,0.65213 1.95639,1.01442 2.53605,1.73901 c 0,0 0.94196,0.94197 1.01442,1.30426 0.0725,0.3623 1.15934,1.95639 1.2318,2.39114 0.0725,0.43475 0.57967,1.59409 0.57967,1.59409"
       id="path987"
       inkscape:connector-curvature="0" />
    <path
       style="fill:none;stroke:#000000;stroke-width:0.26458332px;stroke-linecap:butt;stroke-linejoin:miter;stroke-opacity:1"
       d="m 102.31174,151.28547 0.8695,1.73901 2.53606,2.60852 c 0,0 1.95639,1.23179 2.60852,1.52163 0.65212,0.28983 2.24622,0.65213 3.40556,0.94196 1.15934,0.28984 3.69539,-0.14491 4.2026,-0.14491 0.50721,0 2.97081,-0.21738 3.62294,-0.65213 0.65213,-0.43476 2.1013,-1.73901 2.1013,-1.73901 l 0.65213,-1.95639 0.50721,-1.73901 1.52163,3.26065 c 0,0 1.2318,1.37671 1.52164,1.44917 0.28983,0.0725 4.63736,1.2318 4.63736,1.2318 l 4.78227,-1.44918 c 0,0 2.24623,-1.23179 2.60852,-1.37671 0.36229,-0.14492 2.17376,-1.44918 2.17376,-1.44918 l 1.01443,-1.08688 1.08688,-1.52163"
       id="path989"
       inkscape:connector-curvature="0" />
    <path
       style="fill:none;stroke:#000000;stroke-width:0.26458332px;stroke-linecap:butt;stroke-linejoin:miter;stroke-opacity:1"
       d="m 122.96248,150.41597 0.21738,-2.4636 c 0,0 1.59409,-1.95639 1.73901,-2.24622 0.14491,-0.28984 1.81147,-1.88393 2.39114,-2.24622 0.57966,-0.3623 3.3331,-2.17376 3.3331,-2.17376 l 1.73901,-0.50721 2.82589,-1.08689 2.31868,-0.28983 1.88392,0.8695 1.66656,1.81147 0.94196,0.0725 0.43475,0.43475 c 0,0 0.43475,1.01443 0.50721,1.37672 0.0725,0.36229 0.28984,1.95638 0.28984,1.95638 l -0.3623,0.79705 v 1.81147 l 0.21738,0.50721"
       id="path991"
       inkscape:connector-curvature="0" />
    <path
       style="fill:none;stroke:#000000;stroke-width:0.26458332px;stroke-linecap:butt;stroke-linejoin:miter;stroke-opacity:1"
       d="m 143.39584,148.89433 0.57967,-2.31868 0.72459,-2.02884 0.72459,-2.4636 1.52163,-1.15934 1.44918,-1.37671 2.1013,-0.50722 1.59409,-0.0725 1.5941,-0.72459 c 0,0 1.66655,0 2.17376,0.43475 0.50721,0.43475 2.46359,1.73901 2.46359,1.73901 l 0.65213,-1.08688 0.57967,-2.89835 h 0.72459 l -1.37672,4.49244 3.04327,0.3623"
       id="path993"
       inkscape:connector-curvature="0" />
    <path
       style="fill:none;stroke:#000000;stroke-width:0.26458332px;stroke-linecap:butt;stroke-linejoin:miter;stroke-opacity:1"
       d="m 142.09159,151.0681 -0.43475,1.95638 -0.94197,1.37672 0.0725,1.73901 1.81147,1.81147 c 0,0 1.59409,0.57967 1.95638,0.43475 0.3623,-0.14492 2.4636,-0.79705 2.4636,-0.79705 0,0 2.68098,-0.57967 2.97081,-0.72459 0.28983,-0.14491 2.97081,-0.57967 2.97081,-0.57967 l 0.79704,-0.79704 c 0,0 1.2318,0.28983 1.66656,0.21738 0.43475,-0.0725 2.53605,-1.37672 2.53605,-1.37672 l 1.66655,-0.86951 1.59409,-2.02884 1.59406,2.53606 0.43475,1.95638 1.59409,2.53606 1.95639,1.08688 3.11573,0.72459 1.30425,-0.0725 2.4636,-0.14492 1.59409,-0.79704 2.53606,-1.88393 0.72459,-2.10131 0.50721,-2.31867 0.21737,-2.17377 -0.50721,-2.89835 v -1.44917 l -0.14492,-2.24622 -0.21737,-1.52164 -0.57967,-1.52163 -1.2318,-1.73901 c 0,0 -1.15934,-1.52163 -1.37672,-1.88393 -0.21737,-0.36229 -2.17376,-1.52163 -2.17376,-1.52163 l -2.89835,-0.14492 -0.36229,-0.50721 c 0,0 0.94196,-0.57967 1.44917,-1.2318 0.50721,-0.65213 2.39114,-2.68097 2.39114,-2.68097 l 2.82589,-0.14492 -1.73901,-0.57967 1.66655,-1.44917 c 0,0 -1.37671,-0.57967 -1.73901,-0.43476 -0.36229,0.14492 -3.04326,1.15934 -3.04326,1.15934 0,0 -0.72459,-0.21737 -0.65213,-0.57967 0.0725,-0.36229 1.59409,-3.18818 1.59409,-3.18818 l 2.24622,-1.95639 -3.40556,2.02885 c 0,0 -0.94196,0.50721 -0.72459,-0.0725 0.21738,-0.57967 0.50721,-2.4636 0.50721,-2.4636 l 1.30426,-2.24622 1.59409,-1.08688 -3.76785,3.04327 c 0,0 -0.50721,-0.0725 -0.50721,-0.50721 0,-0.43476 -1.01442,-3.26065 -1.01442,-3.26065 l -0.79705,-1.59409 -0.50721,1.81147 -0.79705,2.17376 c 0,0 -0.8695,-0.14492 -1.30426,-0.36229 -0.43475,-0.21738 -2.1013,-0.50721 -2.46359,-0.65213 -0.3623,-0.14492 -1.59409,-0.72459 -1.59409,-0.72459 l 1.52163,1.81147 0.65213,1.44918 -0.14492,0.72458 -1.66655,0.0725 -0.21738,-0.65213 1.52164,2.31868 c 0,0 0.28983,0.65213 0.79704,1.52164 0.50721,0.8695 0.65213,2.1013 0.65213,2.1013 0,0 -0.72459,0.14492 -1.08688,0.14492 -0.36229,0 -2.4636,0 -2.4636,0 l 0.65213,1.59409 -0.65213,0.57967 c 0,0 -1.2318,-0.21738 -1.66655,-0.21738 -0.43475,0 -1.52163,-0.43475 -1.52163,-0.43475 0,0 2.17376,1.44918 2.53605,1.81147 0.3623,0.36229 1.44918,2.02884 1.66655,2.31868 0.21738,0.28983 3.47802,1.95638 3.47802,1.95638 l -1.37671,0.50722 -1.52164,2.17376 -0.79704,1.15934"
       id="path995"
       inkscape:connector-curvature="0" />
  </g>
</svg>
