<?xml version="1.0" encoding="UTF-8" standalone="no"?>
<!-- Created with Inkscape (http://www.inkscape.org/) -->

<svg
   xmlns:dc="http://purl.org/dc/elements/1.1/"
   xmlns:cc="http://creativecommons.org/ns#"
   xmlns:rdf="http://www.w3.org/1999/02/22-rdf-syntax-ns#"
   xmlns:svg="http://www.w3.org/2000/svg"
   xmlns="http://www.w3.org/2000/svg"
   xmlns:sodipodi="http://sodipodi.sourceforge.net/DTD/sodipodi-0.dtd"
   xmlns:inkscape="http://www.inkscape.org/namespaces/inkscape"
   width="210mm"
   height="297mm"
   viewBox="0 0 210 297"
   version="1.1"
   id="svg8416"
   inkscape:version="0.92.4 (5da689c313, 2019-01-14)"
   sodipodi:docname="newfwuit.svg">
  <defs
     id="defs8410">
    <clipPath
       clipPathUnits="userSpaceOnUse"
       id="clipPath20">
      <path
         d="M 0,612 H 792 V 0 H 0 Z"
         id="path18"
         inkscape:connector-curvature="0" />
    </clipPath>
    <clipPath
       clipPathUnits="userSpaceOnUse"
       id="clipPath28">
      <path
         d="m 677.278,559.106 h 64.691 v -64.202 h -64.691 z"
         id="path26"
         inkscape:connector-curvature="0" />
    </clipPath>
    <clipPath
       clipPathUnits="userSpaceOnUse"
       id="clipPath160">
      <path
         d="m 549.234,547.03 h 59.057 v -51.677 h -59.057 z"
         id="path158"
         inkscape:connector-curvature="0" />
    </clipPath>
    <clipPath
       clipPathUnits="userSpaceOnUse"
       id="clipPath234">
      <path
         d="M 486.063,555.081 H 545.59 V 490.296 H 486.063 Z"
         id="path232"
         inkscape:connector-curvature="0" />
    </clipPath>
    <clipPath
       clipPathUnits="userSpaceOnUse"
       id="clipPath346">
      <path
         d="m 411.925,558.562 h 71.464 V 491.37 h -71.464 z"
         id="path344"
         inkscape:connector-curvature="0" />
    </clipPath>
    <clipPath
       clipPathUnits="userSpaceOnUse"
       id="clipPath394">
      <path
         d="m 613.571,549.059 h 59.051 v -52.871 h -59.051 z"
         id="path392"
         inkscape:connector-curvature="0" />
    </clipPath>
    <clipPath
       clipPathUnits="userSpaceOnUse"
       id="clipPath7010">
      <path
         d="M 0,612 H 792 V 0 H 0 Z"
         id="path7008"
         inkscape:connector-curvature="0" />
    </clipPath>
  </defs>
  <sodipodi:namedview
     id="base"
     pagecolor="#ffffff"
     bordercolor="#666666"
     borderopacity="1.0"
     inkscape:pageopacity="0.0"
     inkscape:pageshadow="2"
     inkscape:zoom="1.6946557"
     inkscape:cx="460.63915"
     inkscape:cy="639.29515"
     inkscape:document-units="mm"
     inkscape:current-layer="layer1"
     showgrid="false"
     inkscape:window-width="1680"
     inkscape:window-height="1022"
     inkscape:window-x="0"
     inkscape:window-y="0"
     inkscape:window-maximized="1" />
  <metadata
     id="metadata8413">
    <rdf:RDF>
      <cc:Work
         rdf:about="">
        <dc:format>image/svg+xml</dc:format>
        <dc:type
           rdf:resource="http://purl.org/dc/dcmitype/StillImage" />
        <dc:title></dc:title>
      </cc:Work>
    </rdf:RDF>
  </metadata>
  <g
     inkscape:label="Layer 1"
     inkscape:groupmode="layer"
     id="layer1">
    <g
       id="g32"
       transform="matrix(0.35277777,0,0,-0.35277777,157.31253,141.12473)">
      <path
         inkscape:connector-curvature="0"
         id="path30"
         style="fill:#412c1a;fill-opacity:1;fill-rule:nonzero;stroke:none"
         d="M 0,0 C 0.443,0.675 0.518,1.193 0.043,1.9 -1.055,3.568 -2.681,4.855 -4.538,5.668 -6.48,6.523 -8.676,6.84 -10.766,6.502 -11.04,6.46 -11.314,6.407 -11.589,6.333 -11.864,6.27 -12.128,6.196 -12.392,6.101 V 6.09 c 0.032,-0.084 0.064,-0.148 0.106,-0.211 0.042,-0.052 0.085,-0.095 0.138,-0.127 0,0 0,0.011 0.009,0 0.054,-0.031 0.107,-0.052 0.16,-0.063 0.147,-0.042 0.336,-0.021 0.516,0.011 3.969,0.601 7.178,-1.626 8.181,-5.521 0.136,-0.517 -0.476,-1.625 0.749,-1.594 C -1.478,-1.394 -0.622,-0.929 0,0 m -0.274,-4.919 c 0.95,1.035 3.145,1.309 2.058,3.61 -5.837,-3.357 -13.173,-4.454 -17.216,-11.178 2.998,-0.401 5.236,0.802 7.474,1.837 2.955,1.361 5.499,3.335 7.684,5.731 m 5.552,-11.98 c 3.335,2.597 4.053,5.51 2.111,8.011 -0.95,1.235 -2.058,2.323 -3.335,3.251 -1.784,1.299 -2.618,0.623 -3.146,-1.203 5.89,-1.309 4.191,-5.964 4.37,-10.059 m 5.826,15.833 C 8.646,-0.222 6.703,-0.813 4.792,-1.446 4.085,-1.678 3.452,-2.27 3.694,-2.977 3.969,-3.79 4.771,-3.715 5.468,-3.293 c 1.604,0.981 3.43,1.446 5.636,2.227 m 3.853,1.942 c 0.813,-0.243 1.868,-0.264 1.488,-1.562 -0.263,-0.887 -0.179,-1.932 -1.741,-1.963 -2.829,-0.053 -5.562,-0.76 -8.064,-2.196 0.179,-0.982 1.045,-1.351 1.583,-1.984 0.813,-0.961 1.889,-1.963 1.837,-3.188 -0.159,-3.336 1.741,-5.89 2.892,-8.719 0.844,-2.079 0.696,-6.396 0.58,-6.438 -0.665,0.696 -0.749,1.52 -0.844,2.48 -0.169,1.9 -0.211,3.969 -2.048,5.257 -1.035,1.499 -2.027,1.382 -3.039,-0.032 -0.371,-0.496 -0.792,-0.95 -1.194,-1.425 -0.96,-0.253 -1.435,-1.879 -2.807,-0.971 -1.362,0.897 -0.591,1.995 -0.433,3.135 0.211,1.583 0.105,6.164 -0.253,6.808 -0.739,1.351 -3.198,2.111 -3.959,1.224 -0.834,-0.126 -1.319,-0.802 -1.941,-1.245 -3.705,-2.607 -7.706,-4.475 -12.287,-4.761 -2.438,-0.148 -2.945,0.729 -1.932,2.945 1.225,2.671 3.399,4.402 5.722,6.038 0.126,0.084 0.253,0.179 0.39,0.253 0.095,0.053 0.19,0.116 0.295,0.18 1.436,0.833 3.769,1.921 4.95,2.607 0.212,0.074 0.412,0.19 0.571,0.38 0.052,0.042 0.094,0.084 0.127,0.127 -5.69,7.283 -13.279,8.824 -20.721,4.211 -3.747,-2.311 -6.322,-5.626 -7.885,-9.679 -1.488,-3.874 -2.733,-7.843 -4.105,-11.759 -2.027,-5.773 -4.645,-11.294 -7.22,-16.846 -1.056,-2.269 -1.953,-4.623 -0.116,-6.987 -0.106,-0.866 0.654,-1.309 0.96,-1.985 -0.116,-0.76 -0.633,-1.024 -1.34,-1.055 -2.956,2.944 -3.24,6.512 -1.563,9.974 4.445,9.194 7.843,18.768 11.285,28.342 3.134,8.729 9.193,14.027 18.84,14.481 0.233,0.011 0.507,-0.032 0.686,0.084 C -11.41,9.954 -4.38,9.025 0.19,4.412 2.017,2.565 2.144,2.522 3.02,4.982 3.979,7.705 4.677,10.523 5.51,13.289 5.827,14.345 6.207,15.4 7.505,14.081 7.61,12.708 6.439,11.537 6.861,9.51 7.526,11.157 7.97,12.276 8.413,13.384 9.774,13.605 10.472,13.205 9.807,11.758 8.233,8.339 7.621,4.581 5.731,0.981 8.962,1.393 11.98,1.752 14.957,0.876" />
    </g>
    <g
       id="g36"
       transform="matrix(0.35277777,0,0,-0.35277777,162.08639,150.00566)">
      <path
         inkscape:connector-curvature="0"
         id="path34"
         style="fill:#552015;fill-opacity:1;fill-rule:nonzero;stroke:none"
         d="m 0,0 c 0.063,-1.15 -0.422,-2.174 -0.981,-3.104 -4.392,-7.293 -10.376,-12.771 -18.957,-14.154 -9.004,-1.435 -17.734,-3.737 -26.431,-6.365 -4.339,-1.309 -8.666,-0.897 -12.445,2.027 -0.095,0.158 -0.201,0.327 -0.295,0.496 0.707,0.032 1.224,0.295 1.339,1.056 2.197,-1.573 4.614,-2.344 7.336,-1.996 0.55,-0.031 1.109,-0.179 1.626,-0.063 0.602,0.127 1.256,0.274 1.974,0.443 6.429,1.468 16.963,4.318 22.335,5.764 0.021,0 0.032,0.01 0.053,0.01 9.425,0.538 16.265,5.299 21.29,13.057 1.657,2.565 1.837,5.257 0.981,8.096 C -2.417,6.09 -2.649,6.914 -2.893,7.737 -1.056,6.449 -1.014,4.38 -0.845,2.48 -0.749,1.52 -0.665,0.697 0,0" />
    </g>
    <g
       id="g44"
       transform="matrix(0.35277777,0,0,-0.35277777,159.00304,141.63495)">
      <path
         inkscape:connector-curvature="0"
         id="path42"
         style="fill:#90a669;fill-opacity:1;fill-rule:nonzero;stroke:none"
         d="M 0,0 C 1.911,0.633 3.854,1.225 6.312,0.38 4.106,-0.401 2.28,-0.865 0.676,-1.847 -0.021,-2.269 -0.823,-2.343 -1.098,-1.53 -1.34,-0.823 -0.707,-0.232 0,0" />
    </g>
    <g
       id="g48"
       transform="matrix(0.35277777,0,0,-0.35277777,159.96006,136.15744)">
      <path
         inkscape:connector-curvature="0"
         id="path46"
         style="fill:#90a669;fill-opacity:1;fill-rule:nonzero;stroke:none"
         d="M 0,0 C 0.307,-0.232 0.612,-0.464 0.908,-0.696 0.465,-1.805 0.021,-2.924 -0.644,-4.57 -1.065,-2.543 0.105,-1.372 0,0" />
    </g>
    <g
       id="g52"
       transform="matrix(0.35277777,0,0,-0.35277777,159.91907,144.26011)">
      <path
         inkscape:connector-curvature="0"
         id="path50"
         style="fill:#90a669;fill-opacity:1;fill-rule:nonzero;stroke:none"
         d="m 0,0 c 1.942,-2.501 1.225,-5.415 -2.11,-8.011 -0.18,4.095 1.519,8.75 -4.37,10.059 0.527,1.826 1.361,2.501 3.145,1.203 C -2.058,2.322 -0.949,1.235 0,0" />
    </g>
    <g
       id="g68"
       transform="matrix(0.35277777,0,0,-0.35277777,157.94192,141.58655)">
      <path
         inkscape:connector-curvature="0"
         id="path66"
         style="fill:#90a669;fill-opacity:1;fill-rule:nonzero;stroke:none"
         d="m 0,0 c 1.087,-2.301 -1.108,-2.575 -2.059,-3.61 -2.184,-2.396 -4.728,-4.369 -7.683,-5.731 -2.238,-1.034 -4.476,-2.238 -7.474,-1.837 C -13.173,-4.454 -5.837,-3.356 0,0" />
    </g>
    <g
       id="g72"
       transform="matrix(0.35277777,0,0,-0.35277777,157.32767,140.45448)">
      <path
         inkscape:connector-curvature="0"
         id="path70"
         style="fill:#90a669;fill-opacity:1;fill-rule:nonzero;stroke:none"
         d="m 0,0 c 0.475,-0.707 0.4,-1.225 -0.043,-1.9 -0.622,-0.929 -1.478,-1.393 -2.533,-1.414 -1.225,-0.032 -0.612,1.076 -0.749,1.593 -1.003,3.895 -4.212,6.122 -8.181,5.521 -0.18,-0.032 -0.369,-0.053 -0.516,-0.01 -0.053,0.021 -0.117,0.042 -0.16,0.063 -0.009,0.01 -0.009,0 -0.009,0 -0.053,0.042 -0.096,0.084 -0.138,0.126 -0.042,0.063 -0.074,0.127 -0.106,0.211 0.264,0.096 0.528,0.169 0.803,0.243 0.275,0.074 0.549,0.127 0.823,0.169 2.09,0.338 4.275,0.021 6.228,-0.834 C -2.724,2.956 -1.098,1.668 0,0" />
    </g>
    <g
       id="g76"
       transform="matrix(0.35277777,0,0,-0.35277777,156.44883,153.94912)">
      <path
         inkscape:connector-curvature="0"
         id="path74"
         style="fill:#d03e3b;fill-opacity:1;fill-rule:nonzero;stroke:none"
         d="M 0,0 C 0.369,0.285 0.738,0.581 1.098,0.866 0.729,0.581 0.369,0.285 0,0" />
    </g>
    <g
       id="g80"
       transform="matrix(0.35277777,0,0,-0.35277777,155.35398,154.71235)">
      <path
         inkscape:connector-curvature="0"
         id="path78"
         style="fill:#d03e3b;fill-opacity:1;fill-rule:nonzero;stroke:none"
         d="M 0,0 C 0.18,0.105 0.359,0.211 0.538,0.327 0.359,0.211 0.18,0.095 0,0" />
    </g>
    <g
       id="g88"
       transform="matrix(0.35277777,0,0,-0.35277777,155.2496,142.07059)">
      <path
         inkscape:connector-curvature="0"
         id="path86"
         style="fill:#412c1a;fill-opacity:1;fill-rule:nonzero;stroke:none"
         d="M 0,0 C 0.243,0.158 0.443,0.285 0.57,0.38 0.412,0.19 0.212,0.074 0,0" />
    </g>
    <g
       id="g92"
       transform="matrix(0.35277777,0,0,-0.35277777,154.89957,142.06678)">
      <path
         inkscape:connector-curvature="0"
         id="path90"
         style="fill:#ec5c5a;fill-opacity:1;fill-rule:nonzero;stroke:none"
         d="M 0,0 C 0.349,-0.063 0.687,-0.084 0.992,-0.011 -0.189,-0.697 -2.522,-1.784 -3.958,-2.618 -2.597,-1.805 -1.098,-1.193 0,0" />
    </g>
    <g
       id="g96"
       transform="matrix(0.35277777,0,0,-0.35277777,154.55335,155.08478)">
      <path
         inkscape:connector-curvature="0"
         id="path94"
         style="fill:#d03e3b;fill-opacity:1;fill-rule:nonzero;stroke:none"
         d="M 0,0 C 0.19,0.063 0.38,0.137 0.57,0.222 0.38,0.137 0.19,0.063 0,0" />
    </g>
    <g
       id="g100"
       transform="matrix(0.35277777,0,0,-0.35277777,154.30013,155.16299)">
      <path
         inkscape:connector-curvature="0"
         id="path98"
         style="fill:#d03e3b;fill-opacity:1;fill-rule:nonzero;stroke:none"
         d="M 0,0 C 0.211,0.053 0.423,0.116 0.634,0.19 0.423,0.116 0.211,0.053 0,0" />
    </g>
    <g
       id="g104"
       transform="matrix(0.35277777,0,0,-0.35277777,155.71159,139.12522)">
      <path
         inkscape:connector-curvature="0"
         id="path102"
         style="fill:#90a669;fill-opacity:1;fill-rule:nonzero;stroke:none"
         d="M 0,0 C -1.953,0.855 -4.138,1.172 -6.228,0.834 -4.138,1.172 -1.942,0.855 0,0" />
    </g>
    <g
       id="g108"
       transform="matrix(0.35277777,0,0,-0.35277777,154.25914,155.17417)">
      <path
         inkscape:connector-curvature="0"
         id="path106"
         style="fill:#d03e3b;fill-opacity:1;fill-rule:nonzero;stroke:none"
         d="M 0,0 C -0.189,-0.063 -0.38,-0.105 -0.58,-0.147 -1.214,-0.285 -8.908,-1.784 -10.365,-2.016 -9.077,-1.763 -2.217,-0.169 0,0" />
    </g>
    <g
       id="g112"
       transform="matrix(0.35277777,0,0,-0.35277777,153.22423,138.89058)">
      <path
         inkscape:connector-curvature="0"
         id="path110"
         style="fill:#90a669;fill-opacity:1;fill-rule:nonzero;stroke:none"
         d="m 0,0 c -0.275,-0.074 -0.539,-0.147 -0.803,-0.243 v 0.011 C -0.539,-0.137 -0.275,-0.063 0,0" />
    </g>
    <g
       id="g116"
       transform="matrix(0.35277777,0,0,-0.35277777,153.03027,139.09541)">
      <path
         inkscape:connector-curvature="0"
         id="path114"
         style="fill:#90a669;fill-opacity:1;fill-rule:nonzero;stroke:none"
         d="M 0,0 C 0.043,-0.021 0.106,-0.042 0.159,-0.063 0.106,-0.053 0.054,-0.032 0,0" />
    </g>
    <g
       id="g120"
       transform="matrix(0.35277777,0,0,-0.35277777,152.97824,139.0506)">
      <path
         inkscape:connector-curvature="0"
         id="path118"
         style="fill:#90a669;fill-opacity:1;fill-rule:nonzero;stroke:none"
         d="M 0,0 C 0.042,-0.042 0.085,-0.084 0.138,-0.127 0.085,-0.095 0.042,-0.053 0,0" />
    </g>
    <g
       id="g124"
       transform="matrix(0.35277777,0,0,-0.35277777,151.51132,140.84173)">
      <path
         inkscape:connector-curvature="0"
         id="path122"
         style="fill:#ec5c5a;fill-opacity:1;fill-rule:nonzero;stroke:none"
         d="M 0,0 C 3.198,0.391 6.206,-0.433 8.665,-2.576 6.206,-0.496 3.219,0.137 0,0" />
    </g>
    <g
       id="g128"
       transform="matrix(0.35277777,0,0,-0.35277777,151.51132,140.84173)">
      <path
         inkscape:connector-curvature="0"
         id="path126"
         style="fill:#ec5c5a;fill-opacity:1;fill-rule:nonzero;stroke:none"
         d="M 0,0 C -1.003,-0.127 -1.984,-0.412 -2.935,-0.823 -1.932,-0.338 -0.95,-0.042 0,0" />
    </g>
    <g
       id="g132"
       transform="matrix(0.35277777,0,0,-0.35277777,145.5644,157.64672)">
      <path
         inkscape:connector-curvature="0"
         id="path130"
         style="fill:#d03e3b;fill-opacity:1;fill-rule:nonzero;stroke:none"
         d="M 0,0 C 7.062,1.668 21.11,5.584 22.335,5.763 16.963,4.317 6.429,1.467 0,0" />
    </g>
    <g
       id="g156"
       transform="matrix(-0.35277777,0,0,-0.35277777,316.62055,333.18019)" />
    <g
       id="g164"
       transform="matrix(-0.35277777,0,0,-0.35277777,108.04277,141.8191)">
      <path
         inkscape:connector-curvature="0"
         id="path162"
         style="fill:#443321;fill-opacity:1;fill-rule:nonzero;stroke:none"
         d="m 0,0 c 1.027,-0.168 2.131,-0.292 3.411,0.01 -7.484,4.227 -15.016,3.469 -22.568,2.749 2.139,-0.965 4.217,-1.939 6.222,-3.051 2.375,-1.32 4.813,-2.515 7.581,-2.87 3.407,-0.436 6.703,-0.091 10.468,1.162 -1.876,0.364 -3.602,0.671 -5.272,0.901 z m 11.193,-4.971 c 0.198,0.269 -0.311,0.562 -0.642,0.428 -0.677,-0.274 -1.708,-0.058 -1.905,-1.041 -0.096,-0.485 0.283,-0.835 0.94,-0.907 0.514,0.465 1.166,0.921 1.607,1.52 m 2.779,-3.862 c 2.538,-4.524 3.439,-9.389 2.945,-14.465 -0.542,-5.566 -2.321,-10.666 -6.788,-14.499 C 3.383,-43.588 -4.61,-46.4 -13.491,-47 c -3.181,-0.215 -6.315,-0.023 -9.423,0.423 l 0.129,0.959 c 0.049,-0.005 0.097,-0.009 0.144,-0.014 0.058,-0.01 0.116,-0.014 0.173,-0.019 4.999,-0.437 10.08,-0.442 15.074,0.657 6.564,1.444 12.61,4.035 17.326,8.718 5.921,5.877 6.736,13.242 5.219,21.009 -0.517,2.639 -1.659,5.053 -3.108,7.327 -0.466,0.724 -0.504,0.7 -1.229,0.244 -2.552,-0.542 -4.251,1.113 -3.377,3.441 0.538,1.448 -0.197,1.535 -1.157,1.204 -5.843,-2.02 -11.639,-2.044 -17.426,0.182 -1.386,0.892 -2.538,2.394 -4.557,1.636 -5.297,-1.981 -10.339,-4.443 -14.73,-7.974 -7.326,-5.892 -11.298,-13.295 -10.162,-22.771 0.193,-1.602 0.514,-3.19 1.267,-4.586 l -1.036,-0.461 c -1.18,2.308 -1.703,5.014 -1.641,8.229 0.139,7.081 2.984,13.059 8.026,18.073 4.406,4.38 9.822,7.244 15.512,9.677 0.662,0.283 1.329,0.542 2.207,0.898 -1.794,1.333 -3.689,1.559 -5.565,1.708 -0.926,0.071 -1.013,0.551 -1.152,1.242 -0.182,0.907 0.442,0.993 1.017,1.055 7.893,0.821 15.775,1.545 23.447,-1.319 1.814,-0.676 3.431,-1.684 5.081,-2.653 2.342,-1.372 4.788,-2.548 6.88,-4.308 0.85,-0.711 0.927,-0.648 -0.81,-1.656 -0.346,-0.441 -0.043,-0.624 0.316,-0.782 v -0.005 c 0.015,-0.316 0.192,-0.503 0.509,-0.575 0.058,-0.096 0.115,-0.192 0.168,-0.293 0.11,-0.37 0.158,-0.767 0.341,-1.099" />
    </g>
    <g
       id="g172"
       transform="matrix(-0.35277777,0,0,-0.35277777,103.47113,144.23944)">
      <path
         inkscape:connector-curvature="0"
         id="path170"
         style="fill:#d49047;fill-opacity:1;fill-rule:nonzero;stroke:none"
         d="m 0,0 c 0.336,-0.053 0.581,-0.182 0.504,-0.581 -0.317,0.073 -0.494,0.26 -0.509,0.576 H 0 Z" />
    </g>
    <path
       inkscape:connector-curvature="0"
       id="path174"
       style="fill:#d49047;fill-opacity:1;fill-rule:nonzero;stroke:none;stroke-width:0.35277778"
       d="m 103.47116,144.24124 h 0.002 v -0.002 h -0.002 z" />
    <g
       id="g178"
       transform="matrix(-0.35277777,0,0,-0.35277777,103.58448,143.96349)">
      <path
         inkscape:connector-curvature="0"
         id="path176"
         style="fill:#d49047;fill-opacity:1;fill-rule:nonzero;stroke:none"
         d="M 0,0 C 0.105,-0.264 0.216,-0.523 0.316,-0.782 -0.043,-0.624 -0.346,-0.441 0,0" />
    </g>
    <g
       id="g186"
       transform="matrix(-0.35277777,0,0,-0.35277777,104.32069,143.42191)">
      <path
         inkscape:connector-curvature="0"
         id="path184"
         style="fill:#90a96a;fill-opacity:1;fill-rule:nonzero;stroke:none"
         d="m 0,0 c 0.331,0.134 0.84,-0.158 0.643,-0.427 -0.442,-0.6 -1.094,-1.055 -1.608,-1.521 -0.657,0.072 -1.036,0.422 -0.94,0.907 C -1.708,-0.058 -0.677,-0.273 0,0" />
    </g>
    <g
       id="g190"
       transform="matrix(-0.35277777,0,0,-0.35277777,106.83938,141.81564)">
      <path
         inkscape:connector-curvature="0"
         id="path188"
         style="fill:#90a96a;fill-opacity:1;fill-rule:nonzero;stroke:none"
         d="m 0,0 c -1.28,-0.302 -2.384,-0.178 -3.411,-0.01 -0.734,0.125 -1.435,0.269 -2.13,0.302 -0.36,0.015 -0.725,0.044 -1.089,0.068 -0.624,0.048 -1.253,0.1 -1.881,0.124 -0.538,0.024 -1.253,0.015 -1.271,-0.613 -0.025,-0.759 0.758,-0.548 1.237,-0.562 0.614,-0.015 1.224,-0.043 1.833,-0.086 1.036,-0.072 2.077,-0.187 3.143,-0.331 1.67,-0.231 3.396,-0.538 5.272,-0.902 -3.766,-1.253 -7.061,-1.598 -10.469,-1.161 -2.767,0.355 -5.205,1.549 -7.58,2.869 -2.006,1.113 -4.083,2.087 -6.222,3.051 C -15.017,3.469 -7.484,4.227 0,0" />
    </g>
    <g
       id="g194"
       transform="matrix(-0.35277777,0,0,-0.35277777,108.04277,141.8191)">
      <path
         inkscape:connector-curvature="0"
         id="path192"
         style="fill:#443321;fill-opacity:1;fill-rule:nonzero;stroke:none"
         d="m 0,0 -0.158,-1.099 c -1.066,0.144 -2.107,0.26 -3.143,0.331 L -3.219,0.37 C -2.854,0.346 -2.49,0.317 -2.13,0.302 -1.435,0.269 -0.733,0.125 0,0" />
    </g>
    <g
       id="g198"
       transform="matrix(-0.35277777,0,0,-0.35277777,109.17826,141.68871)">
      <path
         inkscape:connector-curvature="0"
         id="path196"
         style="fill:#443321;fill-opacity:1;fill-rule:nonzero;stroke:none"
         d="m 0,0 -0.082,-1.137 c -0.609,0.043 -1.219,0.072 -1.833,0.086 -0.48,0.014 -1.262,-0.197 -1.237,0.562 0.018,0.628 0.733,0.637 1.271,0.614 C -1.253,0.101 -0.624,0.048 0,0" />
    </g>
    <g
       id="g206"
       transform="matrix(-0.35277777,0,0,-0.35277777,116.02988,157.91716)">
      <path
         inkscape:connector-curvature="0"
         id="path204"
         style="fill:#d49047;fill-opacity:1;fill-rule:nonzero;stroke:none"
         d="M 0,0 C -0.048,0.005 -0.096,0.01 -0.145,0.015 -0.216,0.024 -0.293,0.039 -0.369,0.053 -0.24,0.029 -0.115,0.015 0,0" />
    </g>
    <g
       id="g210"
       transform="matrix(-0.35277777,0,0,-0.35277777,116.08085,157.91201)">
      <path
         inkscape:connector-curvature="0"
         id="path208"
         style="fill:#443321;fill-opacity:1;fill-rule:nonzero;stroke:none"
         d="m 0,0 -0.129,-0.959 c -2.245,0.316 -4.476,0.767 -6.698,1.295 -3.78,1.401 -6.626,3.104 -8.631,5.248 l 1.041,0.941 C -12.892,4.995 -6.396,1.837 -2.188,0.533 -1.516,0.312 -0.844,0.134 -0.225,0.038 -0.148,0.024 -0.071,0.01 0,0" />
    </g>
    <g
       id="g214"
       transform="matrix(-0.35277777,0,0,-0.35277777,116.85255,157.72405)">
      <path
         inkscape:connector-curvature="0"
         id="path212"
         style="fill:#d49047;fill-opacity:1;fill-rule:nonzero;stroke:none"
         d="M 0,0 C 0.739,-0.226 1.406,-0.398 1.963,-0.495 1.344,-0.398 0.672,-0.221 0,0" />
    </g>
    <g
       id="g222"
       transform="matrix(-0.35277777,0,0,-0.35277777,121.16685,155.61017)">
      <path
         inkscape:connector-curvature="0"
         id="path220"
         style="fill:#443321;fill-opacity:1;fill-rule:nonzero;stroke:none"
         d="M 0,0 -1.041,-0.94 C -1.9,-0.019 -2.605,0.979 -3.162,2.068 l 1.036,0.46 C -1.67,1.689 -1.056,0.921 -0.221,0.259 -0.168,0.178 -0.091,0.091 0,0" />
    </g>
    <g
       id="g238"
       transform="matrix(0.35277777,0,0,-0.35277777,101.42549,152.17644)">
      <path
         inkscape:connector-curvature="0"
         id="path236"
         style="fill:#592912;fill-opacity:1;fill-rule:nonzero;stroke:none"
         d="m 0,0 c 2.249,7.946 0.752,15.401 -4.005,22.194 -0.787,1.113 -1.474,1.379 -2.42,0.237 -0.385,-0.456 -0.835,-0.864 -1.255,-1.284 -0.917,-0.923 -2.083,-1.846 0.231,-2.497 0.166,-0.047 0.166,-0.663 0.237,-1.012 -0.669,-0.017 -1.367,-0.165 -2.006,-0.041 -1.1,0.213 -2.023,0.662 -2.716,1.26 -0.1,0.083 -0.195,0.172 -0.284,0.266 -0.822,0.835 -1.23,1.899 -1.083,2.964 0.03,0.214 0.083,0.433 0.16,0.651 0.078,0.214 0.184,0.427 0.308,0.639 0.178,-0.011 0.343,-0.023 0.515,-0.041 0.354,-0.71 0.183,-1.544 0.686,-2.266 0.775,-1.101 1.319,-0.876 1.917,0.077 v 0.006 c 0.586,0.568 1.112,1.183 1.745,1.686 0.077,0.065 0.155,0.13 0.225,0.201 0.077,0.071 0.148,0.142 0.207,0.219 0.201,0.219 0.367,0.456 0.485,0.693 0.012,0.006 0.018,0.017 0.018,0.023 0.515,0.911 0.686,1.834 0.686,1.834 0.06,-0.006 0.12,0.047 0.178,0.136 0.267,0.231 0.426,0.592 0.485,1.077 0,0 2.047,-2.863 2.45,-3.408 10.348,-13.899 6.793,-33.543 -10.165,-43.335 -5.006,-2.911 -15.828,-2.964 -16.284,-2.876 -0.029,0.592 -0.017,1.166 0.722,1.237 0.042,0 0.083,0.006 0.131,0.006 3.384,0 6.751,0.142 9.958,1.408 C -8.916,-16.769 -2.792,-9.84 0,0" />
    </g>
    <g
       id="g250"
       transform="matrix(0.35277777,0,0,-0.35277777,99.419767,142.64351)">
      <path
         inkscape:connector-curvature="0"
         id="path248"
         style="fill:#592912;fill-opacity:1;fill-rule:nonzero;stroke:none"
         d="M 0,0 C -0.012,0.018 -0.018,0.029 -0.029,0.047 -0.018,0.047 -0.006,0.035 0,0" />
    </g>
    <g
       id="g254"
       transform="matrix(0.35277777,0,0,-0.35277777,99.409431,142.62678)">
      <path
         inkscape:connector-curvature="0"
         id="path252"
         style="fill:#592912;fill-opacity:1;fill-rule:nonzero;stroke:none"
         d="M 0,0 C 0.012,-0.018 0.018,-0.03 0.029,-0.047 -0.03,-0.533 -0.189,-0.894 -0.456,-1.125 -0.249,-0.805 -0.083,0 0,0" />
    </g>
    <g
       id="g258"
       transform="matrix(0.35277777,0,0,-0.35277777,99.409431,142.62678)">
      <path
         inkscape:connector-curvature="0"
         id="path256"
         style="fill:#4a382e;fill-opacity:1;fill-rule:nonzero;stroke:none"
         d="m 0,0 c -0.083,0 -0.249,-0.805 -0.456,-1.125 -0.053,-0.053 -0.112,-0.1 -0.178,-0.136 -0.248,-0.154 -0.573,-0.218 -0.975,-0.207 -5.42,0.207 -11.811,-0.059 -16.912,1.172 l 0.161,0.657 c 0.65,-0.154 1.348,-0.249 2.106,-0.278 4.095,-0.172 8.107,0.005 12.608,0.272 -4.981,3.698 -10.886,4.242 -15.703,7.183 5.734,-0.396 10.775,-2.917 15.964,-5.012 -4.207,5.846 -9.733,9.254 -16.999,9.515 -4.041,1.922 -8.325,1.165 -12.567,1.467 v -0.024 c 0,-0.929 0.739,-1.946 1.265,-2.491 l -0.78,-0.745 c -0.81,0.846 -1.621,1.692 -2.432,2.538 -0.467,0.491 -1.107,1.018 -0.757,1.722 0.29,0.603 1.077,0.385 1.65,0.379 6.225,-0.072 12.443,0.047 18.515,-1.829 C -9.254,11.129 -4.432,7.52 -1.137,1.87 -0.775,1.242 -0.379,0.621 0,0" />
    </g>
    <g
       id="g262"
       transform="matrix(0.35277777,0,0,-0.35277777,99.18584,143.07157)">
      <path
         inkscape:connector-curvature="0"
         id="path260"
         style="fill:#f6953f;fill-opacity:1;fill-rule:nonzero;stroke:none"
         d="m 0,0 c 0,0 -0.171,-0.923 -0.687,-1.834 0.433,0.816 0.385,1.604 -0.289,1.627 C -0.573,-0.219 -0.248,-0.154 0,0" />
    </g>
    <g
       id="g270"
       transform="matrix(0.35277777,0,0,-0.35277777,98.766246,143.97108)">
      <path
         inkscape:connector-curvature="0"
         id="path268"
         style="fill:#592912;fill-opacity:1;fill-rule:nonzero;stroke:none"
         d="M 0,0 C 0.189,0.219 0.35,0.456 0.485,0.692 0.367,0.456 0.201,0.219 0,0" />
    </g>
    <g
       id="g274"
       transform="matrix(0.35277777,0,0,-0.35277777,98.693186,144.04841)">
      <path
         inkscape:connector-curvature="0"
         id="path272"
         style="fill:#592912;fill-opacity:1;fill-rule:nonzero;stroke:none"
         d="M 0,0 C 0.071,0.071 0.143,0.142 0.207,0.219 0.148,0.142 0.077,0.071 0,0" />
    </g>
    <g
       id="g286"
       transform="matrix(0.35277777,0,0,-0.35277777,97.115352,145.43024)">
      <path
         inkscape:connector-curvature="0"
         id="path284"
         style="fill:#f6953f;fill-opacity:1;fill-rule:nonzero;stroke:none"
         d="M 0,0 C 0.089,-0.094 0.184,-0.183 0.284,-0.266 0.184,-0.183 0.089,-0.094 0,0" />
    </g>
    <g
       id="g290"
       transform="matrix(0.35277777,0,0,-0.35277777,98.215349,141.73556)">
      <path
         inkscape:connector-curvature="0"
         id="path288"
         style="fill:#92ac6d;fill-opacity:1;fill-rule:nonzero;stroke:none"
         d="m 0,0 c -5.189,2.094 -10.23,4.615 -15.964,5.012 4.817,-2.941 10.722,-3.486 15.703,-7.183 -4.502,-0.267 -8.513,-0.444 -12.608,-0.273 -0.758,0.03 -1.456,0.125 -2.107,0.278 -2.81,0.675 -4.727,2.426 -6.745,4.503 -0.053,0.059 -0.112,0.119 -0.166,0.178 -1.958,2.124 -4.946,7.052 -4.236,7.159 3.059,0.468 6.083,-0.225 9.124,-0.16 C -9.733,9.254 -4.207,5.846 0,0" />
    </g>
    <g
       id="g294"
       transform="matrix(0.35277777,0,0,-0.35277777,95.368326,160.17095)">
      <path
         inkscape:connector-curvature="0"
         id="path292"
         style="fill:#f6953f;fill-opacity:1;fill-rule:nonzero;stroke:none"
         d="m 0,0 -0.083,-0.124 -0.095,0.088 z" />
    </g>
    <g
       id="g302"
       transform="matrix(0.35277777,0,0,-0.35277777,92.93229,142.4995)">
      <path
         inkscape:connector-curvature="0"
         id="path300"
         style="fill:#4a382e;fill-opacity:1;fill-rule:nonzero;stroke:none"
         d="m 0,0 -0.16,-0.657 c -0.621,0.142 -1.225,0.32 -1.805,0.515 -3.668,1.248 -6.91,4.627 -8.561,5.147 -0.095,0.089 -0.254,0.119 -0.486,0.06 -0.029,-0.006 -0.064,-0.012 -0.1,-0.024 -6.117,-1.899 -11.206,-5.266 -14.97,-10.425 -0.283,-0.391 -0.562,-0.787 -0.816,-1.184 -4.171,-6.266 -5.651,-13.224 -3.947,-20.75 1.77,-10.97 13.473,-17.763 15.674,-18.751 3.331,-1.485 6.852,-2.16 10.414,-2.716 -0.048,0 -0.089,0 -0.131,-0.006 -1.023,-0.041 -0.721,-1.236 -0.721,-1.236 -14.278,1.142 -29.064,13.248 -27.099,31.732 0.698,6.586 3.745,11.952 7.94,16.904 3.266,3.858 13.39,7.929 13.65,8.16 -1.006,1.047 -2,2.083 -2.987,3.118 l 0.78,0.745 c 0.178,-0.177 0.326,-0.307 0.421,-0.361 C -10.479,8.857 -8.793,6.645 -6.911,4.68 -6.857,4.621 -6.799,4.562 -6.745,4.502 -4.728,2.426 -2.811,0.674 0,0" />
    </g>
    <g
       id="g306"
       transform="matrix(0.35277777,0,0,-0.35277777,92.218479,138.37916)">
      <path
         inkscape:connector-curvature="0"
         id="path304"
         style="fill:#92ac6d;fill-opacity:1;fill-rule:nonzero;stroke:none"
         d="M 0,0 C -3.041,-0.065 -6.065,0.627 -9.124,0.16 -9.846,0.047 -12.55,0.225 -12.567,1.444 V 1.467 C -8.325,1.166 -4.041,1.923 0,0" />
    </g>
    <g
       id="g310"
       transform="matrix(0.35277777,0,0,-0.35277777,91.254196,159.70966)">
      <path
         inkscape:connector-curvature="0"
         id="path308"
         style="fill:#592912;fill-opacity:1;fill-rule:nonzero;stroke:none"
         d="M 0,0 C -0.048,0 -0.089,-0.006 -0.131,-0.006 -0.089,0 -0.048,0 0,0" />
    </g>
    <g
       id="g314"
       transform="matrix(0.35277777,0,0,-0.35277777,91.208018,159.71171)">
      <path
         inkscape:connector-curvature="0"
         id="path312"
         style="fill:#592912;fill-opacity:1;fill-rule:nonzero;stroke:none"
         d="m 0,0 c -0.739,-0.071 -0.751,-0.645 -0.722,-1.237 0,0 -0.301,1.195 0.722,1.237" />
    </g>
    <g
       id="g318"
       transform="matrix(0.35277777,0,0,-0.35277777,90.494207,140.84843)">
      <path
         inkscape:connector-curvature="0"
         id="path316"
         style="fill:#92ac6d;fill-opacity:1;fill-rule:nonzero;stroke:none"
         d="M 0,0 C -1.882,1.964 -3.567,4.177 -5.993,5.591 -6.088,5.645 -6.236,5.775 -6.414,5.952 -6.94,6.497 -7.68,7.514 -7.68,8.443 -7.662,7.225 -4.958,7.047 -4.236,7.159 -4.946,7.053 -1.958,2.124 0,0" />
    </g>
    <g
       id="g326"
       transform="matrix(0.35277777,0,0,-0.35277777,89.047607,140.71272)">
      <path
         inkscape:connector-curvature="0"
         id="path324"
         style="fill:#4a382e;fill-opacity:1;fill-rule:nonzero;stroke:none"
         d="M 0,0 C 0.231,0.059 0.391,0.029 0.485,-0.06 0.302,-0.006 0.143,0.018 0,0" />
    </g>
    <g
       id="g334"
       transform="matrix(0.35277777,0,0,-0.35277777,83.443132,144.81651)">
      <path
         inkscape:connector-curvature="0"
         id="path332"
         style="fill:#4a382e;fill-opacity:1;fill-rule:nonzero;stroke:none"
         d="M 0,0 C -4.112,-6.254 -5.183,-13.135 -3.946,-20.75 -5.65,-13.224 -4.171,-6.266 0,0" />
    </g>
    <g
       id="g350"
       transform="matrix(0.35277777,0,0,-0.35277777,80.63227,140.94301)">
      <path
         inkscape:connector-curvature="0"
         id="path348"
         style="fill:#4c2f14;fill-opacity:1;fill-rule:nonzero;stroke:none"
         d="m 0,0 c 7.434,-13.852 4.189,-34.589 -11.571,-44.313 -2.254,-1.387 -4.447,-2.873 -6.674,-4.295 -6.02,-3.855 -12.553,-5.56 -19.694,-4.747 -4.084,0.848 -7.983,2.253 -11.837,3.818 -1.255,0.681 -2.519,1.362 -3.775,2.051 -0.22,0.115 -0.432,0.239 -0.609,0.389 v 0.009 c -0.027,0.088 -0.168,0.716 -0.177,1.264 0.459,0.716 1.105,0.38 1.697,0.062 3.404,-1.795 6.877,-3.412 10.581,-4.526 7.205,-2.184 14.099,-1.635 20.658,2.13 4.446,2.555 8.866,5.145 12.676,8.628 0.177,0.15 0.354,0.309 0.531,0.459 0.168,0.151 0.336,0.301 0.504,0.451 v -0.018 c 0.318,0.23 0.68,0.425 0.954,0.699 10.334,10.651 11.491,28.171 2.652,40.149 -0.336,0.451 -0.84,0.884 -0.442,1.467 0.397,0.575 0.999,0.46 1.494,0.106 0.787,-0.556 0.954,-0.115 1.016,0.557 1.379,-0.044 0.672,1.485 1.432,1.892 C -0.327,4.597 0.354,2.997 -0.434,1.299 -0.575,0.999 -0.222,0.407 0,0" />
    </g>
    <g
       id="g354"
       transform="matrix(0.35277777,0,0,-0.35277777,80.438666,138.4639)">
      <path
         inkscape:connector-curvature="0"
         id="path352"
         style="fill:#463024;fill-opacity:1;fill-rule:nonzero;stroke:none"
         d="m 0,0 c -0.009,-0.265 -0.018,-0.53 -0.035,-0.795 -0.76,-0.407 -0.053,-1.936 -1.432,-1.892 -0.274,0.822 -0.548,1.653 -0.822,2.475 -1.776,1.945 -3.527,2.369 -5.799,1.299 0.602,-0.459 1.15,-0.875 1.715,-1.299 0.071,-0.203 0.124,-0.398 0.15,-0.592 0.053,-0.53 -0.106,-1.008 -0.654,-1.3 -0.875,-0.468 -1.272,0.398 -1.697,0.884 -1.308,1.476 -2.28,3.298 -4.331,3.951 -4.287,2.326 -8.814,2.432 -13.313,1.008 -13.701,-4.322 -23.92,-13.082 -31.159,-25.343 -4.154,-7.027 -6.895,-14.488 -4.88,-22.903 0.115,-0.46 -0.212,-1.282 -0.212,-1.282 0,0 -3.783,-6.214 -3.076,-7.991 1.008,-2.536 6.1,-1.166 9.246,-0.053 0.009,0.009 0.027,0.009 0.035,0.009 0.77,0.097 2.025,0.265 2.476,0.972 -0.371,-0.583 -0.194,-0.972 0.177,-1.264 v -0.009 c -1.035,0.009 -6.118,-3.288 -10.634,-2.616 -4.623,0.69 -2.732,6.745 -0.681,9.246 0.849,1.026 1.096,3.307 1.096,3.307 -0.354,1.131 -0.822,1.785 -1.061,2.952 -0.026,0.477 -0.052,0.954 -0.088,1.432 0.036,0.946 0.08,1.891 0.115,2.837 0.052,0.345 0.106,0.681 0.159,1.026 3.536,19.482 21.533,38.355 40.184,42.058 5.039,0.999 9.927,0.646 14.214,-2.59 C -9.511,2.926 -8.954,3.165 -8.149,3.421 -5.136,4.376 -1.511,2.802 0,0" />
    </g>
    <g
       id="g370"
       transform="matrix(0.35277777,0,0,-0.35277777,77.922373,154.56404)">
      <path
         inkscape:connector-curvature="0"
         id="path368"
         style="fill:#fcd261;fill-opacity:1;fill-rule:nonzero;stroke:none"
         d="m 0,0 -0.009,-0.027 v 0.018 z" />
    </g>
    <g
       id="g378"
       transform="matrix(0.35277777,0,0,-0.35277777,61.46342,157.10877)">
      <path
         inkscape:connector-curvature="0"
         id="path376"
         style="fill:#463024;fill-opacity:1;fill-rule:nonzero;stroke:none"
         d="M 0,0 C 0.009,-0.548 0.15,-1.176 0.177,-1.264 -0.194,-0.972 -0.371,-0.583 0,0" />
    </g>
    <g
       id="g382"
       transform="matrix(0.35277777,0,0,-0.35277777,61.46342,157.10877)">
      <path
         inkscape:connector-curvature="0"
         id="path380"
         style="fill:#463024;fill-opacity:1;fill-rule:nonzero;stroke:none"
         d="M 0,0 C -0.451,-0.707 -1.706,-0.875 -2.476,-0.972 -1.043,-0.451 -0.026,0 0,0" />
    </g>
    <g
       id="g398"
       transform="matrix(0.35277777,0,0,-0.35277777,143.36677,144.85232)">
      <path
         inkscape:connector-curvature="0"
         id="path396"
         style="fill:#9f7053;fill-opacity:1;fill-rule:nonzero;stroke:none"
         d="M 0,0 C 0.132,-0.554 0.328,-1.123 0.117,-1.531 0.109,-0.882 0.052,-0.299 0,0" />
    </g>
    <g
       id="g402"
       transform="matrix(0.35277777,0,0,-0.35277777,143.40812,145.39253)">
      <path
         inkscape:connector-curvature="0"
         id="path400"
         style="fill:#442615;fill-opacity:1;fill-rule:nonzero;stroke:none"
         d="m 0,0 c 0.007,-0.459 -0.022,-0.955 -0.109,-1.393 -0.11,-0.532 -0.299,-1.145 -0.526,-1.691 -0.116,0.466 -0.408,0.853 -1.123,0.751 -0.16,-0.022 -0.291,-0.066 -0.4,-0.131 0.021,0.51 0.065,1.049 0.095,1.545 0.058,0.802 0.109,1.502 0.058,1.794 0.234,-0.7 0.444,-1.699 1.487,-1.291 0.27,0.103 0.43,0.248 0.518,0.416" />
    </g>
    <g
       id="g406"
       transform="matrix(0.35277777,0,0,-0.35277777,143.36677,144.85232)">
      <path
         inkscape:connector-curvature="0"
         id="path404"
         style="fill:#442615;fill-opacity:1;fill-rule:nonzero;stroke:none"
         d="M 0,0 C 0.052,-0.299 0.109,-0.882 0.117,-1.531 0.029,-1.699 -0.131,-1.845 -0.4,-1.947 c -1.043,-0.408 -1.254,0.591 -1.488,1.291 -0.008,0.029 -0.014,0.058 -0.022,0.08 -0.306,0.897 -0.372,1.881 -0.722,2.756 -0.204,0.51 -0.357,1.071 -0.525,1.611 l 1.699,2.217 C -1.574,3.9 -0.452,2.085 -0.021,0.109 -0.015,0.073 -0.007,0.036 0,0" />
    </g>
    <g
       id="g410"
       transform="matrix(0.35277777,0,0,-0.35277777,143.22037,146.80208)">
      <path
         inkscape:connector-curvature="0"
         id="path408"
         style="fill:#442615;fill-opacity:1;fill-rule:nonzero;stroke:none"
         d="m 0,0 c 0.167,-5.724 -1.306,-10.973 -4.63,-15.69 -3.427,-4.856 -8.458,-7.613 -13.416,-10.478 -5.016,-2.894 -10.383,-4.754 -16.121,-5.527 l 1.758,2.29 c 0.984,0.189 1.961,0.415 2.93,0.699 9.246,2.713 17.586,7.015 23.617,14.758 3.054,3.915 4.119,8.684 3.828,13.685 -0.037,0.671 -0.212,1.481 0.408,1.794 -0.051,-1.29 0,-2.399 0.518,-2.195 0.298,0.117 0.685,0.781 1.005,1.575 C -0.022,0.605 -0.008,0.263 0,0" />
    </g>
    <g
       id="g414"
       transform="matrix(0.35277777,0,0,-0.35277777,143.18418,146.48063)">
      <path
         inkscape:connector-curvature="0"
         id="path412"
         style="fill:#442615;fill-opacity:1;fill-rule:nonzero;stroke:none"
         d="m 0,0 c -0.32,-0.794 -0.707,-1.458 -1.006,-1.575 -0.517,-0.204 -0.568,0.905 -0.517,2.195 0.109,0.066 0.24,0.109 0.4,0.131 C -0.408,0.854 -0.116,0.467 0,0" />
    </g>
    <g
       id="g418"
       transform="matrix(0.35277777,0,0,-0.35277777,142.85242,142.7329)">
      <path
         inkscape:connector-curvature="0"
         id="path416"
         style="fill:#442615;fill-opacity:1;fill-rule:nonzero;stroke:none"
         d="m 0,0 -1.699,-2.217 c -0.459,1.495 -1.042,2.909 -3.215,3.143 l -1.415,1.32 C -5.935,2.027 -5.57,1.917 -5.301,2.005 -4.958,2.107 -5.038,2.712 -5.482,3.529 -3.799,3.733 -0.481,1.4 0,0" />
    </g>
    <g
       id="g426"
       transform="matrix(0.35277777,0,0,-0.35277777,142.099,145.66261)">
      <path
         inkscape:connector-curvature="0"
         id="path424"
         style="fill:#442615;fill-opacity:1;fill-rule:nonzero;stroke:none"
         d="m 0,0 c 0,-0.146 -0.052,-0.313 -0.161,-0.496 -0.415,-0.671 -1.094,-0.416 -1.713,-0.19 -0.161,0.059 -0.328,0.139 -0.503,0.227 -0.452,0.248 -0.927,0.605 -1.4,1.042 l 1.181,1.546 C -2.093,1.706 -1.517,1.327 -0.875,0.984 -0.424,0.744 0,0.445 0,0" />
    </g>
    <g
       id="g430"
       transform="matrix(0.35277777,0,0,-0.35277777,141.18329,144.91158)">
      <path
         inkscape:connector-curvature="0"
         id="path428"
         style="fill:#442615;fill-opacity:1;fill-rule:nonzero;stroke:none"
         d="m 0,0 -1.182,-1.545 c -2.048,1.88 -4.024,5.256 -3.645,7.786 0.065,0.256 0.139,0.547 0.219,0.839 0.13,0.32 0.269,0.598 0.51,0.714 0.087,0.037 0.175,0.059 0.277,0.059 0.065,0 0.138,-0.008 0.218,-0.022 C -3.07,7.714 -2.808,7.335 -2.837,6.788 -2.968,3.908 -2.006,1.655 0,0" />
    </g>
    <g
       id="g434"
       transform="matrix(0.35277777,0,0,-0.35277777,141.11884,142.4063)">
      <path
         inkscape:connector-curvature="0"
         id="path432"
         style="fill:#442615;fill-opacity:1;fill-rule:nonzero;stroke:none"
         d="M 0,0 -0.109,0.015 C -0.795,0.131 -1.451,0.7 -1.524,1.378 -1.487,1.356 -1.451,1.334 -1.415,1.32 Z" />
    </g>
    <g
       id="g438"
       transform="matrix(0.35277777,0,0,-0.35277777,140.91835,141.48802)">
      <path
         inkscape:connector-curvature="0"
         id="path436"
         style="fill:#442615;fill-opacity:1;fill-rule:nonzero;stroke:none"
         d="m 0,0 c 0.444,-0.816 0.524,-1.422 0.182,-1.524 -0.27,-0.087 -0.634,0.022 -1.029,0.241 l -0.109,0.109 c -0.022,0.212 0.022,0.43 0.139,0.656 C -0.649,-0.204 -0.365,-0.044 0,0" />
    </g>
    <g
       id="g442"
       transform="matrix(0.35277777,0,0,-0.35277777,141.26044,145.82471)">
      <path
         inkscape:connector-curvature="0"
         id="path440"
         style="fill:#9f7053;fill-opacity:1;fill-rule:nonzero;stroke:none"
         d="M 0,0 C -0.481,0.241 -0.963,0.591 -1.437,0.999 L -1.4,1.043 C -0.927,0.605 -0.452,0.248 0,0" />
    </g>
    <g
       id="g446"
       transform="matrix(0.35277777,0,0,-0.35277777,140.76641,145.45677)">
      <path
         inkscape:connector-curvature="0"
         id="path444"
         style="fill:#af856b;fill-opacity:1;fill-rule:nonzero;stroke:none"
         d="m 0,0 -0.036,-0.044 c -1.984,1.765 -3.675,4.805 -3.74,7.298 0.036,0.139 0.08,0.321 0.13,0.533 C -4.024,5.257 -2.049,1.881 0,0" />
    </g>
    <g
       id="g454"
       transform="matrix(0.35277777,0,0,-0.35277777,140.91835,141.48802)">
      <path
         inkscape:connector-curvature="0"
         id="path452"
         style="fill:#463125;fill-opacity:1;fill-rule:nonzero;stroke:none"
         d="m 0,0 c -0.365,-0.044 -0.649,-0.204 -0.817,-0.518 -0.117,-0.226 -0.161,-0.444 -0.139,-0.656 l -1.006,0.933 c -0.087,-0.029 -0.168,-0.043 -0.24,-0.051 -0.65,0.569 -1.203,1.167 -1.401,1.422 -1.268,1.626 -3.214,1.801 -4.979,2.355 -1.108,0.321 -2.209,0.729 -3.397,0.423 -1.189,-0.073 -2.392,-0.066 -3.574,-0.233 -11.323,-1.582 -20.422,-7.35 -28.165,-15.392 -8.48,-8.815 -8.123,-20.852 0.67,-29.398 0.904,-0.875 1.539,-2.297 3.194,-2.078 1.917,-1.917 4.593,-1.363 6.869,-2.107 -0.154,-1.108 1.538,-0.802 1.436,-1.874 -8.167,-0.321 -13.824,3.675 -17.441,10.631 -3.988,7.655 -4.112,15.625 1.087,22.573 8.326,11.134 23.521,19.642 37.659,19.65 C -4.863,5.68 -1.175,2.114 0,0" />
    </g>
    <g
       id="g458"
       transform="matrix(0.35277777,0,0,-0.35277777,140.58106,141.90211)">
      <path
         inkscape:connector-curvature="0"
         id="path456"
         style="fill:#442615;fill-opacity:1;fill-rule:nonzero;stroke:none"
         d="M 0,0 0.109,-0.109 C 0.073,-0.095 0.037,-0.073 0,-0.051 0,-0.037 -0.007,-0.022 0,0" />
    </g>
    <g
       id="g462"
       transform="matrix(0.35277777,0,0,-0.35277777,140.58106,141.90211)">
      <path
         inkscape:connector-curvature="0"
         id="path460"
         style="fill:#463125;fill-opacity:1;fill-rule:nonzero;stroke:none"
         d="m 0,0 c -0.007,-0.022 0,-0.037 0,-0.051 -0.408,0.233 -0.846,0.576 -1.246,0.933 0.072,0.008 0.153,0.022 0.24,0.051 z" />
    </g>
    <g
       id="g466"
       transform="matrix(0.35277777,0,0,-0.35277777,140.14147,141.59085)">
      <path
         inkscape:connector-curvature="0"
         id="path464"
         style="fill:#af856b;fill-opacity:1;fill-rule:nonzero;stroke:none"
         d="M 0,0 C -0.132,-0.015 -0.241,0 -0.343,0.036 -0.868,0.219 -1.05,0.977 -1.4,1.422 -1.203,1.167 -0.649,0.569 0,0" />
    </g>
    <g
       id="g478"
       transform="matrix(0.35277777,0,0,-0.35277777,139.48036,142.70983)">
      <path
         inkscape:connector-curvature="0"
         id="path476"
         style="fill:#442615;fill-opacity:1;fill-rule:nonzero;stroke:none"
         d="M 0,0 C 0.036,0.292 0.109,0.569 0.219,0.838 0.139,0.547 0.065,0.255 0,0" />
    </g>
    <g
       id="g490"
       transform="matrix(0.35277777,0,0,-0.35277777,131.78713,157.17562)">
      <path
         inkscape:connector-curvature="0"
         id="path488"
         style="fill:#442615;fill-opacity:1;fill-rule:nonzero;stroke:none"
         d="m 0,0 -1.758,-2.29 c -0.488,-0.065 -2.96,-0.524 -3.907,-0.415 0.102,1.072 -1.59,0.766 -1.437,1.874 C -4.718,-0.664 -2.341,-0.452 0,0" />
    </g>
    <g
       id="g494"
       transform="matrix(0.35277777,0,0,-0.35277777,126.85893,156.72551)">
      <path
         inkscape:connector-curvature="0"
         id="path492"
         style="fill:#af856b;fill-opacity:1;fill-rule:nonzero;stroke:none"
         d="M 0,0 C -1.655,-0.219 -2.29,1.203 -3.194,2.078 -2.29,1.203 -0.824,1.152 -1.291,1.677 -0.824,1.152 -0.431,0.562 0,0" />
    </g>
    <g
       id="g10794"
       transform="translate(-7.0722676,1.9052876)">
      <g
         transform="matrix(-0.31070598,-0.16707468,0.16707468,-0.31070598,183.57886,140.33324)"
         id="g7012">
        <path
           inkscape:connector-curvature="0"
           id="path7014"
           style="fill:#452f1f;fill-opacity:1;fill-rule:nonzero;stroke:none"
           d="m 0,0 c -0.012,-0.134 -0.023,-0.269 -0.035,-0.403 0.05,0.062 0.136,0.122 0.141,0.188 C 0.112,-0.146 0.04,-0.071 0,0 M -4.125,0.532 C -1.614,-0.765 -1.28,0.208 -1.564,2.186 -2.094,1.77 -2.395,1.487 -2.737,1.274 -3.183,0.998 -3.661,0.777 -4.125,0.532 M 15.507,8.5 C 15.501,8.646 15.494,8.793 15.488,8.94 14.727,9.072 13.965,9.306 13.202,9.31 12.459,9.313 11.208,9.382 11.268,8.479 11.344,7.321 12.51,7.998 13.195,8.048 13.973,8.104 14.737,8.341 15.507,8.5 m -34.642,-32.361 -0.427,-0.033 c -0.382,-1.257 -0.782,-2.51 -1.141,-3.775 -0.215,-0.755 0.09,-1.174 0.895,-1.255 0.851,-0.086 1.137,0.357 1.074,1.101 -0.114,1.322 -0.265,2.641 -0.401,3.962 M 38.791,40.12 c -0.592,-2.943 -1.112,-5.08 -1.427,-7.246 -0.226,-1.563 -0.422,-3.198 0.403,-4.689 0.296,-0.539 0.18,-1.76 1.192,-1.305 0.582,0.263 1.605,0.618 1.342,1.906 -0.26,1.277 -0.128,2.64 -0.122,3.965 0.009,2.28 -0.155,4.522 -1.388,7.369 m 12.716,5.828 c -3.736,-2.921 -6.785,-6.149 -8.842,-10.31 6.035,0.521 8.659,3.518 8.842,10.31 M 44.721,17.565 c 1.363,-0.722 2.756,-1.75 3.439,0.786 0.105,0.387 0.839,0.608 1.287,0.899 3.121,2.025 6.244,4.05 9.562,6.2 -1.567,0.473 -3,0.904 -4.434,1.337 -2.076,1.042 -4.435,1.506 -6.507,0.82 -4.095,-1.355 -9.801,-0.803 -10.192,-7.386 -0.051,-0.859 -0.48,-1.779 -1.421,-1.584 -1.319,0.273 -0.65,1.342 -0.543,2.186 0.415,3.27 0.532,6.488 -2.121,9.044 -0.317,1.832 -0.915,3.529 -2.523,5.242 0.436,-4.933 1.383,-9.457 0.246,-14.008 -0.105,-0.417 0.558,-1.028 0.865,-1.548 0.578,-0.898 0.064,-2.961 2.05,-2.372 3.427,1.015 6.839,0.87 10.292,0.384 M 60.34,32.617 c 0.851,0.157 1.756,0.21 2.379,1.314 -2.703,0.444 -5.188,1.366 -7.862,1.314 -4.846,1.84 -8.594,-0.953 -12.419,-3.105 -0.763,-0.429 -0.494,-1.881 -0.117,-2.772 0.436,-1.031 1.328,-0.54 2.083,-0.305 3.405,1.066 6.815,1.283 10.237,0.072 0.569,-0.201 1.312,-0.649 1.674,0.075 0.873,1.74 2.831,2.107 4.025,3.407 M 22.745,25.593 c 0.026,-2.709 0.635,-5.315 1.403,-7.892 -0.179,-2.739 0.861,-5.175 1.943,-7.587 0.224,-0.501 0.435,-1.087 1.369,-0.673 2.155,0.955 4.404,4.339 3.724,6.527 -1.616,5.2 -5.317,8.991 -8.953,13.012 -1.053,-1.619 0.032,-2.434 0.514,-3.387 M 49.012,4.019 C 43.205,4.132 37.594,1.44 31.611,2.873 c 1.53,-1.982 3.252,-3.528 5.632,-4.193 0.864,-0.939 2.015,-0.97 3.175,-1.062 3.6,-0.287 6.459,1.644 9.465,3.12 1.129,0.555 3.111,0.829 2.683,2.365 -0.348,1.251 -2.235,0.992 -3.554,0.916 m 2.755,7.589 c -0.233,0.392 -0.472,0.349 -0.716,0.012 -0.094,0.049 -0.193,0.072 -0.298,0.071 -4.203,3.537 -8.962,4.82 -14.385,3.69 C 34.709,15.035 33.394,14.624 32.934,12.678 32.563,11.106 31.473,9.853 30.252,8.757 29.681,8.244 28.53,7.977 28.739,7.079 28.978,6.057 30.096,5.772 31.062,5.547 37.081,4.144 42.883,4.94 48.528,7.292 c 1.258,0.556 2.5,1.15 3.777,1.659 1.953,0.778 1.383,1.442 -0.05,2.112 -0.171,0.187 -0.342,0.375 -0.514,0.562 z m 0.389,2.648 C 52.984,12.936 54.433,12.4 55.645,11.594 57.02,10.678 57.333,9.723 56.301,8.399 55.186,8.028 53.566,7.798 53.603,6.501 53.637,5.274 55.283,5.267 56.34,4.945 56.743,4.822 57.152,4.723 57.56,4.612 58.392,4.354 59.238,4.135 60.052,3.827 60.927,3.495 62.105,3.304 62.077,2.096 62.045,0.68 60.677,1.121 59.857,0.811 57.6,1.572 55.538,0.996 53.511,-0.045 c -1.584,-0.814 -3.28,-1.424 -4.82,-2.309 -3.387,-1.948 -6.974,-2.618 -10.819,-2.048 -0.114,0.048 -0.228,0.096 -0.343,0.144 l 0.135,-0.354 c 0.059,-0.329 0.116,-0.659 0.175,-0.99 0.188,-0.689 0.776,-1.268 0.568,-2.067 -1.581,-0.165 -1.25,2.171 -2.754,2.106 l -10e-4,0.003 c 0.094,1.52 -0.585,2.263 -2.138,2.125 l -0.025,0.025 c -0.081,0.288 -0.162,0.577 -0.244,0.866 0.068,1.212 -1.008,1.58 -1.677,2.23 -1.589,1.543 -1.799,0.347 -1.907,-0.999 -0.63,0.192 -1.259,0.383 -1.889,0.576 -0.016,1.612 -1.089,1.699 -2.297,1.592 -0.39,0.708 -1.515,0.471 -1.758,1.368 0.817,0.647 2.694,0.136 2.537,1.586 -0.1,0.921 -1.344,1.653 -2.68,1.705 -1.205,0.047 -2.106,0.062 -2.073,-1.467 -0.6,0.364 -1.2,0.728 -1.8,1.093 C 19.359,5.917 18.889,6.326 17.917,6.362 15.467,6.452 13.09,6.32 10.871,5.154 9.765,3.264 10.374,1.079 10.068,-1.713 8.774,1.002 10.084,3.278 8.895,5.169 1.719,6.367 0.729,5.33 0.79,0.828 0.519,0.301 0.498,-0.222 0.813,-0.739 0.87,-3.017 -0.959,-2.12 -2.061,-2.446 -2.375,-2.463 -2.69,-2.479 -3.005,-2.495 -4.623,-2.29 -6.294,-1.701 -7.373,-3.692 -8.3,-5.403 -8.92,-7.062 -7.776,-8.899 c 0.177,-0.12 0.356,-0.238 0.535,-0.357 0.152,-0.736 1.363,-0.379 1.349,-1.419 -0.617,-0.165 -1.255,-0.337 -1.894,-0.509 -0.523,-0.057 -0.863,-0.356 -1.085,-0.814 -0.838,-0.552 -0.195,-2.504 -2.014,-2.129 -0.012,0.349 0.011,0.703 -0.046,1.045 -0.119,0.704 0.53,1.691 -0.534,2.05 -1.026,0.345 -1.306,-0.624 -1.699,-1.269 -1.035,-1.698 -2.047,-3.41 -3.186,-5.31 1.121,-0.162 1.888,-0.274 2.657,-0.385 0,-1.135 1.19,-0.758 1.698,-1.297 -0.883,-0.5 -1.964,0.142 -2.752,-0.587 -1.899,-0.1 -2.275,-1.452 -2.206,-2.935 0.099,-2.117 0.388,-4.225 0.596,-6.336 -0.025,-0.385 -1.561,-1.008 0.176,-1.115 0.631,-0.039 0.825,-0.47 0.894,-1.009 -0.165,-0.081 -0.337,-0.107 -0.519,-0.078 -0.816,0.599 -1.594,-0.187 -2.397,-0.066 -0.132,-0.031 -0.235,0.01 -0.311,0.122 -0.296,1.253 -0.833,1.42 -1.643,0.366 -0.919,0.237 -1.33,-0.238 -1.384,-1.069 -0.143,-2.173 -0.22,-4.345 0.897,-6.343 0.083,-0.418 0.385,-1.002 0.214,-1.229 -1.606,-2.134 -0.312,-3.135 1.46,-3.991 l -0.04,0.003 0.498,-0.621 0.042,-0.204 c 0.088,-0.431 0.334,-0.716 0.769,-0.823 1.04,-0.635 1.584,-1.939 2.926,-2.165 0.58,0.282 0.796,1.132 1.619,1.038 0.031,-0.579 -0.101,-1.215 0.549,-1.579 1.899,-2.144 2.736,-3.835 2.754,-5.566 -0.396,-0.125 -0.793,-0.249 -1.19,-0.374 l 0.024,-0.014 c -0.92,2.441 -2.906,3.423 -5.288,3.861 -0.871,0.165 -1.75,0.296 -2.61,0.505 -0.736,0.179 -1.661,0.819 -0.967,1.402 1.653,1.39 0.103,2.004 -0.403,2.908 -0.565,1.009 -1.228,1.984 -1.638,3.054 -0.508,1.326 -0.969,2.475 -2.732,2.34 -0.572,-0.044 -1.319,0.187 -1.358,0.994 -0.047,0.962 0.64,1.25 1.425,1.12 1.238,-0.206 1.3,0.404 1.181,1.364 -0.131,1.059 -0.277,2.148 -0.168,3.199 0.168,1.633 0,2.825 -2.039,2.819 -0.712,-0.002 -1.196,0.395 -1.076,1.196 0.121,0.805 0.802,1.076 1.394,0.859 2.036,-0.747 2.338,0.466 2.698,2.016 0.34,1.464 1.003,2.854 1.534,4.273 0.431,1.154 1.935,2.349 -0.611,3.14 -0.983,0.305 -0.427,1.475 0.511,1.672 3.014,0.635 4.333,2.995 5.719,5.333 0.499,0.84 0.352,1.263 -0.666,1.419 -0.59,0.091 -0.897,0.569 -0.761,1.195 0.105,0.481 0.512,0.911 0.932,0.782 2.898,-0.895 3.548,1.543 4.752,3.141 0.801,1.066 1.544,2.178 2.294,3.246 -0.188,0.75 -0.805,0.633 -1.301,0.736 -0.675,0.142 -1.248,0.488 -1.122,1.231 0.15,0.879 0.89,1.108 1.643,0.847 4.413,-1.527 5.408,3.182 8.25,4.51 0.128,0.06 0.194,0.477 0.133,0.681 -0.634,2.137 -0.638,2.177 1.57,1.941 1.375,-0.146 2.593,0.055 3.843,0.718 3.27,1.734 6.72,2.92 10.502,2.493 1.407,-0.159 1.311,0.496 1.253,1.545 -0.214,3.864 -0.836,7.608 -2.605,11.105 -0.372,0.734 -1.124,1.707 0.178,2.231 1.222,0.491 1.45,-0.715 1.835,-1.444 1.832,-3.469 2.303,-7.27 2.694,-11.102 0.158,-1.548 0.156,-3.289 2.098,-3.932 0.56,-0.795 1.473,-0.951 2.299,-1.241 0.567,-0.198 1.241,-0.63 1.757,-0.158 0.603,0.553 -0.091,1.125 -0.264,1.676 -0.691,2.206 -1.326,4.433 -2.126,6.599 -0.56,1.52 -0.365,3.406 -2,4.446 -0.546,2.427 -2.153,4.024 -4.11,5.392 -0.653,0.456 -1.857,0.854 -1.059,2.015 0.622,0.906 1.404,0.445 2.056,-0.118 0.578,-0.499 1.308,-0.823 1.834,-0.212 0.409,0.472 0.019,1.173 -0.34,1.707 -0.144,0.215 -0.213,0.49 -0.385,0.676 -0.767,0.828 -2.17,1.709 -1.356,2.835 0.846,1.17 2.325,0.262 3.419,-0.184 3.346,-1.366 5.676,-3.947 7.719,-6.813 0.306,-0.429 0.524,-1.076 1.073,-0.967 0.516,0.102 0.589,0.758 0.771,1.279 1.006,2.862 0.028,5.629 -0.393,8.392 -0.333,2.19 -1.071,4.318 -1.638,6.471 -0.199,0.757 -0.719,1.627 0.285,2.118 0.99,0.486 1.416,-0.407 1.839,-1.066 1.816,-2.823 3.612,-5.66 5.678,-8.902 1.642,5.573 1.644,10.615 0.202,15.699 -0.238,0.844 -1.167,2.016 0.119,2.594 1.475,0.663 1.722,-0.905 2.152,-1.76 1.352,-2.688 2.684,-5.394 3.842,-8.168 0.68,-1.63 0.978,-1.76 2.17,-0.29 2.654,3.272 5.955,5.874 9.521,8.119 0.647,0.408 1.431,1.111 2.141,0.333 0.674,-0.739 0.475,-1.808 -0.165,-2.441 -1.125,-1.113 -1.231,-2.529 -1.555,-3.904 -0.18,-1.103 -0.27,-2.23 -0.558,-3.304 -0.512,-1.91 0.042,-2.847 2.108,-2.638 3.536,-0.732 7.091,-1.387 10.595,-2.245 0.954,-0.234 2.715,0.272 2.678,-1.443 -0.033,-1.503 -1.687,-1.197 -2.662,-1.625 -2.599,-1.141 -5.193,-2.293 -7.485,-4.295 2.115,-0.988 4.078,-0.873 6.002,-1.011 0.266,-1.661 -1.49,-2.326 -1.82,-3.694 -5.651,-0.45 -9.119,-4.826 -14.246,-7.469 1.814,-0.586 2.674,-1.582 3.983,-1.677" />
      </g>
      <g
         transform="matrix(-0.31070598,-0.16707468,0.16707468,-0.31070598,182.81799,153.85558)"
         id="g7016">
        <path
           inkscape:connector-curvature="0"
           id="path7018"
           style="fill:#472d14;fill-opacity:1;fill-rule:nonzero;stroke:none"
           d="M 0,0 C -0.171,0.422 -0.262,0.646 -0.353,0.871 -0.438,0.735 -0.591,0.603 -0.597,0.464 -0.606,0.225 -0.525,-0.019 -0.483,-0.261 -0.312,-0.168 -0.142,-0.076 0,0 m 32.137,-14.529 c -1.583,0.921 -2.71,-0.62 -4.046,-0.236 -0.63,0.182 -1.422,0.168 -1.581,-0.534 -0.157,-0.7 0.068,-1.546 0.637,-2.089 0.555,-0.529 1.187,-0.555 1.919,-0.09 1.189,0.756 2.366,1.477 3.071,2.949 m 9.691,10.56 c -0.031,0.785 -0.44,1.117 -1.208,0.951 -1.983,-0.429 -3.967,-0.863 -5.943,-1.323 -0.514,-0.12 -1.066,-0.294 -0.762,-1.053 0.622,-1.557 1.23,-3.121 1.861,-4.673 0.245,-0.601 0.679,-0.722 1.283,-0.473 0.852,0.351 4.791,5.733 4.769,6.571 m 11.208,26.16 c -1.817,-0.653 -3.387,-1.22 -4.958,-1.78 -0.639,-0.227 -1.15,-0.543 -0.877,-1.342 0.861,-2.521 1.357,-5.212 3.296,-7.601 1.415,3.598 2.713,6.857 2.539,10.723 M 49.423,8.971 C 47.793,8.517 46.703,8.214 45.614,7.908 40.392,6.439 40.379,6.435 42.407,1.375 c 0.206,-0.514 0.16,-1.376 1.011,-1.361 0.731,0.012 1.351,0.361 1.728,1.064 1.331,2.477 2.678,4.945 4.277,7.893 m -11.49,14.556 c 0.641,-0.98 -0.963,-3.642 1.618,-3.343 1.586,0.182 4.758,-0.455 4.608,2.525 -0.081,1.62 0.894,4.516 -1.299,4.959 -3.125,0.634 -5.081,-1.366 -4.927,-4.141 m -3.83,-25.885 c 1.9,0.99 4.87,0.015 6.407,2.302 0.666,0.991 -2.007,6.347 -2.631,6.076 -2.215,-0.964 -5.525,0.362 -6.69,-2.288 -0.761,-1.734 1.691,-6.039 2.914,-6.09 M 13.542,3.094 C 9.074,2.979 9.071,2.978 10.05,-1.32 c 0.157,-0.692 0.402,-1.367 0.519,-2.064 0.149,-0.883 0.661,-1.166 1.491,-1.136 1.864,0.071 3.73,0.088 5.593,0.187 0.566,0.029 1.516,0.002 1.283,0.894 -0.559,2.141 -1.051,4.372 -2.079,6.293 -0.641,1.2 -2.311,-0.107 -3.315,0.24 m 12.472,-15.723 c 1.611,0.228 3.11,0.422 4.603,0.656 0.701,0.11 1.384,0.351 2.086,0.434 0.843,0.099 0.949,0.477 0.815,1.259 -0.723,4.175 -2.016,5.188 -6.148,4.704 -0.266,-0.031 -0.533,-0.039 -0.799,-0.063 -4.551,-0.392 -4.59,-0.41 -2.703,-4.54 0.458,-1.003 0.404,-2.659 2.146,-2.45 M 40.992,8.895 c 2.188,0.603 4.086,1.096 5.963,1.657 1.048,0.312 0.655,1.032 0.402,1.722 -0.674,1.839 -1.347,3.68 -1.954,5.542 -0.279,0.862 -0.569,1.34 -1.664,1.201 -4.822,-0.615 -5.301,-1.223 -4.338,-5.961 0.214,-1.049 0.44,-2.095 0.64,-3.146 0.135,-0.706 0.407,-1.188 0.951,-1.015 M 12.222,5.098 c 1.144,0.092 3.009,-0.206 3.311,0.347 1.379,2.525 -0.596,5.008 -0.602,7.576 -0.002,1.159 -0.688,1.18 -1.561,1.244 C 7.544,14.689 7.441,14.436 8.166,8.546 8.501,5.826 9.238,4.354 12.222,5.098 m 19.514,1.529 c 1.966,1.831 5.942,-0.454 5.939,3.099 -10e-4,2.238 0.684,6.397 -2.386,6.855 -4.462,0.666 -6.872,-1.046 -6.366,-2.897 0.631,-2.307 -0.069,-5.329 2.813,-7.057 M 27.617,-3.417 c 3.261,0.066 3.26,0.066 2.358,3.227 C 29.778,0.495 29.512,1.171 29.409,1.871 29.138,3.722 28.522,4.726 26.29,4.136 24.416,3.641 22.4,3.661 20.444,3.508 19.553,3.438 19.108,3.194 19.434,2.194 c 0.657,-2.024 0.717,-4.478 2.196,-5.919 1.047,-1.02 3.055,0.217 4.651,0.217 0.446,0 0.891,0.059 1.336,0.091 m -6.873,9.056 c 0.705,0 1.154,-0.043 1.593,0.006 5.84,0.658 5.662,0.631 4.702,6.516 -0.39,2.387 -1.476,2.735 -3.451,2.684 -6.969,-0.182 -6.9,-0.138 -5.554,-6.959 0.37,-1.874 1.033,-2.74 2.71,-2.247 m -8.032,-21.49 c 1.061,0.407 1.115,1.354 1.22,2.274 1.242,0.076 2.486,0.14 3.727,0.231 5.01,0.367 4.963,0.353 3.164,5.036 -0.536,1.394 -1.06,2.404 -2.803,1.958 -2.034,-0.518 -5.144,0.708 -5.957,-0.836 -0.862,-1.64 1.042,-4.081 1.808,-6.149 0.03,-0.083 0.049,-0.171 0.072,-0.258 -1.313,-0.019 -2.533,-0.148 -2.262,-1.979 -1.491,-0.355 -3.109,0.26 -5.047,-0.684 2.735,-1.154 4.794,-2.756 7.56,-3.309 -0.565,1.419 -1.023,2.567 -1.482,3.716 M 5.369,20.654 c 1.818,-0.375 1.176,1.577 2.014,2.129 0.013,-1.967 0.027,-3.934 0.04,-5.902 -0.54,0.061 -0.705,1.333 -1.396,0.59 -0.508,-0.548 -0.302,-1.412 0.365,-1.806 0.89,-0.523 0.93,0.332 1.109,0.878 1.592,-0.062 3.191,-0.044 4.773,-0.204 1.796,-0.182 2.236,0.523 2.139,2.265 -0.26,4.702 -0.181,4.706 -4.886,4.913 -0.354,0.014 -0.707,0.053 -1.06,0.081 0.639,0.172 1.278,0.343 1.895,0.508 0.014,1.04 -1.197,0.683 -1.349,1.419 1.586,0.001 3.173,0.001 4.759,0.002 l 0.082,-0.097 c -0.378,-0.452 -0.757,-0.905 -1.423,-1.702 h 4.345 c -0.838,-2.259 -0.876,-4.893 0.063,-6.722 0.772,-1.507 3.386,0.033 5.192,-0.114 0.953,-0.079 1.932,0.211 2.903,0.28 1.112,0.079 1.212,0.816 1.177,1.675 10e-4,0.784 0.29,1.612 -0.354,2.297 -0.027,0.372 -0.053,0.744 -0.079,1.117 0.632,0.473 0.486,1.749 1.687,1.636 1.391,-6.736 1.375,-6.678 7.258,-5.106 1.371,0.366 1.582,0.856 1.418,2.191 -0.588,4.797 -0.52,4.794 -5.329,4.013 -1.146,-0.186 -2.316,-0.236 -3.359,-0.823 -0.045,0.78 -0.091,1.561 -0.136,2.342 l 0.152,0.155 c 0.967,0.139 1.948,0.212 2.898,0.425 5.901,1.325 5.261,-0.455 5.083,6.421 l 2.2,0.495 c -0.045,-5.846 -0.071,-5.768 4.772,-4.171 2.418,0.797 1.068,2.841 1.704,4.205 0.63,-0.192 1.259,-0.384 1.889,-0.575 -0.214,-1.953 0.529,-2.521 2.327,-1.637 0.391,0.192 0.837,0.273 1.257,0.405 0.082,-0.289 0.163,-0.578 0.244,-0.866 -0.036,-0.079 -0.072,-0.157 -0.108,-0.235 0.044,0.07 0.088,0.14 0.133,0.211 1.553,0.137 2.232,-0.606 2.137,-2.125 -1.392,2.31 -2.905,0.325 -4.352,0.095 -0.905,-0.142 -1.728,-0.488 -1.63,-1.684 0.143,-1.751 -0.047,-3.553 0.801,-5.185 0.052,-0.102 0.467,-0.04 0.711,-0.016 4.569,0.441 5.849,2.386 4.472,6.786 1.504,0.065 1.173,-2.271 2.754,-2.106 0,0 0.19,-0.043 0.19,-0.041 -0.008,-0.639 0.154,-1.182 0.821,-1.437 l 0.75,-1.193 c -2.04,-3.373 -0.995,-7.524 -2.754,-10.975 -0.079,-0.155 0.061,-0.552 0.223,-0.679 1.765,-1.384 0.712,-1.967 -0.664,-2.523 C 52.829,10.104 52.176,9.791 52.176,9.55 52.18,6.674 49.333,5.327 48.655,2.842 48.531,2.388 47.878,1.933 48.565,1.478 c 2.161,-1.43 0.861,-1.907 -0.615,-2.418 -2.221,-0.77 -3.676,-2.021 -2.999,-4.703 0.269,-1.062 -0.087,-1.513 -1.42,-1.497 -1.62,0.021 -2.473,-1.32 -1.913,-2.767 0.565,-1.455 -0.134,-1.901 -1.139,-2.06 -1.734,-0.274 -2.831,-1.373 -3.978,-2.509 -4.664,-4.617 -10.088,-7.64 -16.802,-7.91 -0.178,0.758 -1.254,1.096 -0.97,2.071 1.886,-0.012 3.742,0.217 5.535,0.807 0.527,0.174 1.613,0.347 1.135,1.049 -0.912,1.34 -0.82,3.979 -3.67,3.24 -0.846,-0.219 -1.786,-0.042 -2.666,-0.167 -1.29,-0.184 -3.224,0.545 -3.718,-0.575 -0.506,-1.145 0.867,-2.559 1.566,-3.785 0.121,-0.212 0.4,-0.333 0.606,-0.497 -0.812,-0.654 -2.243,-0.295 -2.645,-1.617 -3.221,-0.011 -5.579,2.29 -8.471,3.161 -0.018,1.731 -0.855,3.423 -2.755,5.566 l 0.083,0.068 c 0.961,-0.131 1.921,-0.289 2.887,-0.389 5.14,-0.531 5.15,-0.524 3.457,4.306 -0.442,1.263 -0.535,2.57 -2.605,2.635 -5.361,0.17 -5.356,0.316 -4.187,-4.892 l -0.184,-0.149 c -0.822,0.094 -1.038,-0.756 -1.618,-1.039 -0.358,1.266 -0.859,2.51 -1.042,3.8 -0.357,2.53 -1.71,3.443 -4.341,2.898 0.404,-0.983 0.797,-1.935 1.188,-2.886 -1.772,0.855 -3.066,1.856 -1.46,3.99 0.171,0.228 -0.131,0.812 -0.214,1.229 3.561,-0.086 3.548,-0.088 2.913,3.48 -0.203,1.14 -0.317,2.296 -0.472,3.444 0.803,-0.121 1.581,0.665 2.397,0.067 C 0.487,2.387 0.411,1.324 0.583,0.305 1.302,-3.959 3.07,-5.134 7.399,-4.491 8.436,-4.337 8.432,-3.935 8.313,-3.08 7.481,2.883 7.501,2.885 1.489,3.398 1.313,3.413 1.141,3.47 0.967,3.506 0.897,4.045 0.704,4.477 0.073,4.516 -1.664,4.622 -0.128,5.245 -0.104,5.63 1.49,5.495 3.091,5.416 4.676,5.209 6.183,5.012 6.481,5.625 6.338,7.019 6.125,9.085 5.391,11.087 5.661,13.222 c 0.124,0.977 -0.556,1.389 -1.508,1.432 -0.883,0.04 -1.764,0.162 -2.646,0.247 0.788,0.729 1.869,0.087 2.752,0.587 -0.508,0.539 -1.698,0.162 -1.698,1.297 1.987,-0.091 3.154,0.555 2.623,2.829 -0.074,0.315 0.117,0.692 0.185,1.04" />
      </g>
      <g
         transform="matrix(-0.31070598,-0.16707468,0.16707468,-0.31070598,169.75542,127.18987)"
         id="g7028">
        <path
           inkscape:connector-curvature="0"
           id="path7030"
           style="fill:#799254;fill-opacity:1;fill-rule:nonzero;stroke:none"
           d="M 0,0 C -1.31,0.095 -2.169,1.091 -3.983,1.677 1.144,4.32 4.611,8.696 10.263,9.146 10.971,8.728 12.252,9.074 12.358,7.896 12.48,6.539 11.1,6.894 10.401,6.562 6.67,4.782 3.578,2.008 0,0" />
      </g>
      <g
         transform="matrix(-0.31070598,-0.16707468,0.16707468,-0.31070598,180.92893,130.55627)"
         id="g7032">
        <path
           inkscape:connector-curvature="0"
           id="path7034"
           style="fill:#8faa68;fill-opacity:1;fill-rule:nonzero;stroke:none"
           d="m 0,0 c 1.635,-1.04 1.439,-2.926 2,-4.445 0.8,-2.166 1.435,-4.394 2.126,-6.6 0.173,-0.551 0.867,-1.123 0.264,-1.676 -0.516,-0.471 -1.19,-0.04 -1.757,0.158 -0.826,0.291 -1.739,0.447 -2.299,1.242 C -0.103,-7.558 -0.416,-3.789 0,0" />
      </g>
      <g
         transform="matrix(-0.31070598,-0.16707468,0.16707468,-0.31070598,168.14637,121.1817)"
         id="g7036">
        <path
           inkscape:connector-curvature="0"
           id="path7038"
           style="fill:#799254;fill-opacity:1;fill-rule:nonzero;stroke:none"
           d="M 0,0 C -1.924,0.139 -3.888,0.023 -6.002,1.012 -3.71,3.014 -1.116,4.165 1.482,5.307 2.217,3.951 3.83,4.383 4.993,3.342 3.373,2.257 1.687,1.129 0,0" />
      </g>
      <g
         transform="matrix(-0.31070598,-0.16707468,0.16707468,-0.31070598,172.75666,119.40729)"
         id="g7040">
        <path
           inkscape:connector-curvature="0"
           id="path7042"
           style="fill:#799254;fill-opacity:1;fill-rule:nonzero;stroke:none"
           d="M 0,0 C -2.066,-0.209 -2.62,0.729 -2.108,2.638 -1.82,3.712 -1.73,4.839 -1.551,5.942 -0.52,6 0.267,7.627 1.211,6.827 1.972,6.182 0.868,5.089 0.771,4.148 0.626,2.754 0.268,1.382 0,0" />
      </g>
      <g
         transform="matrix(-0.31070598,-0.16707468,0.16707468,-0.31070598,166.46538,129.28344)"
         id="g7044">
        <path
           inkscape:connector-curvature="0"
           id="path7046"
           style="fill:#799254;fill-opacity:1;fill-rule:nonzero;stroke:none"
           d="M 0,0 C -0.407,0.11 -0.816,0.21 -1.22,0.333 -2.276,0.654 -3.923,0.662 -3.957,1.889 -3.993,3.186 -2.374,3.416 -1.259,3.787 1.438,3.281 0.846,1.683 0,0" />
      </g>
      <g
         transform="matrix(-0.31070598,-0.16707468,0.16707468,-0.31070598,180.29058,158.59509)"
         id="g7048">
        <path
           inkscape:connector-curvature="0"
           id="path7050"
           style="fill:#f3ca63;fill-opacity:1;fill-rule:nonzero;stroke:none"
           d="M 0,0 C 2.382,-0.438 4.367,-1.42 5.288,-3.861 3.026,-3.257 1.192,-2.067 0,0" />
      </g>
      <g
         transform="matrix(-0.31070598,-0.16707468,0.16707468,-0.31070598,169.80319,136.58966)"
         id="g7052">
        <path
           inkscape:connector-curvature="0"
           id="path7054"
           style="fill:#f3ca63;fill-opacity:1;fill-rule:nonzero;stroke:none"
           d="M 0,0 C -0.667,0.255 -0.829,0.798 -0.821,1.437 -0.034,1.25 0.029,0.651 0,0" />
      </g>
      <g
         transform="matrix(-0.31070598,-0.16707468,0.16707468,-0.31070598,169.71914,129.95972)"
         id="g7056">
        <path
           inkscape:connector-curvature="0"
           id="path7058"
           style="fill:#8faa68;fill-opacity:1;fill-rule:nonzero;stroke:none"
           d="m 0,0 c -5.646,-2.352 -11.447,-3.148 -17.466,-1.745 -0.967,0.225 -2.085,0.51 -2.323,1.532 -0.209,0.898 0.941,1.165 1.513,1.678 1.22,1.096 2.31,2.349 2.681,3.921 0.46,1.946 1.776,2.357 3.435,2.703 C -6.737,9.219 -1.979,7.936 2.225,4.398 0.637,2.763 -1.803,2.505 -3.589,1.031 -2.428,0.04 -0.911,1.156 0,0" />
      </g>
      <g
         transform="matrix(-0.31070598,-0.16707468,0.16707468,-0.31070598,178.06985,125.4077)"
         id="g7060">
        <path
           inkscape:connector-curvature="0"
           id="path7062"
           style="fill:#8faa68;fill-opacity:1;fill-rule:nonzero;stroke:none"
           d="m 0,0 c 2.653,-2.557 2.536,-5.774 2.121,-9.044 -0.107,-0.845 -0.776,-1.913 0.543,-2.186 0.941,-0.195 1.37,0.725 1.421,1.584 0.391,6.583 6.097,6.031 10.192,7.386 2.072,0.686 4.431,0.222 6.506,-0.821 -0.673,-1.048 -1.572,-1.756 -2.667,-2.418 -2.459,-1.487 -4.708,-3.319 -7.124,-4.887 -1.132,-0.735 -0.871,-1.251 -0.062,-1.916 -3.453,0.486 -6.865,0.631 -10.292,-0.385 -1.986,-0.588 -1.472,1.475 -2.05,2.374 1.454,-0.104 1.736,0.717 1.677,1.969 C 0.134,-5.564 0.083,-2.781 0,0" />
      </g>
      <g
         transform="matrix(-0.31070598,-0.16707468,0.16707468,-0.31070598,183.81039,141.4376)"
         id="g7064">
        <path
           inkscape:connector-curvature="0"
           id="path7066"
           style="fill:#472d14;fill-opacity:1;fill-rule:nonzero;stroke:none"
           d="m 0,0 c 1.102,0.326 2.931,-0.57 2.874,1.707 0.978,0 1.956,-0.033 2.932,0.007 5.52,0.224 5.106,-1.235 4.986,5.374 0.055,0.176 0.108,0.351 0.163,0.528 1.19,-1.891 -0.12,-4.168 1.174,-6.883 0.306,2.792 -0.304,4.977 0.803,6.868 0.015,-1.151 0.157,-2.317 0.018,-3.449 -0.221,-1.801 0.568,-2.158 2.131,-1.85 1.995,0.392 4.007,0.704 6.012,1.051 C 20.619,2.737 19.716,2.237 20.53,1.273 19.668,1.067 18.813,0.811 17.941,0.663 12.702,-0.219 12.7,-0.21 13.176,-5.666 l -0.153,-0.155 c -0.793,-0.128 -1.585,-0.256 -2.377,-0.383 0.083,0.251 0.218,0.498 0.24,0.755 0.407,5.05 0.404,5.05 -4.636,5.043 C 2.021,-0.412 2.083,-0.413 2.035,-4.75 2.019,-6.284 2.461,-6.782 4.007,-6.608 c 2.106,0.236 4.237,0.263 6.358,0.381 -0.756,-2.532 -2.767,-1.718 -4.427,-1.569 -2.102,0.19 -4.186,0.585 -6.278,0.891 l -0.081,0.097 C 0.021,-4.558 0.198,-2.29 0,0" />
      </g>
      <g
         transform="matrix(-0.31070598,-0.16707468,0.16707468,-0.31070598,170.28044,120.11763)"
         id="g7068">
        <path
           inkscape:connector-curvature="0"
           id="path7070"
           style="fill:#8faa68;fill-opacity:1;fill-rule:nonzero;stroke:none"
           d="m 0,0 c -1.194,-1.3 -3.152,-1.667 -4.024,-3.407 -0.363,-0.724 -1.106,-0.277 -1.675,-0.075 -3.422,1.211 -6.832,0.994 -10.237,-0.072 -0.754,-0.235 -1.647,-0.726 -2.083,0.305 -0.377,0.891 -0.646,2.343 0.117,2.771 3.825,2.153 7.573,4.946 12.42,3.106 C -5.521,1.631 -5.241,1.05 -4.07,0.854 -2.711,0.624 -1.233,0.846 0,0" />
      </g>
      <g
         transform="matrix(-0.31070598,-0.16707468,0.16707468,-0.31070598,180.78774,128.58128)"
         id="g7072">
        <path
           inkscape:connector-curvature="0"
           id="path7074"
           style="fill:#8faa68;fill-opacity:1;fill-rule:nonzero;stroke:none"
           d="m 0,0 c -0.482,0.953 -1.567,1.769 -0.514,3.388 3.636,-4.022 7.337,-7.813 8.952,-13.013 0.681,-2.188 -1.568,-5.571 -3.723,-6.526 -0.934,-0.414 -1.145,0.172 -1.369,0.672 -1.082,2.413 -2.122,4.848 -1.943,7.587 0.775,-0.009 0.758,0.544 0.785,1.084 C 2.312,-4.263 1.594,-1.991 0,0" />
      </g>
      <g
         transform="matrix(-0.31070598,-0.16707468,0.16707468,-0.31070598,184.83947,148.97388)"
         id="g7076">
        <path
           inkscape:connector-curvature="0"
           id="path7078"
           style="fill:#f3ca63;fill-opacity:1;fill-rule:nonzero;stroke:none"
           d="M 0,0 C 0.882,-0.085 1.763,-0.207 2.646,-0.247 3.599,-0.29 4.278,-0.702 4.154,-1.68 3.884,-3.814 4.618,-5.816 4.831,-7.883 4.975,-9.276 4.676,-9.89 3.169,-9.692 1.584,-9.485 -0.017,-9.406 -1.61,-9.271 -1.818,-7.16 -2.106,-5.052 -2.206,-2.936 -2.275,-1.452 -1.899,-0.101 0,0" />
      </g>
      <g
         transform="matrix(-0.31070598,-0.16707468,0.16707468,-0.31070598,183.10336,152.6048)"
         id="g7080">
        <path
           inkscape:connector-curvature="0"
           id="path7082"
           style="fill:#f3ca63;fill-opacity:1;fill-rule:nonzero;stroke:none"
           d="M 0,0 C 0.174,-0.036 0.347,-0.093 0.522,-0.107 6.534,-0.621 6.515,-0.623 7.346,-6.586 7.465,-7.44 7.469,-7.843 6.433,-7.997 2.104,-8.64 0.335,-7.465 -0.384,-3.201 -0.556,-2.182 -0.479,-1.119 -0.519,-0.077 -0.337,-0.106 -0.165,-0.081 0,0" />
      </g>
      <g
         transform="matrix(-0.31070598,-0.16707468,0.16707468,-0.31070598,177.81687,136.87185)"
         id="g7084">
        <path
           inkscape:connector-curvature="0"
           id="path7086"
           style="fill:#f3ca63;fill-opacity:1;fill-rule:nonzero;stroke:none"
           d="m 0,0 c -2.005,-0.347 -4.017,-0.658 -6.012,-1.051 -1.563,-0.307 -2.352,0.049 -2.131,1.851 0.139,1.132 -0.003,2.298 -0.018,3.448 2.219,1.166 4.596,1.298 7.046,1.208 C -0.144,5.42 0.327,5.011 0.669,4.233 0.51,2.854 0.35,1.475 0.19,0.096 0.191,0.096 0,0 0,0" />
      </g>
      <g
         transform="matrix(-0.31070598,-0.16707468,0.16707468,-0.31070598,183.33204,147.37046)"
         id="g7088">
        <path
           inkscape:connector-curvature="0"
           id="path7090"
           style="fill:#f3ca63;fill-opacity:1;fill-rule:nonzero;stroke:none"
           d="M 0,0 C -0.013,1.968 -0.026,3.936 -0.04,5.902 0.182,6.36 0.522,6.659 1.045,6.717 1.397,6.689 1.75,6.65 2.104,6.636 6.81,6.429 6.73,6.425 6.99,1.723 7.087,-0.019 6.647,-0.724 4.852,-0.542 3.27,-0.382 1.67,-0.399 0.078,-0.338 0.129,-0.208 0.103,-0.095 0,0" />
      </g>
      <g
         transform="matrix(-0.31070598,-0.16707468,0.16707468,-0.31070598,171.78662,134.52109)"
         id="g7092">
        <path
           inkscape:connector-curvature="0"
           id="path7094"
           style="fill:#8faa68;fill-opacity:1;fill-rule:nonzero;stroke:none"
           d="M 0,0 C -2.38,0.665 -4.103,2.211 -5.632,4.193 0.351,2.761 5.962,5.452 11.769,5.339 11.084,3.905 9.573,3.634 8.38,2.899 5.795,1.31 2.817,0.894 0,0" />
      </g>
      <g
         transform="matrix(-0.31070598,-0.16707468,0.16707468,-0.31070598,172.61863,127.40384)"
         id="g7096">
        <path
           inkscape:connector-curvature="0"
           id="path7098"
           style="fill:#799254;fill-opacity:1;fill-rule:nonzero;stroke:none"
           d="M 0,0 C -0.809,0.665 -1.069,1.181 0.062,1.916 2.479,3.483 4.728,5.315 7.187,6.803 8.281,7.465 9.181,8.173 9.854,9.221 11.288,8.789 12.722,8.357 14.288,7.885 10.971,5.734 7.848,3.71 4.727,1.685 4.278,1.394 3.544,1.173 3.439,0.785 2.756,-1.75 1.363,-0.723 0,0" />
      </g>
      <g
         transform="matrix(-0.31070598,-0.16707468,0.16707468,-0.31070598,175.25211,117.4515)"
         id="g7100">
        <path
           inkscape:connector-curvature="0"
           id="path7102"
           style="fill:#fffffd;fill-opacity:1;fill-rule:nonzero;stroke:none"
           d="M 0,0 C -0.183,-6.792 -2.807,-9.789 -8.842,-10.31 -6.785,-6.149 -3.736,-2.92 0,0" />
      </g>
      <g
         transform="matrix(-0.31070598,-0.16707468,0.16707468,-0.31070598,171.78662,134.52109)"
         id="g7104">
        <path
           inkscape:connector-curvature="0"
           id="path7106"
           style="fill:#799254;fill-opacity:1;fill-rule:nonzero;stroke:none"
           d="m 0,0 c 2.817,0.894 5.795,1.31 8.38,2.899 1.193,0.735 2.704,1.006 3.389,2.44 1.319,0.076 3.206,0.336 3.554,-0.916 C 15.751,2.888 13.769,2.613 12.64,2.059 9.634,0.582 6.774,-1.349 3.175,-1.062 2.015,-0.97 0.864,-0.938 0,0" />
      </g>
      <g
         transform="matrix(-0.31070598,-0.16707468,0.16707468,-0.31070598,174.82663,135.92226)"
         id="g7108">
        <path
           inkscape:connector-curvature="0"
           id="path7110"
           style="fill:#f3ca63;fill-opacity:1;fill-rule:nonzero;stroke:none"
           d="m 0,0 c -0.637,-1.364 0.714,-3.408 -1.704,-4.205 -4.843,-1.597 -4.817,-1.675 -4.773,4.171 0.313,0.201 0.625,0.401 0.938,0.602 1.141,0.15 2.253,0.393 3.241,1.025 C -1.09,1.699 -0.017,1.612 0,0" />
      </g>
      <g
         transform="matrix(-0.31070598,-0.16707468,0.16707468,-0.31070598,178.22934,121.38666)"
         id="g7112">
        <path
           inkscape:connector-curvature="0"
           id="path7114"
           style="fill:#fffffd;fill-opacity:1;fill-rule:nonzero;stroke:none"
           d="m 0,0 c 1.233,-2.847 1.397,-5.089 1.388,-7.369 -0.006,-1.325 -0.138,-2.688 0.122,-3.965 0.263,-1.288 -0.76,-1.644 -1.342,-1.906 -1.012,-0.455 -0.896,0.766 -1.192,1.304 -0.825,1.492 -0.629,3.126 -0.403,4.69 C -1.112,-5.08 -0.592,-2.943 0,0" />
      </g>
      <g
         transform="matrix(-0.31070598,-0.16707468,0.16707468,-0.31070598,178.06985,125.4077)"
         id="g7116">
        <path
           inkscape:connector-curvature="0"
           id="path7118"
           style="fill:#fffffd;fill-opacity:1;fill-rule:nonzero;stroke:none"
           d="m 0,0 c 0.083,-2.781 0.134,-5.564 0.265,-8.344 0.059,-1.252 -0.223,-2.073 -1.677,-1.969 -0.307,0.519 -0.97,1.129 -0.865,1.546 1.137,4.552 0.19,9.076 -0.246,14.009 C -0.915,3.529 -0.317,1.832 0,0" />
      </g>
      <g
         transform="matrix(-0.31070598,-0.16707468,0.16707468,-0.31070598,181.64146,137.43227)"
         id="g7120">
        <path
           inkscape:connector-curvature="0"
           id="path7122"
           style="fill:#f3ca63;fill-opacity:1;fill-rule:nonzero;stroke:none"
           d="m 0,0 c 0.12,-6.609 0.534,-5.149 -4.986,-5.374 -0.976,-0.04 -1.954,-0.007 -2.932,-0.007 -0.315,0.518 -0.295,1.04 -0.023,1.568 C -5.046,-3.06 -2.957,-0.625 0,0" />
      </g>
      <g
         transform="matrix(-0.31070598,-0.16707468,0.16707468,-0.31070598,183.98541,153.13658)"
         id="g7124">
        <path
           inkscape:connector-curvature="0"
           id="path7126"
           style="fill:#f3ca63;fill-opacity:1;fill-rule:nonzero;stroke:none"
           d="m 0,0 c 0.155,-1.148 0.27,-2.305 0.473,-3.444 0.634,-3.569 0.647,-3.567 -2.913,-3.48 -1.118,1.998 -1.04,4.17 -0.898,6.343 0.054,0.831 0.465,1.306 1.383,1.07 C -1.511,-0.1 -0.873,0.18 -0.311,0.122 -0.235,0.01 -0.132,-0.031 0,0" />
      </g>
      <g
         transform="matrix(-0.31070598,-0.16707468,0.16707468,-0.31070598,184.60059,146.54113)"
         id="g7128">
        <path
           inkscape:connector-curvature="0"
           id="path7130"
           style="fill:#fffffd;fill-opacity:1;fill-rule:nonzero;stroke:none"
           d="m 0,0 c -0.068,-0.349 -0.259,-0.726 -0.186,-1.04 0.532,-2.274 -0.635,-2.92 -2.623,-2.829 -0.768,0.111 -1.536,0.223 -2.656,0.385 1.139,1.9 2.151,3.612 3.186,5.31 0.393,0.645 0.673,1.614 1.699,1.269 C 0.483,2.736 -0.165,1.749 -0.046,1.045 0.011,0.703 -0.013,0.349 0,0" />
      </g>
      <g
         transform="matrix(-0.31070598,-0.16707468,0.16707468,-0.31070598,183.81039,141.4376)"
         id="g7132">
        <path
           inkscape:connector-curvature="0"
           id="path7134"
           style="fill:#f3ca63;fill-opacity:1;fill-rule:nonzero;stroke:none"
           d="m 0,0 c 0.198,-2.29 0.021,-4.558 -0.421,-6.808 -1.587,-0.001 -3.174,-0.001 -4.76,-0.002 -0.178,0.12 -0.357,0.238 -0.536,0.356 1.269,2.376 3.603,3.956 4.773,6.405 C -0.63,-0.033 -0.314,-0.017 0,0" />
      </g>
      <g
         transform="matrix(-0.31070598,-0.16707468,0.16707468,-0.31070598,181.64146,137.43227)"
         id="g7136">
        <path
           inkscape:connector-curvature="0"
           id="path7138"
           style="fill:#fffffd;fill-opacity:1;fill-rule:nonzero;stroke:none"
           d="M 0,0 C -2.957,-0.625 -5.046,-3.06 -7.941,-3.813 -8.003,0.688 -7.013,1.726 0.163,0.527 0.108,0.352 0.055,0.176 0,0" />
      </g>
      <g
         transform="matrix(-0.31070598,-0.16707468,0.16707468,-0.31070598,169.71914,129.95972)"
         id="g7140">
        <path
           inkscape:connector-curvature="0"
           id="path7142"
           style="fill:#799254;fill-opacity:1;fill-rule:nonzero;stroke:none"
           d="M 0,0 C -0.911,1.156 -2.428,0.04 -3.589,1.031 -1.803,2.505 0.637,2.763 2.225,4.398 2.33,4.4 2.429,4.377 2.523,4.328 L 3.238,4.316 3.213,4.333 C 3.385,4.146 3.556,3.958 3.727,3.771 5.16,3.101 5.729,2.438 3.776,1.659 2.5,1.15 1.258,0.556 0,0" />
      </g>
      <g
         transform="matrix(-0.31070598,-0.16707468,0.16707468,-0.31070598,182.1947,157.03774)"
         id="g7144">
        <path
           inkscape:connector-curvature="0"
           id="path7146"
           style="fill:#f3ca63;fill-opacity:1;fill-rule:nonzero;stroke:none"
           d="m 0,0 c -0.392,0.951 -0.784,1.903 -1.188,2.887 2.63,0.545 3.984,-0.368 4.341,-2.899 0.183,-1.29 0.684,-2.534 1.041,-3.8 C 2.853,-3.585 2.309,-2.28 1.269,-1.646 1.012,-1.37 0.756,-1.097 0.5,-0.822 L 0.458,-0.618 -0.04,0.003 Z" />
      </g>
      <g
         transform="matrix(-0.31070598,-0.16707468,0.16707468,-0.31070598,184.09564,141.61053)"
         id="g7148">
        <path
           inkscape:connector-curvature="0"
           id="path7150"
           style="fill:#fffffd;fill-opacity:1;fill-rule:nonzero;stroke:none"
           d="m 0,0 c -1.17,-2.449 -3.504,-4.029 -4.772,-6.405 -1.143,1.838 -0.523,3.497 0.404,5.208 C -3.289,0.794 -1.618,0.205 0,0" />
      </g>
      <g
         transform="matrix(-0.31070598,-0.16707468,0.16707468,-0.31070598,177.57454,135.48359)"
         id="g7152">
        <path
           inkscape:connector-curvature="0"
           id="path7154"
           style="fill:#f3ca63;fill-opacity:1;fill-rule:nonzero;stroke:none"
           d="M 0,0 C -0.033,1.529 0.868,1.514 2.073,1.467 3.409,1.415 4.653,0.684 4.753,-0.238 4.91,-1.687 3.033,-1.177 2.216,-1.824 1.729,-1.957 1.242,-2.091 0.755,-2.224 0.521,-2.193 0.287,-2.162 0.053,-2.132 0.035,-1.421 0.018,-0.71 0,0" />
      </g>
      <g
         transform="matrix(-0.31070598,-0.16707468,0.16707468,-0.31070598,170.28044,120.11763)"
         id="g7156">
        <path
           inkscape:connector-curvature="0"
           id="path7158"
           style="fill:#fffffd;fill-opacity:1;fill-rule:nonzero;stroke:none"
           d="M 0,0 C -1.233,0.846 -2.711,0.624 -4.07,0.854 -5.241,1.05 -5.521,1.631 -5.482,2.628 -2.809,2.68 -0.324,1.758 2.379,1.313 1.756,0.21 0.852,0.157 0,0" />
      </g>
      <g
         transform="matrix(-0.31070598,-0.16707468,0.16707468,-0.31070598,180.78774,128.58128)"
         id="g7160">
        <path
           inkscape:connector-curvature="0"
           id="path7162"
           style="fill:#fffffd;fill-opacity:1;fill-rule:nonzero;stroke:none"
           d="M 0,0 C 1.594,-1.991 2.312,-4.263 2.188,-6.808 2.161,-7.348 2.178,-7.901 1.403,-7.892 0.635,-5.314 0.026,-2.709 0,0" />
      </g>
      <g
         transform="matrix(-0.31070598,-0.16707468,0.16707468,-0.31070598,172.82439,135.56923)"
         id="g7164">
        <path
           inkscape:connector-curvature="0"
           id="path7166"
           style="fill:#f3ca63;fill-opacity:1;fill-rule:nonzero;stroke:none"
           d="m 0,0 c -0.42,-0.132 -0.866,-0.213 -1.257,-0.405 -1.798,-0.884 -2.541,-0.317 -2.327,1.636 0.107,1.346 0.318,2.541 1.907,0.998 C -1.008,1.58 0.068,1.212 0,0" />
      </g>
      <g
         transform="matrix(-0.31070598,-0.16707468,0.16707468,-0.31070598,185.53754,150.94403)"
         id="g7168">
        <path
           inkscape:connector-curvature="0"
           id="path7170"
           style="fill:#fffffd;fill-opacity:1;fill-rule:nonzero;stroke:none"
           d="m 0,0 c 0.136,-1.32 0.287,-2.64 0.4,-3.962 0.064,-0.744 -0.222,-1.186 -1.073,-1.1 -0.806,0.081 -1.11,0.5 -0.895,1.254 0.359,1.265 0.758,2.518 1.14,3.776 z" />
      </g>
      <g
         transform="matrix(-0.31070598,-0.16707468,0.16707468,-0.31070598,177.57454,135.48359)"
         id="g7172">
        <path
           inkscape:connector-curvature="0"
           id="path7174"
           style="fill:#472d14;fill-opacity:1;fill-rule:nonzero;stroke:none"
           d="m 0,0 c 0.018,-0.71 0.035,-1.421 0.053,-2.132 -1.024,0.325 -1.447,-0.883 -2.331,-0.913 0.159,1.379 0.319,2.759 0.478,4.138 C -1.2,0.729 -0.6,0.364 0,0" />
      </g>
      <g
         transform="matrix(-0.31070598,-0.16707468,0.16707468,-0.31070598,180.18094,135.10145)"
         id="g7176">
        <path
           inkscape:connector-curvature="0"
           id="path7178"
           style="fill:#f3ca63;fill-opacity:1;fill-rule:nonzero;stroke:none"
           d="m 0,0 c -0.77,-0.159 -1.534,-0.396 -2.312,-0.452 -0.685,-0.05 -1.851,-0.727 -1.927,0.431 -0.06,0.903 1.191,0.834 1.934,0.831 C -1.542,0.806 -0.78,0.572 -0.019,0.44 -0.013,0.293 -0.006,0.146 0,0" />
      </g>
      <g
         transform="matrix(-0.31070598,-0.16707468,0.16707468,-0.31070598,176.96848,136.04835)"
         id="g7180">
        <path
           inkscape:connector-curvature="0"
           id="path7182"
           style="fill:#472d14;fill-opacity:1;fill-rule:nonzero;stroke:none"
           d="M 0,0 C 0.487,0.133 0.975,0.267 1.461,0.399 1.704,-0.497 2.829,-0.26 3.219,-0.968 2.23,-1.6 1.118,-1.843 -0.022,-1.992 -0.015,-1.328 -0.008,-0.664 0,0" />
      </g>
      <g
         transform="matrix(-0.31070598,-0.16707468,0.16707468,-0.31070598,184.94946,140.85704)"
         id="g7184">
        <path
           inkscape:connector-curvature="0"
           id="path7186"
           style="fill:#fffffd;fill-opacity:1;fill-rule:nonzero;stroke:none"
           d="M 0,0 C 0.464,0.245 0.942,0.466 1.388,0.742 1.73,0.955 2.031,1.237 2.561,1.653 2.845,-0.324 2.511,-1.297 0,0" />
      </g>
      <g
         transform="matrix(-0.31070598,-0.16707468,0.16707468,-0.31070598,184.10228,153.15052)"
         id="g7188">
        <path
           inkscape:connector-curvature="0"
           id="path7190"
           style="fill:#472d14;fill-opacity:1;fill-rule:nonzero;stroke:none"
           d="M 0,0 C -0.562,0.058 -1.2,-0.222 -1.645,0.367 -0.833,1.42 -0.296,1.253 0,0" />
      </g>
      <g
         transform="matrix(-0.31070598,-0.16707468,0.16707468,-0.31070598,179.49087,157.3268)"
         id="g7192">
        <path
           inkscape:connector-curvature="0"
           id="path7194"
           style="fill:#472d14;fill-opacity:1;fill-rule:nonzero;stroke:none"
           d="m 0,0 c -0.649,0.364 -0.518,1 -0.549,1.579 -0.001,0 0.184,0.149 0.184,0.149 C 0.084,1.255 0.053,0.652 0.082,0.067 Z" />
      </g>
      <g
         transform="matrix(-0.31070598,-0.16707468,0.16707468,-0.31070598,183.57859,140.33309)"
         id="g7196">
        <path
           inkscape:connector-curvature="0"
           id="path7198"
           style="fill:#472d14;fill-opacity:1;fill-rule:nonzero;stroke:none"
           d="M 0,0 C 0.039,-0.071 0.111,-0.146 0.105,-0.215 0.1,-0.281 0.014,-0.341 -0.036,-0.403 -0.024,-0.269 -0.013,-0.134 0,0" />
      </g>
      <g
         transform="matrix(-0.31070598,-0.16707468,0.16707468,-0.31070598,171.10584,135.47361)"
         id="g7200">
        <path
           inkscape:connector-curvature="0"
           id="path7202"
           style="fill:#799254;fill-opacity:1;fill-rule:nonzero;stroke:none"
           d="M 0,0 -0.135,0.354 C -0.021,0.307 0.094,0.258 0.208,0.21 0.143,0.138 0.072,0.067 0,0" />
      </g>
      <g
         transform="matrix(-0.31070598,-0.16707468,0.16707468,-0.31070598,182.20763,157.0435)"
         id="g7204">
        <path
           inkscape:connector-curvature="0"
           id="path7206"
           style="fill:#472d14;fill-opacity:1;fill-rule:nonzero;stroke:none"
           d="M 0,0 0.498,-0.621 Z" />
      </g>
      <g
         transform="matrix(-0.31070598,-0.16707468,0.16707468,-0.31070598,181.90198,157.20967)"
         id="g7208">
        <path
           inkscape:connector-curvature="0"
           id="path7210"
           style="fill:#472d14;fill-opacity:1;fill-rule:nonzero;stroke:none"
           d="M 0,0 C 0.256,-0.274 0.512,-0.548 0.769,-0.823 0.334,-0.716 0.088,-0.432 0,0" />
      </g>
      <g
         transform="matrix(-0.31070598,-0.16707468,0.16707468,-0.31070598,169.19125,128.1656)"
         id="g7212">
        <path
           inkscape:connector-curvature="0"
           id="path7214"
           style="fill:#8faa68;fill-opacity:1;fill-rule:nonzero;stroke:none"
           d="M 0,0 C -0.171,0.187 -0.342,0.375 -0.514,0.562 -0.342,0.375 -0.171,0.187 0,0" />
      </g>
      <g
         transform="matrix(-0.31070598,-0.16707468,0.16707468,-0.31070598,169.43414,128.07755)"
         id="g7216">
        <path
           inkscape:connector-curvature="0"
           id="path7218"
           style="fill:#8faa68;fill-opacity:1;fill-rule:nonzero;stroke:none"
           d="M 0,0 -0.715,0.012 C -0.472,0.349 -0.232,0.392 0,0" />
      </g>
      <g
         transform="matrix(-0.31070598,-0.16707468,0.16707468,-0.31070598,177.31476,148.63779)"
         id="g7220">
        <path
           inkscape:connector-curvature="0"
           id="path7222"
           style="fill:#f3ca63;fill-opacity:1;fill-rule:nonzero;stroke:none"
           d="M 0,0 C -1.677,-0.493 -2.34,0.373 -2.71,2.247 -4.056,9.068 -4.125,9.024 2.844,9.206 4.819,9.257 5.905,8.909 6.295,6.522 7.255,0.638 7.433,0.664 1.593,0.006 1.154,-0.043 0.705,0 0,0" />
      </g>
      <g
         transform="matrix(-0.31070598,-0.16707468,0.16707468,-0.31070598,173.6663,150.30315)"
         id="g7224">
        <path
           inkscape:connector-curvature="0"
           id="path7226"
           style="fill:#f3ca63;fill-opacity:1;fill-rule:nonzero;stroke:none"
           d="m 0,0 c -0.445,-0.032 -0.891,-0.091 -1.336,-0.091 -1.597,0 -3.604,-1.237 -4.651,-0.217 -1.479,1.441 -1.539,3.895 -2.197,5.919 -0.325,1 0.12,1.243 1.011,1.314 1.956,0.153 3.972,0.133 5.846,0.628 C 0.905,8.143 1.521,7.139 1.792,5.288 1.895,4.588 2.161,3.912 2.357,3.227 3.26,0.066 3.261,0.066 0,0" />
      </g>
      <g
         transform="matrix(-0.31070598,-0.16707468,0.16707468,-0.31070598,174.06452,146.49423)"
         id="g7228">
        <path
           inkscape:connector-curvature="0"
           id="path7230"
           style="fill:#f3ca63;fill-opacity:1;fill-rule:nonzero;stroke:none"
           d="M 0,0 C -2.882,1.729 -2.183,4.75 -2.813,7.057 -3.319,8.908 -0.909,10.62 3.553,9.954 6.623,9.496 5.937,5.337 5.938,3.099 5.941,-0.454 1.966,1.831 0,0" />
      </g>
      <g
         transform="matrix(-0.31070598,-0.16707468,0.16707468,-0.31070598,179.87235,150.22981)"
         id="g7232">
        <path
           inkscape:connector-curvature="0"
           id="path7234"
           style="fill:#f3ca63;fill-opacity:1;fill-rule:nonzero;stroke:none"
           d="M 0,0 C -2.983,-0.743 -3.721,0.729 -4.056,3.448 -4.78,9.338 -4.678,9.592 1.148,9.167 2.021,9.104 2.707,9.082 2.709,7.923 2.715,5.355 4.69,2.872 3.312,0.348 3.01,-0.206 1.145,0.093 0,0" />
      </g>
      <g
         transform="matrix(-0.31070598,-0.16707468,0.16707468,-0.31070598,178.55898,142.64896)"
         id="g7236">
        <path
           inkscape:connector-curvature="0"
           id="path7238"
           style="fill:#f3ca63;fill-opacity:1;fill-rule:nonzero;stroke:none"
           d="M 0,0 C 0.026,-0.373 0.053,-0.745 0.079,-1.117 0.01,-1.912 -0.004,-2.698 0.434,-3.414 0.469,-4.272 0.368,-5.01 -0.744,-5.089 c -0.971,-0.069 -1.949,-0.358 -2.902,-0.28 -1.807,0.147 -4.42,-1.393 -5.193,0.114 -0.938,1.829 -0.9,4.463 -0.062,6.722 2.219,0.077 4.454,0.025 6.654,0.276 C -0.736,1.916 -0.073,1.455 0,0" />
      </g>
      <g
         transform="matrix(-0.31070598,-0.16707468,0.16707468,-0.31070598,171.56755,144.24327)"
         id="g7240">
        <path
           inkscape:connector-curvature="0"
           id="path7242"
           style="fill:#f3ca63;fill-opacity:1;fill-rule:nonzero;stroke:none"
           d="m 0,0 c -0.544,-0.173 -0.816,0.31 -0.951,1.016 -0.2,1.05 -0.426,2.096 -0.64,3.145 -0.963,4.738 -0.484,5.347 4.338,5.961 1.095,0.14 1.385,-0.339 1.664,-1.2 C 5.018,7.06 5.69,5.219 6.365,3.38 6.618,2.689 7.011,1.97 5.963,1.657 4.086,1.097 2.188,0.604 0,0" />
      </g>
      <g
         transform="matrix(-0.31070598,-0.16707468,0.16707468,-0.31070598,172.62544,153.43325)"
         id="g7244">
        <path
           inkscape:connector-curvature="0"
           id="path7246"
           style="fill:#f3ca63;fill-opacity:1;fill-rule:nonzero;stroke:none"
           d="M 0,0 C -1.741,-0.209 -1.687,1.447 -2.146,2.45 -4.032,6.58 -3.994,6.598 0.558,6.99 0.823,7.014 1.091,7.021 1.356,7.053 5.488,7.537 6.781,6.523 7.504,2.349 7.639,1.567 7.532,1.188 6.689,1.09 5.987,1.007 5.305,0.766 4.604,0.656 3.11,0.422 1.611,0.228 0,0" />
      </g>
      <g
         transform="matrix(-0.31070598,-0.16707468,0.16707468,-0.31070598,179.12732,150.63184)"
         id="g7248">
        <path
           inkscape:connector-curvature="0"
           id="path7250"
           style="fill:#f3ca63;fill-opacity:1;fill-rule:nonzero;stroke:none"
           d="M 0,0 C 1.004,-0.347 2.674,0.96 3.315,-0.239 4.343,-2.161 4.835,-4.392 5.394,-6.533 5.627,-7.425 4.677,-7.397 4.111,-7.427 2.248,-7.525 0.382,-7.543 -1.482,-7.613 -2.312,-7.644 -2.824,-7.36 -2.973,-6.478 -3.09,-5.78 -3.335,-5.105 -3.492,-4.414 -4.471,-0.116 -4.468,-0.115 0,0" />
      </g>
      <g
         transform="matrix(-0.31070598,-0.16707468,0.16707468,-0.31070598,171.82811,148.89069)"
         id="g7252">
        <path
           inkscape:connector-curvature="0"
           id="path7254"
           style="fill:#f3ca63;fill-opacity:1;fill-rule:nonzero;stroke:none"
           d="M 0,0 C -1.223,0.052 -3.675,4.356 -2.913,6.091 -1.748,8.74 1.562,7.414 3.776,8.378 4.4,8.649 7.073,3.293 6.407,2.303 4.87,0.016 1.9,0.99 0,0" />
      </g>
      <g
         transform="matrix(-0.31070598,-0.16707468,0.16707468,-0.31070598,176.21423,155.74952)"
         id="g7256">
        <path
           inkscape:connector-curvature="0"
           id="path7258"
           style="fill:#f3ca63;fill-opacity:1;fill-rule:nonzero;stroke:none"
           d="M 0,0 C -0.024,0.086 -0.043,0.174 -0.073,0.257 -0.839,2.325 -2.743,4.766 -1.881,6.405 -1.068,7.95 2.042,6.724 4.075,7.242 5.818,7.687 6.343,6.678 6.879,5.284 8.678,0.601 8.725,0.615 3.715,0.248 2.474,0.157 1.229,0.093 -0.013,0.017 -0.014,0.016 0,0 0,0" />
      </g>
      <g
         transform="matrix(-0.31070598,-0.16707468,0.16707468,-0.31070598,178.35792,141.77532)"
         id="g7260">
        <path
           inkscape:connector-curvature="0"
           id="path7262"
           style="fill:#f3ca63;fill-opacity:1;fill-rule:nonzero;stroke:none"
           d="M 0,0 C 1.044,0.587 2.214,0.637 3.359,0.823 8.168,1.604 8.101,1.607 8.688,-3.189 8.853,-4.524 8.642,-5.015 7.271,-5.381 1.388,-6.953 1.403,-7.011 0.013,-0.274 0.094,-0.179 0.09,-0.087 0,0" />
      </g>
      <g
         transform="matrix(-0.31070598,-0.16707468,0.16707468,-0.31070598,179.47663,157.29214)"
         id="g7264">
        <path
           inkscape:connector-curvature="0"
           id="path7266"
           style="fill:#f3ca63;fill-opacity:1;fill-rule:nonzero;stroke:none"
           d="M 0,0 C -0.029,0.585 0.002,1.187 -0.447,1.66 -1.616,6.868 -1.621,6.723 3.739,6.553 5.81,6.487 5.902,5.181 6.345,3.917 8.037,-0.912 8.027,-0.92 2.888,-0.389 1.922,-0.288 0.962,-0.131 0,0" />
      </g>
      <g
         transform="matrix(-0.31070598,-0.16707468,0.16707468,-0.31070598,178.76995,140.99671)"
         id="g7268">
        <path
           inkscape:connector-curvature="0"
           id="path7270"
           style="fill:#f3ca63;fill-opacity:1;fill-rule:nonzero;stroke:none"
           d="M 0,0 C -0.476,5.456 -0.474,5.447 4.766,6.329 5.638,6.477 6.492,6.733 7.354,6.939 7.563,6.908 7.771,6.877 7.98,6.846 8.159,-0.03 8.799,1.75 2.897,0.425 1.948,0.212 0.967,0.139 0,0" />
      </g>
      <g
         transform="matrix(-0.31070598,-0.16707468,0.16707468,-0.31070598,173.99335,157.21869)"
         id="g7272">
        <path
           inkscape:connector-curvature="0"
           id="path7274"
           style="fill:#f3ca63;fill-opacity:1;fill-rule:nonzero;stroke:none"
           d="m 0,0 c -0.206,0.164 -0.484,0.285 -0.605,0.497 -0.7,1.227 -2.073,2.64 -1.567,3.785 0.494,1.12 2.429,0.391 3.719,0.575 0.88,0.125 1.819,-0.052 2.665,0.167 2.85,0.739 2.759,-1.9 3.671,-3.24 C 8.36,1.082 7.274,0.909 6.747,0.735 4.954,0.146 3.099,-0.084 1.214,-0.071 0.81,-0.047 0.405,-0.023 0,0" />
      </g>
      <g
         transform="matrix(-0.31070598,-0.16707468,0.16707468,-0.31070598,174.96292,140.20793)"
         id="g7276">
        <path
           inkscape:connector-curvature="0"
           id="path7278"
           style="fill:#f3ca63;fill-opacity:1;fill-rule:nonzero;stroke:none"
           d="M 0,0 C -0.153,2.774 1.803,4.774 4.928,4.141 7.12,3.697 6.146,0.802 6.227,-0.818 6.376,-3.799 3.204,-3.161 1.618,-3.344 -0.963,-3.643 0.642,-0.98 0,0" />
      </g>
      <g
         transform="matrix(-0.31070598,-0.16707468,0.16707468,-0.31070598,171.57167,136.10506)"
         id="g7280">
        <path
           inkscape:connector-curvature="0"
           id="path7282"
           style="fill:#f3ca63;fill-opacity:1;fill-rule:nonzero;stroke:none"
           d="m 0,0 c 1.377,-4.399 0.097,-6.345 -4.473,-6.786 -0.243,-0.024 -0.658,-0.086 -0.711,0.016 -0.847,1.632 -0.657,3.434 -0.8,5.185 -0.098,1.196 0.725,1.542 1.63,1.685 1.447,0.229 2.959,2.214 4.352,-0.096 z" />
      </g>
      <g
         transform="matrix(-0.31070598,-0.16707468,0.16707468,-0.31070598,168.96081,142.81104)"
         id="g7284">
        <path
           inkscape:connector-curvature="0"
           id="path7286"
           style="fill:#f3ca63;fill-opacity:1;fill-rule:nonzero;stroke:none"
           d="m 0,0 c -1.599,-2.947 -2.946,-5.416 -4.276,-7.893 -0.378,-0.703 -0.997,-1.051 -1.729,-1.064 -0.85,-0.015 -0.805,0.848 -1.011,1.361 -2.028,5.06 -2.015,5.065 3.207,6.534 C -2.72,-0.757 -1.63,-0.454 0,0" />
      </g>
      <g
         transform="matrix(-0.31070598,-0.16707468,0.16707468,-0.31070598,170.04698,138.09959)"
         id="g7288">
        <path
           inkscape:connector-curvature="0"
           id="path7290"
           style="fill:#f3ca63;fill-opacity:1;fill-rule:nonzero;stroke:none"
           d="m 0,0 c 0.174,-3.866 -1.124,-7.125 -2.539,-10.724 -1.94,2.39 -2.436,5.08 -3.296,7.602 -0.273,0.799 0.238,1.114 0.877,1.342 C -3.387,-1.221 -1.817,-0.653 0,0" />
      </g>
      <g
         transform="matrix(-0.31070598,-0.16707468,0.16707468,-0.31070598,169.1588,148.10153)"
         id="g7292">
        <path
           inkscape:connector-curvature="0"
           id="path7294"
           style="fill:#f3ca63;fill-opacity:1;fill-rule:nonzero;stroke:none"
           d="m 0,0 c 0.023,-0.835 -3.915,-6.218 -4.768,-6.568 -0.603,-0.249 -1.038,-0.128 -1.282,0.472 -0.632,1.553 -1.239,3.117 -1.861,4.674 -0.304,0.759 0.248,0.933 0.762,1.053 1.976,0.46 3.96,0.893 5.943,1.323 C -0.438,1.12 -0.029,0.788 0,0" />
      </g>
      <g
         transform="matrix(-0.31070598,-0.16707468,0.16707468,-0.31070598,178.35792,141.77532)"
         id="g7296">
        <path
           inkscape:connector-curvature="0"
           id="path7298"
           style="fill:#452f1f;fill-opacity:1;fill-rule:nonzero;stroke:none"
           d="m 0,0 c 0.09,-0.087 0.094,-0.179 0.013,-0.274 -1.201,0.112 -1.056,-1.163 -1.688,-1.637 -0.073,1.455 -0.736,1.916 -2.247,1.743 -2.2,-0.251 -4.434,-0.199 -6.654,-0.276 h -4.346 c 0.666,0.798 1.045,1.25 1.423,1.702 2.092,-0.306 4.176,-0.701 6.278,-0.891 1.659,-0.149 3.671,-0.963 4.427,1.57 0,-0.001 0.135,0.081 0.135,0.081 l 0.145,-0.059 c 0.793,0.127 1.585,0.255 2.378,0.383 C -0.091,1.562 -0.045,0.78 0,0" />
      </g>
      <g
         transform="matrix(-0.31070598,-0.16707468,0.16707468,-0.31070598,176.22009,156.65662)"
         id="g7300">
        <path
           inkscape:connector-curvature="0"
           id="path7302"
           style="fill:#f3ca63;fill-opacity:1;fill-rule:nonzero;stroke:none"
           d="m 0,0 c 0.459,-1.149 0.917,-2.298 1.482,-3.717 -2.766,0.554 -4.825,2.155 -7.56,3.31 1.938,0.943 3.557,0.329 5.047,0.683 C -0.687,0.184 -0.344,0.092 0,0" />
      </g>
      <g
         transform="matrix(-0.31070598,-0.16707468,0.16707468,-0.31070598,170.40545,153.0007)"
         id="g7304">
        <path
           inkscape:connector-curvature="0"
           id="path7306"
           style="fill:#f3ca63;fill-opacity:1;fill-rule:nonzero;stroke:none"
           d="m 0,0 c -0.705,-1.472 -1.882,-2.192 -3.07,-2.948 -0.733,-0.466 -1.365,-0.44 -1.919,0.09 -0.57,0.543 -0.795,1.388 -0.638,2.088 0.159,0.703 0.951,0.716 1.581,0.535 C -2.71,-0.62 -1.583,0.921 0,0" />
      </g>
      <g
         transform="matrix(-0.31070598,-0.16707468,0.16707468,-0.31070598,173.99335,157.21869)"
         id="g7308">
        <path
           inkscape:connector-curvature="0"
           id="path7310"
           style="fill:#8faa68;fill-opacity:1;fill-rule:nonzero;stroke:none"
           d="M 0,0 C 0.405,-0.023 0.81,-0.047 1.214,-0.071 0.929,-1.047 2.004,-1.385 2.183,-2.143 0.457,-3.034 -1.243,-3.698 -2.645,-1.616 -2.242,-0.295 -0.812,-0.654 0,0" />
      </g>
      <g
         transform="matrix(-0.31070598,-0.16707468,0.16707468,-0.31070598,177.4341,137.53637)"
         id="g7312">
        <path
           inkscape:connector-curvature="0"
           id="path7314"
           style="fill:#452f1f;fill-opacity:1;fill-rule:nonzero;stroke:none"
           d="m 0,0 c -0.209,0.031 -0.417,0.062 -0.626,0.094 -0.814,0.964 0.089,1.464 0.563,2.079 0,0 0.191,0.096 0.19,0.096 0.885,0.03 1.308,1.238 2.331,0.913 C 2.692,3.151 2.926,3.12 3.16,3.09 3.152,2.426 3.146,1.762 3.138,1.098 2.825,0.896 2.513,0.696 2.2,0.495 Z" />
      </g>
      <g
         transform="matrix(-0.31070598,-0.16707468,0.16707468,-0.31070598,176.22009,156.65662)"
         id="g7316">
        <path
           inkscape:connector-curvature="0"
           id="path7318"
           style="fill:#452f1f;fill-opacity:1;fill-rule:nonzero;stroke:none"
           d="m 0,0 c -0.344,0.092 -0.687,0.184 -1.031,0.276 -0.271,1.831 0.949,1.96 2.263,1.981 0,0 -0.013,0.015 -0.012,0.016 C 1.115,1.354 1.062,0.406 0,0" />
      </g>
      <g
         transform="matrix(-0.31070598,-0.16707468,0.16707468,-0.31070598,183.33204,147.37046)"
         id="g7320">
        <path
           inkscape:connector-curvature="0"
           id="path7322"
           style="fill:#452f1f;fill-opacity:1;fill-rule:nonzero;stroke:none"
           d="M 0,0 C 0.103,-0.095 0.129,-0.208 0.078,-0.338 -0.101,-0.884 -0.141,-1.739 -1.031,-1.216 -1.698,-0.822 -1.904,0.042 -1.396,0.59 -0.705,1.333 -0.54,0.062 0,0" />
      </g>
      <g
         transform="matrix(-0.31070598,-0.16707468,0.16707468,-0.31070598,177.85386,143.63726)"
         id="g7324">
        <path
           inkscape:connector-curvature="0"
           id="path7326"
           style="fill:#452f1f;fill-opacity:1;fill-rule:nonzero;stroke:none"
           d="M 0,0 C -0.437,0.716 -0.424,1.502 -0.354,2.297 0.29,1.612 0.001,0.784 0,0" />
      </g>
      <g
         transform="matrix(-0.31070598,-0.16707468,0.16707468,-0.31070598,182.81799,153.85558)"
         id="g7328">
        <path
           inkscape:connector-curvature="0"
           id="path7330"
           style="fill:#452f1f;fill-opacity:1;fill-rule:nonzero;stroke:none"
           d="m 0,0 c -0.142,-0.076 -0.312,-0.168 -0.483,-0.261 -0.042,0.242 -0.123,0.486 -0.114,0.725 0.006,0.139 0.159,0.271 0.244,0.407 C -0.262,0.646 -0.171,0.422 0,0" />
      </g>
      <g
         transform="matrix(-0.31070598,-0.16707468,0.16707468,-0.31070598,172.59217,135.80109)"
         id="g7332">
        <path
           inkscape:connector-curvature="0"
           id="path7334"
           style="fill:#452f1f;fill-opacity:1;fill-rule:nonzero;stroke:none"
           d="m 0,0 c -0.045,-0.07 -0.089,-0.141 -0.133,-0.211 0.036,0.078 0.072,0.156 0.109,0.235 z" />
      </g>
      <g
         transform="matrix(-0.31070598,-0.16707468,0.16707468,-0.31070598,179.46622,141.58665)"
         id="g7336">
        <path
           inkscape:connector-curvature="0"
           id="path7338"
           style="fill:#f3ca63;fill-opacity:1;fill-rule:nonzero;stroke:none"
           d="m 0,0 -0.146,0.059 c 0,0 -0.134,-0.082 -0.134,-0.081 -2.121,-0.119 -4.252,-0.146 -6.359,-0.382 -1.546,-0.174 -1.988,0.324 -1.971,1.858 0.047,4.337 -0.015,4.338 4.214,4.344 C 0.645,5.805 0.647,5.805 0.24,0.755 0.219,0.498 0.083,0.251 0,0" />
      </g>
    </g>
  </g>
</svg>
