<?xml version="1.0" encoding="UTF-8" standalone="no"?>
<!-- Created with Inkscape (http://www.inkscape.org/) -->

<svg
   xmlns:dc="http://purl.org/dc/elements/1.1/"
   xmlns:cc="http://creativecommons.org/ns#"
   xmlns:rdf="http://www.w3.org/1999/02/22-rdf-syntax-ns#"
   xmlns:svg="http://www.w3.org/2000/svg"
   xmlns="http://www.w3.org/2000/svg"
   xmlns:sodipodi="http://sodipodi.sourceforge.net/DTD/sodipodi-0.dtd"
   xmlns:inkscape="http://www.inkscape.org/namespaces/inkscape"
   width="210mm"
   height="297mm"
   viewBox="0 0 210 297"
   version="1.1"
   id="svg8416"
   inkscape:version="0.92.4 (5da689c313, 2019-01-14)"
   sodipodi:docname="fwuit2.svg">
  <defs
     id="defs8410">
    <inkscape:path-effect
       effect="spiro"
       id="path-effect9967"
       is_visible="true" />
    <clipPath
       clipPathUnits="userSpaceOnUse"
       id="clipPath20">
      <path
         d="M 0,612 H 792 V 0 H 0 Z"
         id="path18"
         inkscape:connector-curvature="0" />
    </clipPath>
    <clipPath
       clipPathUnits="userSpaceOnUse"
       id="clipPath28">
      <path
         d="m 677.278,559.106 h 64.691 v -64.202 h -64.691 z"
         id="path26"
         inkscape:connector-curvature="0" />
    </clipPath>
    <clipPath
       clipPathUnits="userSpaceOnUse"
       id="clipPath160">
      <path
         d="m 549.234,547.03 h 59.057 v -51.677 h -59.057 z"
         id="path158"
         inkscape:connector-curvature="0" />
    </clipPath>
    <clipPath
       clipPathUnits="userSpaceOnUse"
       id="clipPath234">
      <path
         d="M 486.063,555.081 H 545.59 V 490.296 H 486.063 Z"
         id="path232"
         inkscape:connector-curvature="0" />
    </clipPath>
    <clipPath
       clipPathUnits="userSpaceOnUse"
       id="clipPath346">
      <path
         d="m 411.925,558.562 h 71.464 V 491.37 h -71.464 z"
         id="path344"
         inkscape:connector-curvature="0" />
    </clipPath>
    <clipPath
       clipPathUnits="userSpaceOnUse"
       id="clipPath394">
      <path
         d="m 613.571,549.059 h 59.051 v -52.871 h -59.051 z"
         id="path392"
         inkscape:connector-curvature="0" />
    </clipPath>
    <inkscape:path-effect
       effect="spiro"
       id="path-effect9967-3"
       is_visible="true" />
  </defs>
  <sodipodi:namedview
     id="base"
     pagecolor="#ffffff"
     bordercolor="#666666"
     borderopacity="1.0"
     inkscape:pageopacity="0.0"
     inkscape:pageshadow="2"
     inkscape:zoom="3.8335859"
     inkscape:cx="260.90635"
     inkscape:cy="625.21832"
     inkscape:document-units="mm"
     inkscape:current-layer="layer2"
     showgrid="false"
     inkscape:window-width="1680"
     inkscape:window-height="1022"
     inkscape:window-x="0"
     inkscape:window-y="0"
     inkscape:window-maximized="1"
     inkscape:snap-global="false" />
  <metadata
     id="metadata8413">
    <rdf:RDF>
      <cc:Work
         rdf:about="">
        <dc:format>image/svg+xml</dc:format>
        <dc:type
           rdf:resource="http://purl.org/dc/dcmitype/StillImage" />
        <dc:title></dc:title>
      </cc:Work>
    </rdf:RDF>
  </metadata>
  <g
     inkscape:label="Layer 1"
     inkscape:groupmode="layer"
     id="layer1"
     style="display:none"
     sodipodi:insensitive="true">
    <g
       id="g22"
       transform="matrix(0.35277777,0,0,-0.35277777,-175.96666,321.12835)">
      <g
         id="g24" />
      <g
         id="g152">
        <g
           clip-path="url(#clipPath28)"
           id="g150">
          <g
             transform="translate(725.4434,544.4092)"
             id="g32">
            <path
               d="M 0,0 C 0.443,0.675 0.518,1.193 0.043,1.9 -1.055,3.568 -2.681,4.855 -4.538,5.668 -6.48,6.523 -8.676,6.84 -10.766,6.502 -11.04,6.46 -11.314,6.407 -11.589,6.333 -11.864,6.27 -12.128,6.196 -12.392,6.101 V 6.09 c 0.032,-0.084 0.064,-0.148 0.106,-0.211 0.042,-0.052 0.085,-0.095 0.138,-0.127 0,0 0,0.011 0.009,0 0.054,-0.031 0.107,-0.052 0.16,-0.063 0.147,-0.042 0.336,-0.021 0.516,0.011 3.969,0.601 7.178,-1.626 8.181,-5.521 0.136,-0.517 -0.476,-1.625 0.749,-1.594 C -1.478,-1.394 -0.622,-0.929 0,0 m -0.274,-4.919 c 0.95,1.035 3.145,1.309 2.058,3.61 -5.837,-3.357 -13.173,-4.454 -17.216,-11.178 2.998,-0.401 5.236,0.802 7.474,1.837 2.955,1.361 5.499,3.335 7.684,5.731 m 5.552,-11.98 c 3.335,2.597 4.053,5.51 2.111,8.011 -0.95,1.235 -2.058,2.323 -3.335,3.251 -1.784,1.299 -2.618,0.623 -3.146,-1.203 5.89,-1.309 4.191,-5.964 4.37,-10.059 m 5.826,15.833 C 8.646,-0.222 6.703,-0.813 4.792,-1.446 4.085,-1.678 3.452,-2.27 3.694,-2.977 3.969,-3.79 4.771,-3.715 5.468,-3.293 c 1.604,0.981 3.43,1.446 5.636,2.227 m 3.853,1.942 c 0.813,-0.243 1.868,-0.264 1.488,-1.562 -0.263,-0.887 -0.179,-1.932 -1.741,-1.963 -2.829,-0.053 -5.562,-0.76 -8.064,-2.196 0.179,-0.982 1.045,-1.351 1.583,-1.984 0.813,-0.961 1.889,-1.963 1.837,-3.188 -0.159,-3.336 1.741,-5.89 2.892,-8.719 0.844,-2.079 0.696,-6.396 0.58,-6.438 -0.665,0.696 -0.749,1.52 -0.844,2.48 -0.169,1.9 -0.211,3.969 -2.048,5.257 -1.035,1.499 -2.027,1.382 -3.039,-0.032 -0.371,-0.496 -0.792,-0.95 -1.194,-1.425 -0.96,-0.253 -1.435,-1.879 -2.807,-0.971 -1.362,0.897 -0.591,1.995 -0.433,3.135 0.211,1.583 0.105,6.164 -0.253,6.808 -0.739,1.351 -3.198,2.111 -3.959,1.224 -0.834,-0.126 -1.319,-0.802 -1.941,-1.245 -3.705,-2.607 -7.706,-4.475 -12.287,-4.761 -2.438,-0.148 -2.945,0.729 -1.932,2.945 1.225,2.671 3.399,4.402 5.722,6.038 0.126,0.084 0.253,0.179 0.39,0.253 0.095,0.053 0.19,0.116 0.295,0.18 1.436,0.833 3.769,1.921 4.95,2.607 0.212,0.074 0.412,0.19 0.571,0.38 0.052,0.042 0.094,0.084 0.127,0.127 -5.69,7.283 -13.279,8.824 -20.721,4.211 -3.747,-2.311 -6.322,-5.626 -7.885,-9.679 -1.488,-3.874 -2.733,-7.843 -4.105,-11.759 -2.027,-5.773 -4.645,-11.294 -7.22,-16.846 -1.056,-2.269 -1.953,-4.623 -0.116,-6.987 -0.106,-0.866 0.654,-1.309 0.96,-1.985 -0.116,-0.76 -0.633,-1.024 -1.34,-1.055 -2.956,2.944 -3.24,6.512 -1.563,9.974 4.445,9.194 7.843,18.768 11.285,28.342 3.134,8.729 9.193,14.027 18.84,14.481 0.233,0.011 0.507,-0.032 0.686,0.084 C -11.41,9.954 -4.38,9.025 0.19,4.412 2.017,2.565 2.144,2.522 3.02,4.982 3.979,7.705 4.677,10.523 5.51,13.289 5.827,14.345 6.207,15.4 7.505,14.081 7.61,12.708 6.439,11.537 6.861,9.51 7.526,11.157 7.97,12.276 8.413,13.384 9.774,13.605 10.472,13.205 9.807,11.758 8.233,8.339 7.621,4.581 5.731,0.981 8.962,1.393 11.98,1.752 14.957,0.876"
               style="fill:#412c1a;fill-opacity:1;fill-rule:nonzero;stroke:none"
               id="path30"
               inkscape:connector-curvature="0" />
          </g>
          <g
             transform="translate(738.9756,519.2349)"
             id="g36">
            <path
               d="m 0,0 c 0.063,-1.15 -0.422,-2.174 -0.981,-3.104 -4.392,-7.293 -10.376,-12.771 -18.957,-14.154 -9.004,-1.435 -17.734,-3.737 -26.431,-6.365 -4.339,-1.309 -8.666,-0.897 -12.445,2.027 -0.095,0.158 -0.201,0.327 -0.295,0.496 0.707,0.032 1.224,0.295 1.339,1.056 2.197,-1.573 4.614,-2.344 7.336,-1.996 0.55,-0.031 1.109,-0.179 1.626,-0.063 0.602,0.127 1.256,0.274 1.974,0.443 6.429,1.468 16.963,4.318 22.335,5.764 0.021,0 0.032,0.01 0.053,0.01 9.425,0.538 16.265,5.299 21.29,13.057 1.657,2.565 1.837,5.257 0.981,8.096 C -2.417,6.09 -2.649,6.914 -2.893,7.737 -1.056,6.449 -1.014,4.38 -0.845,2.48 -0.749,1.52 -0.665,0.697 0,0"
               style="fill:#552015;fill-opacity:1;fill-rule:nonzero;stroke:none"
               id="path34"
               inkscape:connector-curvature="0" />
          </g>
          <g
             transform="translate(714.5293,503.3491)"
             id="g40">
            <path
               d="m 0,0 c -0.021,0 -0.031,-0.011 -0.053,-0.011 -1.224,-0.179 -15.273,-4.095 -22.335,-5.763 -0.717,-0.169 -1.372,-0.316 -1.973,-0.443 -0.518,-0.116 -1.076,0.031 -1.626,0.063 0.179,1.098 1.088,1.13 1.9,1.372 1.837,0.539 3.652,1.161 5.499,1.689 0.592,0.18 7.432,2.006 10.281,2.28 0.032,0 0.095,0.011 0.201,0.032 1.457,0.232 9.151,1.731 9.785,1.868 0.2,0.042 0.39,0.084 0.58,0.148 h 0.032 c 0.031,0.011 0.053,0.011 0.084,0.032 0.211,0.052 0.423,0.116 0.634,0.19 0.02,0.01 0.053,0.021 0.084,0.031 0.19,0.064 0.38,0.137 0.57,0.222 0.18,0.063 0.358,0.148 0.538,0.232 0.191,0.074 0.369,0.169 0.549,0.264 0.211,0.106 0.412,0.222 0.612,0.338 0.18,0.095 0.36,0.211 0.538,0.327 0.117,0.064 0.233,0.137 0.349,0.222 0.232,0.147 0.465,0.306 0.687,0.464 0.22,0.158 0.442,0.317 0.664,0.485 0.296,0.222 0.581,0.444 0.866,0.666 0.369,0.285 0.728,0.58 1.097,0.865 0.306,0.243 0.602,0.486 0.908,0.718 0.159,0.126 0.327,0.253 0.496,0.38 0.623,0.485 1.266,0.939 1.931,1.362 0.075,0.042 0.191,0.19 0.338,0.401 1.067,1.467 3.769,6.312 3.885,6.544 1.89,2.607 1.963,5.446 0.2,7.188 0.402,0.475 0.824,0.929 1.194,1.425 1.012,1.414 2.005,1.531 3.039,0.032 0.243,-0.824 0.475,-1.647 0.717,-2.47 0.856,-2.84 0.676,-5.531 -0.981,-8.096 C 16.266,5.299 9.426,0.538 0,0"
               style="fill:#ec5c5a;fill-opacity:1;fill-rule:nonzero;stroke:none"
               id="path38"
               inkscape:connector-curvature="0" />
          </g>
          <g
             transform="translate(730.2354,542.9629)"
             id="g44">
            <path
               d="M 0,0 C 1.911,0.633 3.854,1.225 6.312,0.38 4.106,-0.401 2.28,-0.865 0.676,-1.847 -0.021,-2.269 -0.823,-2.343 -1.098,-1.53 -1.34,-0.823 -0.707,-0.232 0,0"
               style="fill:#90a669;fill-opacity:1;fill-rule:nonzero;stroke:none"
               id="path42"
               inkscape:connector-curvature="0" />
          </g>
          <g
             transform="translate(732.9482,558.4897)"
             id="g48">
            <path
               d="M 0,0 C 0.307,-0.232 0.612,-0.464 0.908,-0.696 0.465,-1.805 0.021,-2.924 -0.644,-4.57 -1.065,-2.543 0.105,-1.372 0,0"
               style="fill:#90a669;fill-opacity:1;fill-rule:nonzero;stroke:none"
               id="path46"
               inkscape:connector-curvature="0" />
          </g>
          <g
             transform="translate(732.832,535.5215)"
             id="g52">
            <path
               d="m 0,0 c 1.942,-2.501 1.225,-5.415 -2.11,-8.011 -0.18,4.095 1.519,8.75 -4.37,10.059 0.527,1.826 1.361,2.501 3.145,1.203 C -2.058,2.322 -0.949,1.235 0,0"
               style="fill:#90a669;fill-opacity:1;fill-rule:nonzero;stroke:none"
               id="path50"
               inkscape:connector-curvature="0" />
          </g>
          <g
             transform="translate(731.8506,525.5151)"
             id="g56">
            <path
               d="m 0,0 c 1.763,-1.742 1.689,-4.581 -0.2,-7.188 -0.085,0.01 -2.829,-5.045 -3.885,-6.544 -0.147,-0.211 -0.264,-0.359 -0.338,-0.401 -0.665,-0.423 -1.308,-0.877 -1.931,-1.362 -0.169,-0.127 -0.328,-0.254 -0.497,-0.38 -0.305,-0.232 -0.601,-0.475 -0.907,-0.718 -0.359,-0.285 -0.728,-0.58 -1.097,-0.865 -0.286,-0.222 -0.571,-0.444 -0.867,-0.666 -0.221,-0.168 -0.443,-0.327 -0.664,-0.485 -0.221,-0.158 -0.454,-0.317 -0.686,-0.464 -0.116,-0.085 -0.233,-0.158 -0.349,-0.222 -0.179,-0.116 -0.358,-0.222 -0.538,-0.327 -0.2,-0.116 -0.401,-0.232 -0.612,-0.338 -0.18,-0.095 -0.359,-0.19 -0.549,-0.264 -0.18,-0.084 -0.359,-0.169 -0.538,-0.232 -0.191,-0.085 -0.38,-0.158 -0.571,-0.222 -0.031,-0.01 -0.063,-0.021 -0.084,-0.031 -0.21,-0.074 -0.422,-0.138 -0.633,-0.19 -0.032,-0.021 -0.053,-0.021 -0.084,-0.032 h -0.033 c -2.216,-0.169 -9.077,-1.763 -10.365,-2.016 -0.105,-0.021 -0.169,-0.032 -0.2,-0.032 -2.85,-0.274 -9.689,-2.1 -10.281,-2.28 -1.847,-0.528 -3.662,-1.15 -5.499,-1.689 -0.813,-0.242 -1.721,-0.274 -1.901,-1.372 -2.722,-0.348 -5.139,0.423 -7.336,1.995 -0.305,0.676 -1.065,1.119 -0.959,1.985 0.01,0.073 0.021,0.158 0.041,0.253 0.138,0.665 0.582,1.932 1.214,3.536 0,0.01 0.011,0.021 0.011,0.042 0.411,0.718 0.876,1.415 1.372,2.09 l 5.531,14.26 c 0.011,0.032 0.021,0.053 0.042,0.085 0.328,0.812 0.613,1.498 0.813,2.016 0,0 0.528,1.214 1.477,3.082 2.703,4.782 9.206,14.809 15.243,17.817 0.021,0.011 0.042,0.021 0.074,0.032 0.95,0.412 1.932,0.696 2.934,0.823 3.219,0.137 6.206,-0.496 8.665,-2.575 0.149,-0.127 0.296,-0.254 0.434,-0.401 0.179,-0.148 0.337,-0.317 0.506,-0.496 -1.098,-1.193 -2.597,-1.806 -3.958,-2.618 -0.095,-0.053 -0.2,-0.116 -0.295,-0.18 -0.138,-0.073 -0.265,-0.169 -0.391,-0.253 -2.322,-1.636 -4.497,-3.367 -5.721,-6.038 -1.013,-2.216 -0.506,-3.093 1.931,-2.945 4.581,0.286 8.582,2.154 12.287,4.761 0.623,0.443 1.108,1.119 1.942,1.245 0.021,-0.01 0.043,-0.021 0.063,-0.042 1.51,-1.066 4.36,-6.428 4.149,-7.99 -0.158,-1.14 -0.929,-2.238 0.432,-3.135 C -1.436,-1.879 -0.96,-0.253 0,0"
               style="fill:#ec5c5a;fill-opacity:1;fill-rule:nonzero;stroke:none"
               id="path54"
               inkscape:connector-curvature="0" />
          </g>
          <g
             transform="translate(728.3574,534.4873)"
             id="g60">
            <path
               d="M 0,0 C 0.358,-0.644 0.464,-5.225 0.253,-6.808 0.464,-5.246 -2.386,0.116 -3.896,1.182 -2.396,0.243 0.358,-0.633 0,0"
               style="fill:#ec5c5a;fill-opacity:1;fill-rule:nonzero;stroke:none"
               id="path58"
               inkscape:connector-curvature="0" />
          </g>
          <g
             transform="translate(728.3574,534.4873)"
             id="g64">
            <path
               d="M 0,0 C 0.358,-0.633 -2.396,0.243 -3.896,1.182 -3.916,1.203 -3.938,1.214 -3.959,1.224 -3.198,2.111 -0.739,1.351 0,0"
               style="fill:#ec5c5a;fill-opacity:1;fill-rule:nonzero;stroke:none"
               id="path62"
               inkscape:connector-curvature="0" />
          </g>
          <g
             transform="translate(727.2275,543.1001)"
             id="g68">
            <path
               d="m 0,0 c 1.087,-2.301 -1.108,-2.575 -2.059,-3.61 -2.184,-2.396 -4.728,-4.369 -7.683,-5.731 -2.238,-1.034 -4.476,-2.238 -7.474,-1.837 C -13.173,-4.454 -5.837,-3.356 0,0"
               style="fill:#90a669;fill-opacity:1;fill-rule:nonzero;stroke:none"
               id="path66"
               inkscape:connector-curvature="0" />
          </g>
          <g
             transform="translate(725.4863,546.3091)"
             id="g72">
            <path
               d="m 0,0 c 0.475,-0.707 0.4,-1.225 -0.043,-1.9 -0.622,-0.929 -1.478,-1.393 -2.533,-1.414 -1.225,-0.032 -0.612,1.076 -0.749,1.593 -1.003,3.895 -4.212,6.122 -8.181,5.521 -0.18,-0.032 -0.369,-0.053 -0.516,-0.01 -0.053,0.021 -0.117,0.042 -0.16,0.063 -0.009,0.01 -0.009,0 -0.009,0 -0.053,0.042 -0.096,0.084 -0.138,0.126 -0.042,0.063 -0.074,0.127 -0.106,0.211 0.264,0.096 0.528,0.169 0.803,0.243 0.275,0.074 0.549,0.127 0.823,0.169 2.09,0.338 4.275,0.021 6.228,-0.834 C -2.724,2.956 -1.098,1.668 0,0"
               style="fill:#90a669;fill-opacity:1;fill-rule:nonzero;stroke:none"
               id="path70"
               inkscape:connector-curvature="0" />
          </g>
          <g
             transform="translate(722.9951,508.0566)"
             id="g76">
            <path
               d="M 0,0 C 0.369,0.285 0.738,0.581 1.098,0.866 0.729,0.581 0.369,0.285 0,0"
               style="fill:#d03e3b;fill-opacity:1;fill-rule:nonzero;stroke:none"
               id="path74"
               inkscape:connector-curvature="0" />
          </g>
          <g
             transform="translate(719.8916,505.8931)"
             id="g80">
            <path
               d="M 0,0 C 0.18,0.105 0.359,0.211 0.538,0.327 0.359,0.211 0.18,0.095 0,0"
               style="fill:#d03e3b;fill-opacity:1;fill-rule:nonzero;stroke:none"
               id="path78"
               inkscape:connector-curvature="0" />
          </g>
          <g
             transform="translate(720.293,542.2349)"
             id="g84">
            <path
               d="m 0,0 c -0.032,-0.042 -0.074,-0.084 -0.127,-0.127 -0.127,-0.095 -0.327,-0.222 -0.57,-0.38 -0.306,-0.074 -0.644,-0.053 -0.992,0.011 -0.169,0.179 -0.328,0.348 -0.506,0.496 -0.138,0.147 -0.285,0.285 -0.434,0.401 -2.459,2.143 -5.467,2.966 -8.665,2.576 -0.95,-0.043 -1.932,-0.338 -2.935,-0.824 -0.032,-0.01 -0.052,-0.021 -0.074,-0.031 -6.934,-3.04 -12.655,-12.783 -15.242,-17.818 -0.78,-1.372 -1.245,-2.311 -1.298,-2.523 l -0.992,-2.575 c -0.021,-0.032 -0.031,-0.053 -0.042,-0.084 -1.773,-4.223 -5.088,-11.696 -6.903,-16.351 0,-0.021 -0.011,-0.031 -0.011,-0.042 -0.612,-1.087 -1.066,-2.248 -1.214,-3.536 -0.02,-0.095 -0.031,-0.179 -0.042,-0.253 -1.837,2.364 -0.939,4.718 0.116,6.987 2.576,5.552 5.194,11.073 7.22,16.846 1.372,3.916 2.617,7.886 4.106,11.759 1.562,4.053 4.137,7.368 7.884,9.679 C -13.278,8.824 -5.689,7.283 0,0"
               style="fill:#ec5c5a;fill-opacity:1;fill-rule:nonzero;stroke:none"
               id="path82"
               inkscape:connector-curvature="0" />
          </g>
          <g
             transform="translate(719.5957,541.728)"
             id="g88">
            <path
               d="M 0,0 C 0.243,0.158 0.443,0.285 0.57,0.38 0.412,0.19 0.212,0.074 0,0"
               style="fill:#412c1a;fill-opacity:1;fill-rule:nonzero;stroke:none"
               id="path86"
               inkscape:connector-curvature="0" />
          </g>
          <g
             transform="translate(718.6035,541.7388)"
             id="g92">
            <path
               d="M 0,0 C 0.349,-0.063 0.687,-0.084 0.992,-0.011 -0.189,-0.697 -2.522,-1.784 -3.958,-2.618 -2.597,-1.805 -1.098,-1.193 0,0"
               style="fill:#ec5c5a;fill-opacity:1;fill-rule:nonzero;stroke:none"
               id="path90"
               inkscape:connector-curvature="0" />
          </g>
          <g
             transform="translate(717.6221,504.8374)"
             id="g96">
            <path
               d="M 0,0 C 0.19,0.063 0.38,0.137 0.57,0.222 0.38,0.137 0.19,0.063 0,0"
               style="fill:#d03e3b;fill-opacity:1;fill-rule:nonzero;stroke:none"
               id="path94"
               inkscape:connector-curvature="0" />
          </g>
          <g
             transform="translate(716.9043,504.6157)"
             id="g100">
            <path
               d="M 0,0 C 0.211,0.053 0.423,0.116 0.634,0.19 0.423,0.116 0.211,0.053 0,0"
               style="fill:#d03e3b;fill-opacity:1;fill-rule:nonzero;stroke:none"
               id="path98"
               inkscape:connector-curvature="0" />
          </g>
          <g
             transform="translate(720.9053,550.0771)"
             id="g104">
            <path
               d="M 0,0 C -1.953,0.855 -4.138,1.172 -6.228,0.834 -4.138,1.172 -1.942,0.855 0,0"
               style="fill:#90a669;fill-opacity:1;fill-rule:nonzero;stroke:none"
               id="path102"
               inkscape:connector-curvature="0" />
          </g>
          <g
             transform="translate(716.7881,504.584)"
             id="g108">
            <path
               d="M 0,0 C -0.189,-0.063 -0.38,-0.105 -0.58,-0.147 -1.214,-0.285 -8.908,-1.784 -10.365,-2.016 -9.077,-1.763 -2.217,-0.169 0,0"
               style="fill:#d03e3b;fill-opacity:1;fill-rule:nonzero;stroke:none"
               id="path106"
               inkscape:connector-curvature="0" />
          </g>
          <g
             transform="translate(713.8545,550.7422)"
             id="g112">
            <path
               d="m 0,0 c -0.275,-0.074 -0.539,-0.147 -0.803,-0.243 v 0.011 C -0.539,-0.137 -0.275,-0.063 0,0"
               style="fill:#90a669;fill-opacity:1;fill-rule:nonzero;stroke:none"
               id="path110"
               inkscape:connector-curvature="0" />
          </g>
          <g
             transform="translate(713.3047,550.1616)"
             id="g116">
            <path
               d="M 0,0 C 0.043,-0.021 0.106,-0.042 0.159,-0.063 0.106,-0.053 0.054,-0.032 0,0"
               style="fill:#90a669;fill-opacity:1;fill-rule:nonzero;stroke:none"
               id="path114"
               inkscape:connector-curvature="0" />
          </g>
          <g
             transform="translate(713.1572,550.2886)"
             id="g120">
            <path
               d="M 0,0 C 0.042,-0.042 0.085,-0.084 0.138,-0.127 0.085,-0.095 0.042,-0.053 0,0"
               style="fill:#90a669;fill-opacity:1;fill-rule:nonzero;stroke:none"
               id="path118"
               inkscape:connector-curvature="0" />
          </g>
          <g
             transform="translate(708.999,545.2114)"
             id="g124">
            <path
               d="M 0,0 C 3.198,0.391 6.206,-0.433 8.665,-2.576 6.206,-0.496 3.219,0.137 0,0"
               style="fill:#ec5c5a;fill-opacity:1;fill-rule:nonzero;stroke:none"
               id="path122"
               inkscape:connector-curvature="0" />
          </g>
          <g
             transform="translate(708.999,545.2114)"
             id="g128">
            <path
               d="M 0,0 C -1.003,-0.127 -1.984,-0.412 -2.935,-0.823 -1.932,-0.338 -0.95,-0.042 0,0"
               style="fill:#ec5c5a;fill-opacity:1;fill-rule:nonzero;stroke:none"
               id="path126"
               inkscape:connector-curvature="0" />
          </g>
          <g
             transform="translate(692.1416,497.5752)"
             id="g132">
            <path
               d="M 0,0 C 7.062,1.668 21.11,5.584 22.335,5.763 16.963,4.317 6.429,1.467 0,0"
               style="fill:#d03e3b;fill-opacity:1;fill-rule:nonzero;stroke:none"
               id="path130"
               inkscape:connector-curvature="0" />
          </g>
          <g
             transform="translate(705.9902,544.3564)"
             id="g136">
            <path
               d="M 0,0 C -6.037,-3.008 -12.54,-13.036 -15.242,-17.817 -12.655,-12.783 -6.935,-3.04 0,0"
               style="fill:#ec5c5a;fill-opacity:1;fill-rule:nonzero;stroke:none"
               id="path134"
               inkscape:connector-curvature="0" />
          </g>
          <g
             transform="translate(689.4502,524.0161)"
             id="g140">
            <path
               d="M 0,0 C 0.053,0.211 0.518,1.151 1.298,2.523 0.349,0.655 -0.18,-0.559 -0.18,-0.559 -0.38,-1.077 -0.665,-1.763 -0.992,-2.575 Z"
               style="fill:#ec5c5a;fill-opacity:1;fill-rule:nonzero;stroke:none"
               id="path138"
               inkscape:connector-curvature="0" />
          </g>
          <g
             transform="translate(688.416,521.3564)"
             id="g144">
            <path
               d="m 0,0 -5.531,-14.26 c -0.496,-0.676 -0.961,-1.372 -1.372,-2.09 C -5.088,-11.695 -1.773,-4.222 0,0"
               style="fill:#ec5c5a;fill-opacity:1;fill-rule:nonzero;stroke:none"
               id="path142"
               inkscape:connector-curvature="0" />
          </g>
          <g
             transform="translate(680.2881,501.4282)"
             id="g148">
            <path
               d="M 0,0 C 0.147,1.288 0.602,2.449 1.214,3.536 0.581,1.932 0.138,0.665 0,0"
               style="fill:#ec5c5a;fill-opacity:1;fill-rule:nonzero;stroke:none"
               id="path146"
               inkscape:connector-curvature="0" />
          </g>
        </g>
      </g>
    </g>
    <g
       id="g154"
       transform="matrix(-0.35277777,0,0,-0.35277777,291.92138,322.22125)">
      <g
         id="g156" />
      <g
         id="g226">
        <g
           clip-path="url(#clipPath160)"
           id="g224">
          <g
             transform="translate(591.2441,542.4409)"
             id="g164">
            <path
               d="m 0,0 c 1.027,-0.168 2.131,-0.292 3.411,0.01 -7.484,4.227 -15.016,3.469 -22.568,2.749 2.139,-0.965 4.217,-1.939 6.222,-3.051 2.375,-1.32 4.813,-2.515 7.581,-2.87 3.407,-0.436 6.703,-0.091 10.468,1.162 -1.876,0.364 -3.602,0.671 -5.272,0.901 z m 11.193,-4.971 c 0.198,0.269 -0.311,0.562 -0.642,0.428 -0.677,-0.274 -1.708,-0.058 -1.905,-1.041 -0.096,-0.485 0.283,-0.835 0.94,-0.907 0.514,0.465 1.166,0.921 1.607,1.52 m 2.779,-3.862 c 2.538,-4.524 3.439,-9.389 2.945,-14.465 -0.542,-5.566 -2.321,-10.666 -6.788,-14.499 C 3.383,-43.588 -4.61,-46.4 -13.491,-47 c -3.181,-0.215 -6.315,-0.023 -9.423,0.423 l 0.129,0.959 c 0.049,-0.005 0.097,-0.009 0.144,-0.014 0.058,-0.01 0.116,-0.014 0.173,-0.019 4.999,-0.437 10.08,-0.442 15.074,0.657 6.564,1.444 12.61,4.035 17.326,8.718 5.921,5.877 6.736,13.242 5.219,21.009 -0.517,2.639 -1.659,5.053 -3.108,7.327 -0.466,0.724 -0.504,0.7 -1.229,0.244 -2.552,-0.542 -4.251,1.113 -3.377,3.441 0.538,1.448 -0.197,1.535 -1.157,1.204 -5.843,-2.02 -11.639,-2.044 -17.426,0.182 -1.386,0.892 -2.538,2.394 -4.557,1.636 -5.297,-1.981 -10.339,-4.443 -14.73,-7.974 -7.326,-5.892 -11.298,-13.295 -10.162,-22.771 0.193,-1.602 0.514,-3.19 1.267,-4.586 l -1.036,-0.461 c -1.18,2.308 -1.703,5.014 -1.641,8.229 0.139,7.081 2.984,13.059 8.026,18.073 4.406,4.38 9.822,7.244 15.512,9.677 0.662,0.283 1.329,0.542 2.207,0.898 -1.794,1.333 -3.689,1.559 -5.565,1.708 -0.926,0.071 -1.013,0.551 -1.152,1.242 -0.182,0.907 0.442,0.993 1.017,1.055 7.893,0.821 15.775,1.545 23.447,-1.319 1.814,-0.676 3.431,-1.684 5.081,-2.653 2.342,-1.372 4.788,-2.548 6.88,-4.308 0.85,-0.711 0.927,-0.648 -0.81,-1.656 -0.346,-0.441 -0.043,-0.624 0.316,-0.782 v -0.005 c 0.015,-0.316 0.192,-0.503 0.509,-0.575 0.058,-0.096 0.115,-0.192 0.168,-0.293 0.11,-0.37 0.158,-0.767 0.341,-1.099"
               style="fill:#443321;fill-opacity:1;fill-rule:nonzero;stroke:none"
               id="path162"
               inkscape:connector-curvature="0" />
          </g>
          <g
             transform="translate(606.3955,527.1743)"
             id="g168">
            <path
               d="m 0,0 c 1.517,-7.768 0.701,-15.132 -5.22,-21.01 -4.716,-4.682 -10.761,-7.273 -17.325,-8.718 -4.994,-1.098 -10.075,-1.093 -15.074,-0.657 -0.058,0.005 -0.115,0.01 -0.173,0.019 -0.115,0.015 -0.24,0.029 -0.369,0.053 -0.557,0.096 -1.224,0.269 -1.963,0.495 -3.138,1.041 -6.391,3.065 -5.824,2.883 5.633,-1.814 11.385,-2.02 17.233,-1.151 4.284,0.633 8.387,1.856 12.206,3.775 4.918,2.476 9.438,5.518 11.826,10.661 1.138,2.452 1.622,5.115 2.121,7.777 0.874,4.698 -0.633,9.03 -1.775,13.444 0.725,0.456 0.763,0.48 1.229,-0.245 C -1.659,5.052 -0.518,2.639 0,0"
               style="fill:#dcb247;fill-opacity:1;fill-rule:nonzero;stroke:none"
               id="path166"
               inkscape:connector-curvature="0" />
          </g>
          <g
             transform="translate(604.2031,535.5801)"
             id="g172">
            <path
               d="m 0,0 c 0.336,-0.053 0.581,-0.182 0.504,-0.581 -0.317,0.073 -0.494,0.26 -0.509,0.576 H 0 Z"
               style="fill:#d49047;fill-opacity:1;fill-rule:nonzero;stroke:none"
               id="path170"
               inkscape:connector-curvature="0" />
          </g>
          <path
             d="m 604.203,535.575 h -0.005 v 0.005 h 0.005 z"
             style="fill:#d49047;fill-opacity:1;fill-rule:nonzero;stroke:none"
             id="path174"
             inkscape:connector-curvature="0" />
          <g
             transform="translate(603.8818,536.3623)"
             id="g178">
            <path
               d="M 0,0 C 0.105,-0.264 0.216,-0.523 0.316,-0.782 -0.043,-0.624 -0.346,-0.441 0,0"
               style="fill:#d49047;fill-opacity:1;fill-rule:nonzero;stroke:none"
               id="path176"
               inkscape:connector-curvature="0" />
          </g>
          <g
             transform="translate(602.0586,534.7451)"
             id="g182">
            <path
               d="m 0,0 c 1.142,-4.414 2.648,-8.746 1.775,-13.443 -0.499,-2.663 -0.983,-5.326 -2.121,-7.778 -2.388,-5.143 -6.908,-8.185 -11.826,-10.66 -3.819,-1.92 -7.922,-3.143 -12.206,-3.776 -5.849,-0.869 -11.601,-0.662 -17.233,1.151 -0.725,0.235 -6.603,4.371 -6.727,4.894 -1.07,4.428 -0.859,8.833 0.566,13.151 2.538,7.71 8.089,12.892 15.118,16.759 3.392,1.866 6.779,3.805 10.694,4.529 5.786,-2.226 11.582,-2.202 17.426,-0.182 0.96,0.331 1.694,0.244 1.156,-1.205 C -4.251,1.113 -2.553,-0.542 0,0"
               style="fill:#dcb247;fill-opacity:1;fill-rule:nonzero;stroke:none"
               id="path180"
               inkscape:connector-curvature="0" />
          </g>
          <g
             transform="translate(601.7949,537.8975)"
             id="g186">
            <path
               d="m 0,0 c 0.331,0.134 0.84,-0.158 0.643,-0.427 -0.442,-0.6 -1.094,-1.055 -1.608,-1.521 -0.657,0.072 -1.036,0.422 -0.94,0.907 C -1.708,-0.058 -0.677,-0.273 0,0"
               style="fill:#90a96a;fill-opacity:1;fill-rule:nonzero;stroke:none"
               id="path184"
               inkscape:connector-curvature="0" />
          </g>
          <g
             transform="translate(594.6553,542.4507)"
             id="g190">
            <path
               d="m 0,0 c -1.28,-0.302 -2.384,-0.178 -3.411,-0.01 -0.734,0.125 -1.435,0.269 -2.13,0.302 -0.36,0.015 -0.725,0.044 -1.089,0.068 -0.624,0.048 -1.253,0.1 -1.881,0.124 -0.538,0.024 -1.253,0.015 -1.271,-0.613 -0.025,-0.759 0.758,-0.548 1.237,-0.562 0.614,-0.015 1.224,-0.043 1.833,-0.086 1.036,-0.072 2.077,-0.187 3.143,-0.331 1.67,-0.231 3.396,-0.538 5.272,-0.902 -3.766,-1.253 -7.061,-1.598 -10.469,-1.161 -2.767,0.355 -5.205,1.549 -7.58,2.869 -2.006,1.113 -4.083,2.087 -6.222,3.051 C -15.017,3.469 -7.484,4.227 0,0"
               style="fill:#90a96a;fill-opacity:1;fill-rule:nonzero;stroke:none"
               id="path188"
               inkscape:connector-curvature="0" />
          </g>
          <g
             transform="translate(591.2441,542.4409)"
             id="g194">
            <path
               d="m 0,0 -0.158,-1.099 c -1.066,0.144 -2.107,0.26 -3.143,0.331 L -3.219,0.37 C -2.854,0.346 -2.49,0.317 -2.13,0.302 -1.435,0.269 -0.733,0.125 0,0"
               style="fill:#443321;fill-opacity:1;fill-rule:nonzero;stroke:none"
               id="path192"
               inkscape:connector-curvature="0" />
          </g>
          <g
             transform="translate(588.0254,542.8105)"
             id="g198">
            <path
               d="m 0,0 -0.082,-1.137 c -0.609,0.043 -1.219,0.072 -1.833,0.086 -0.48,0.014 -1.262,-0.197 -1.237,0.562 0.018,0.628 0.733,0.637 1.271,0.614 C -1.253,0.101 -0.624,0.048 0,0"
               style="fill:#443321;fill-opacity:1;fill-rule:nonzero;stroke:none"
               id="path196"
               inkscape:connector-curvature="0" />
          </g>
          <g
             transform="translate(575.541,541.208)"
             id="g202">
            <path
               d="M 0,0 C 2.02,0.758 3.171,-0.744 4.558,-1.636 0.643,-2.36 -2.744,-4.299 -6.137,-6.165 c -7.028,-3.867 -12.58,-9.049 -15.118,-16.759 -1.425,-4.318 -1.636,-8.722 -0.565,-13.151 0.124,-0.523 -2.764,2.768 -3.072,5.33 -1.136,9.476 2.836,16.879 10.163,22.771 C -10.339,-4.443 -5.297,-1.981 0,0"
               style="fill:#dcb247;fill-opacity:1;fill-rule:nonzero;stroke:none"
               id="path200"
               inkscape:connector-curvature="0" />
          </g>
          <g
             transform="translate(568.6035,496.8086)"
             id="g206">
            <path
               d="M 0,0 C -0.048,0.005 -0.096,0.01 -0.145,0.015 -0.216,0.024 -0.293,0.039 -0.369,0.053 -0.24,0.029 -0.115,0.015 0,0"
               style="fill:#d49047;fill-opacity:1;fill-rule:nonzero;stroke:none"
               id="path204"
               inkscape:connector-curvature="0" />
          </g>
          <g
             transform="translate(568.459,496.8232)"
             id="g210">
            <path
               d="m 0,0 -0.129,-0.959 c -2.245,0.316 -4.476,0.767 -6.698,1.295 -3.78,1.401 -6.626,3.104 -8.631,5.248 l 1.041,0.941 C -12.892,4.995 -6.396,1.837 -2.188,0.533 -1.516,0.312 -0.844,0.134 -0.225,0.038 -0.148,0.024 -0.071,0.01 0,0"
               style="fill:#443321;fill-opacity:1;fill-rule:nonzero;stroke:none"
               id="path208"
               inkscape:connector-curvature="0" />
          </g>
          <g
             transform="translate(566.2715,497.356)"
             id="g214">
            <path
               d="M 0,0 C 0.739,-0.226 1.406,-0.398 1.963,-0.495 1.344,-0.398 0.672,-0.221 0,0"
               style="fill:#d49047;fill-opacity:1;fill-rule:nonzero;stroke:none"
               id="path212"
               inkscape:connector-curvature="0" />
          </g>
          <g
             transform="translate(566.2715,497.356)"
             id="g218">
            <path
               d="m 0,0 c -4.208,1.305 -10.704,4.462 -12.229,5.992 -0.091,0.091 -0.168,0.178 -0.221,0.259 -0.835,0.663 -1.449,1.43 -1.905,2.27 -0.753,1.396 -1.075,2.984 -1.267,4.586 0.308,-2.562 3.195,-5.853 3.071,-5.33 0.124,-0.523 6.002,-4.659 6.727,-4.894 C -6.391,3.065 -3.138,1.041 0,0"
               style="fill:#dcb247;fill-opacity:1;fill-rule:nonzero;stroke:none"
               id="path216"
               inkscape:connector-curvature="0" />
          </g>
          <g
             transform="translate(554.042,503.3481)"
             id="g222">
            <path
               d="M 0,0 -1.041,-0.94 C -1.9,-0.019 -2.605,0.979 -3.162,2.068 l 1.036,0.46 C -1.67,1.689 -1.056,0.921 -0.221,0.259 -0.168,0.178 -0.091,0.091 0,0"
               style="fill:#443321;fill-opacity:1;fill-rule:nonzero;stroke:none"
               id="path220"
               inkscape:connector-curvature="0" />
          </g>
        </g>
      </g>
    </g>
    <g
       id="g228"
       transform="matrix(0.35277777,0,0,-0.35277777,-122.11795,315.11291)">
      <g
         id="g230" />
      <g
         id="g338">
        <g
           clip-path="url(#clipPath234)"
           id="g336">
          <g
             transform="translate(543.0234,513.0815)"
             id="g238">
            <path
               d="m 0,0 c 2.249,7.946 0.752,15.401 -4.005,22.194 -0.787,1.113 -1.474,1.379 -2.42,0.237 -0.385,-0.456 -0.835,-0.864 -1.255,-1.284 -0.917,-0.923 -2.083,-1.846 0.231,-2.497 0.166,-0.047 0.166,-0.663 0.237,-1.012 -0.669,-0.017 -1.367,-0.165 -2.006,-0.041 -1.1,0.213 -2.023,0.662 -2.716,1.26 -0.1,0.083 -0.195,0.172 -0.284,0.266 -0.822,0.835 -1.23,1.899 -1.083,2.964 0.03,0.214 0.083,0.433 0.16,0.651 0.078,0.214 0.184,0.427 0.308,0.639 0.178,-0.011 0.343,-0.023 0.515,-0.041 0.354,-0.71 0.183,-1.544 0.686,-2.266 0.775,-1.101 1.319,-0.876 1.917,0.077 v 0.006 c 0.586,0.568 1.112,1.183 1.745,1.686 0.077,0.065 0.155,0.13 0.225,0.201 0.077,0.071 0.148,0.142 0.207,0.219 0.201,0.219 0.367,0.456 0.485,0.693 0.012,0.006 0.018,0.017 0.018,0.023 0.515,0.911 0.686,1.834 0.686,1.834 0.06,-0.006 0.12,0.047 0.178,0.136 0.267,0.231 0.426,0.592 0.485,1.077 0,0 2.047,-2.863 2.45,-3.408 10.348,-13.899 6.793,-33.543 -10.165,-43.335 -5.006,-2.911 -15.828,-2.964 -16.284,-2.876 -0.029,0.592 -0.017,1.166 0.722,1.237 0.042,0 0.083,0.006 0.131,0.006 3.384,0 6.751,0.142 9.958,1.408 C -8.916,-16.769 -2.792,-9.84 0,0"
               style="fill:#592912;fill-opacity:1;fill-rule:nonzero;stroke:none"
               id="path236"
               inkscape:connector-curvature="0" />
          </g>
          <g
             transform="translate(539.0186,535.2759)"
             id="g242">
            <path
               d="m 0,0 c 4.757,-6.793 6.254,-14.248 4.005,-22.194 -2.792,-9.84 -8.916,-16.769 -18.874,-19.946 -0.112,0.343 -0.261,0.574 0.213,0.893 9.709,6.438 14.436,15.449 13.732,27.135 -0.194,3.284 -1.467,6.384 -2.283,9.556 -0.071,0.349 -0.071,0.964 -0.237,1.012 -2.314,0.65 -1.148,1.573 -0.231,2.497 0.42,0.42 0.87,0.828 1.255,1.283 C -1.474,1.378 -0.787,1.112 0,0"
               style="fill:#f6953f;fill-opacity:1;fill-rule:nonzero;stroke:none"
               id="path240"
               inkscape:connector-curvature="0" />
          </g>
          <g
             transform="translate(538.0947,521.1641)"
             id="g246">
            <path
               d="m 0,0 c 0.704,-11.686 -4.023,-20.697 -13.732,-27.135 -0.474,-0.32 -0.326,-0.55 -0.213,-0.893 -3.207,-1.266 -6.575,-1.409 -9.958,-1.409 -3.563,0.557 -7.083,1.231 -10.414,2.716 -2.202,0.989 -14.195,32.732 -5.065,43.27 2.378,2.746 5.904,3.704 8.84,5.586 1.076,-0.113 5.935,-2.219 10.011,-3.887 1.385,-1.9 3.556,-1.811 5.55,-2.006 0.036,-0.006 0.071,-0.006 0.106,-0.012 1.698,-0.184 3.433,-0.047 5.148,-0.053 0.746,-0.006 1.544,0.088 1.817,-0.882 -0.124,-0.213 -0.225,-0.426 -0.302,-0.639 -0.077,-0.219 -0.131,-0.432 -0.16,-0.651 -0.148,-1.065 0.261,-2.13 1.083,-2.964 0.089,-0.095 0.184,-0.184 0.284,-0.267 0.693,-0.597 1.615,-1.047 2.716,-1.26 C -3.65,9.39 -2.952,9.538 -2.283,9.556 -1.467,6.384 -0.194,3.284 0,0"
               style="fill:#f6953f;fill-opacity:1;fill-rule:nonzero;stroke:none"
               id="path244"
               inkscape:connector-curvature="0" />
          </g>
          <g
             transform="translate(537.3379,540.104)"
             id="g250">
            <path
               d="M 0,0 C -0.012,0.018 -0.018,0.029 -0.029,0.047 -0.018,0.047 -0.006,0.035 0,0"
               style="fill:#592912;fill-opacity:1;fill-rule:nonzero;stroke:none"
               id="path248"
               inkscape:connector-curvature="0" />
          </g>
          <g
             transform="translate(537.3086,540.1514)"
             id="g254">
            <path
               d="M 0,0 C 0.012,-0.018 0.018,-0.03 0.029,-0.047 -0.03,-0.533 -0.189,-0.894 -0.456,-1.125 -0.249,-0.805 -0.083,0 0,0"
               style="fill:#592912;fill-opacity:1;fill-rule:nonzero;stroke:none"
               id="path252"
               inkscape:connector-curvature="0" />
          </g>
          <g
             transform="translate(537.3086,540.1514)"
             id="g258">
            <path
               d="m 0,0 c -0.083,0 -0.249,-0.805 -0.456,-1.125 -0.053,-0.053 -0.112,-0.1 -0.178,-0.136 -0.248,-0.154 -0.573,-0.218 -0.975,-0.207 -5.42,0.207 -11.811,-0.059 -16.912,1.172 l 0.161,0.657 c 0.65,-0.154 1.348,-0.249 2.106,-0.278 4.095,-0.172 8.107,0.005 12.608,0.272 -4.981,3.698 -10.886,4.242 -15.703,7.183 5.734,-0.396 10.775,-2.917 15.964,-5.012 -4.207,5.846 -9.733,9.254 -16.999,9.515 -4.041,1.922 -8.325,1.165 -12.567,1.467 v -0.024 c 0,-0.929 0.739,-1.946 1.265,-2.491 l -0.78,-0.745 c -0.81,0.846 -1.621,1.692 -2.432,2.538 -0.467,0.491 -1.107,1.018 -0.757,1.722 0.29,0.603 1.077,0.385 1.65,0.379 6.225,-0.072 12.443,0.047 18.515,-1.829 C -9.254,11.129 -4.432,7.52 -1.137,1.87 -0.775,1.242 -0.379,0.621 0,0"
               style="fill:#4a382e;fill-opacity:1;fill-rule:nonzero;stroke:none"
               id="path256"
               inkscape:connector-curvature="0" />
          </g>
          <g
             transform="translate(536.6748,538.8906)"
             id="g262">
            <path
               d="m 0,0 c 0,0 -0.171,-0.923 -0.687,-1.834 0.433,0.816 0.385,1.604 -0.289,1.627 C -0.573,-0.219 -0.248,-0.154 0,0"
               style="fill:#f6953f;fill-opacity:1;fill-rule:nonzero;stroke:none"
               id="path260"
               inkscape:connector-curvature="0" />
          </g>
          <g
             transform="translate(535.6992,538.6836)"
             id="g266">
            <path
               d="m 0,0 c 0.674,-0.023 0.722,-0.811 0.289,-1.627 0,-0.006 -0.006,-0.018 -0.018,-0.023 -0.135,-0.237 -0.295,-0.474 -0.485,-0.693 -0.064,-0.077 -0.136,-0.148 -0.207,-0.219 -0.07,-0.071 -0.147,-0.136 -0.225,-0.201 -0.632,-0.503 -1.159,-1.118 -1.745,-1.686 -0.733,0.893 -0.39,3.071 -2.603,2.183 -0.172,0.018 -0.337,0.03 -0.515,0.041 h -0.006 c -0.272,0.971 -1.071,0.876 -1.816,0.882 -1.716,0.006 -3.45,-0.13 -5.148,0.053 -0.036,0.006 -0.071,0.006 -0.107,0.012 -0.881,0.148 -3.07,0.994 -5.55,2.006 -0.035,0.047 -0.071,0.095 -0.106,0.148 C -12.219,-0.58 -6.083,0.231 0,0"
               style="fill:#f6953f;fill-opacity:1;fill-rule:nonzero;stroke:none"
               id="path264"
               inkscape:connector-curvature="0" />
          </g>
          <g
             transform="translate(535.4854,536.3408)"
             id="g270">
            <path
               d="M 0,0 C 0.189,0.219 0.35,0.456 0.485,0.692 0.367,0.456 0.201,0.219 0,0"
               style="fill:#592912;fill-opacity:1;fill-rule:nonzero;stroke:none"
               id="path268"
               inkscape:connector-curvature="0" />
          </g>
          <g
             transform="translate(535.2783,536.1216)"
             id="g274">
            <path
               d="M 0,0 C 0.071,0.071 0.143,0.142 0.207,0.219 0.148,0.142 0.077,0.071 0,0"
               style="fill:#592912;fill-opacity:1;fill-rule:nonzero;stroke:none"
               id="path272"
               inkscape:connector-curvature="0" />
          </g>
          <g
             transform="translate(535.6992,538.6836)"
             id="g278">
            <path
               d="m 0,0 c -6.083,0.231 -12.219,-0.58 -18.242,0.876 0.035,-0.053 0.071,-0.101 0.106,-0.148 -4.076,1.668 -8.934,3.775 -10.01,3.887 0.662,0.48 1.289,1.858 0.869,2.219 1.651,-0.521 4.893,-3.899 8.561,-5.147 0.58,-0.196 1.184,-0.374 1.805,-0.515 C -11.811,-0.059 -5.42,0.207 0,0"
               style="fill:#f6953f;fill-opacity:1;fill-rule:nonzero;stroke:none"
               id="path276"
               inkscape:connector-curvature="0" />
          </g>
          <g
             transform="translate(533.3086,534.2285)"
             id="g282">
            <path
               d="M 0,0 C -0.598,-0.953 -1.143,-1.178 -1.917,-0.077 -2.42,0.645 -2.249,1.479 -2.604,2.189 -0.391,3.077 -0.733,0.899 0,0.006 Z"
               style="fill:#f6953f;fill-opacity:1;fill-rule:nonzero;stroke:none"
               id="path280"
               inkscape:connector-curvature="0" />
          </g>
          <g
             transform="translate(530.8057,532.2046)"
             id="g286">
            <path
               d="M 0,0 C 0.089,-0.094 0.184,-0.183 0.284,-0.266 0.184,-0.183 0.089,-0.094 0,0"
               style="fill:#f6953f;fill-opacity:1;fill-rule:nonzero;stroke:none"
               id="path284"
               inkscape:connector-curvature="0" />
          </g>
          <g
             transform="translate(533.9238,542.6777)"
             id="g290">
            <path
               d="m 0,0 c -5.189,2.094 -10.23,4.615 -15.964,5.012 4.817,-2.941 10.722,-3.486 15.703,-7.183 -4.502,-0.267 -8.513,-0.444 -12.608,-0.273 -0.758,0.03 -1.456,0.125 -2.107,0.278 -2.81,0.675 -4.727,2.426 -6.745,4.503 -0.053,0.059 -0.112,0.119 -0.166,0.178 -1.958,2.124 -4.946,7.052 -4.236,7.159 3.059,0.468 6.083,-0.225 9.124,-0.16 C -9.733,9.254 -4.207,5.846 0,0"
               style="fill:#92ac6d;fill-opacity:1;fill-rule:nonzero;stroke:none"
               id="path288"
               inkscape:connector-curvature="0" />
          </g>
          <g
             transform="translate(525.8535,490.4199)"
             id="g294">
            <path
               d="m 0,0 -0.083,-0.124 -0.095,0.088 z"
               style="fill:#f6953f;fill-opacity:1;fill-rule:nonzero;stroke:none"
               id="path292"
               inkscape:connector-curvature="0" />
          </g>
          <g
             transform="translate(523.1133,537.4058)"
             id="g298">
            <path
               d="M 0,0 C -1.993,0.195 -4.165,0.106 -5.55,2.006 -3.07,0.994 -0.881,0.148 0,0"
               style="fill:#f6953f;fill-opacity:1;fill-rule:nonzero;stroke:none"
               id="path296"
               inkscape:connector-curvature="0" />
          </g>
          <g
             transform="translate(518.9482,540.5122)"
             id="g302">
            <path
               d="m 0,0 -0.16,-0.657 c -0.621,0.142 -1.225,0.32 -1.805,0.515 -3.668,1.248 -6.91,4.627 -8.561,5.147 -0.095,0.089 -0.254,0.119 -0.486,0.06 -0.029,-0.006 -0.064,-0.012 -0.1,-0.024 -6.117,-1.899 -11.206,-5.266 -14.97,-10.425 -0.283,-0.391 -0.562,-0.787 -0.816,-1.184 -4.171,-6.266 -5.651,-13.224 -3.947,-20.75 1.77,-10.97 13.473,-17.763 15.674,-18.751 3.331,-1.485 6.852,-2.16 10.414,-2.716 -0.048,0 -0.089,0 -0.131,-0.006 -1.023,-0.041 -0.721,-1.236 -0.721,-1.236 -14.278,1.142 -29.064,13.248 -27.099,31.732 0.698,6.586 3.745,11.952 7.94,16.904 3.266,3.858 13.39,7.929 13.65,8.16 -1.006,1.047 -2,2.083 -2.987,3.118 l 0.78,0.745 c 0.178,-0.177 0.326,-0.307 0.421,-0.361 C -10.479,8.857 -8.793,6.645 -6.911,4.68 -6.857,4.621 -6.799,4.562 -6.745,4.502 -4.728,2.426 -2.811,0.674 0,0"
               style="fill:#4a382e;fill-opacity:1;fill-rule:nonzero;stroke:none"
               id="path300"
               inkscape:connector-curvature="0" />
          </g>
          <g
             transform="translate(516.9248,552.1919)"
             id="g306">
            <path
               d="M 0,0 C -3.041,-0.065 -6.065,0.627 -9.124,0.16 -9.846,0.047 -12.55,0.225 -12.567,1.444 V 1.467 C -8.325,1.166 -4.041,1.923 0,0"
               style="fill:#92ac6d;fill-opacity:1;fill-rule:nonzero;stroke:none"
               id="path304"
               inkscape:connector-curvature="0" />
          </g>
          <g
             transform="translate(514.1914,491.7275)"
             id="g310">
            <path
               d="M 0,0 C -0.048,0 -0.089,-0.006 -0.131,-0.006 -0.089,0 -0.048,0 0,0"
               style="fill:#592912;fill-opacity:1;fill-rule:nonzero;stroke:none"
               id="path308"
               inkscape:connector-curvature="0" />
          </g>
          <g
             transform="translate(514.0605,491.7217)"
             id="g314">
            <path
               d="m 0,0 c -0.739,-0.071 -0.751,-0.645 -0.722,-1.237 0,0 -0.301,1.195 0.722,1.237"
               style="fill:#592912;fill-opacity:1;fill-rule:nonzero;stroke:none"
               id="path312"
               inkscape:connector-curvature="0" />
          </g>
          <g
             transform="translate(512.0371,545.1924)"
             id="g318">
            <path
               d="M 0,0 C -1.882,1.964 -3.567,4.177 -5.993,5.591 -6.088,5.645 -6.236,5.775 -6.414,5.952 -6.94,6.497 -7.68,7.514 -7.68,8.443 -7.662,7.225 -4.958,7.047 -4.236,7.159 -4.946,7.053 -1.958,2.124 0,0"
               style="fill:#92ac6d;fill-opacity:1;fill-rule:nonzero;stroke:none"
               id="path316"
               inkscape:connector-curvature="0" />
          </g>
          <g
             transform="translate(508.4219,545.5176)"
             id="g322">
            <path
               d="m 0,0 c 0.42,-0.361 -0.207,-1.739 -0.869,-2.219 -2.936,-1.881 -6.462,-2.84 -8.84,-5.585 -9.13,-10.538 -9.308,-30.282 -10.609,-24.52 -1.237,7.616 -0.166,14.497 3.946,20.751 0.255,0.396 0.533,0.793 0.816,1.183 3.764,5.16 8.853,8.526 14.97,10.426 0.036,0.011 0.071,0.017 0.101,0.024 C -0.343,0.077 -0.184,0.053 0,0"
               style="fill:#f6953f;fill-opacity:1;fill-rule:nonzero;stroke:none"
               id="path320"
               inkscape:connector-curvature="0" />
          </g>
          <g
             transform="translate(507.9365,545.5771)"
             id="g326">
            <path
               d="M 0,0 C 0.231,0.059 0.391,0.029 0.485,-0.06 0.302,-0.006 0.143,0.018 0,0"
               style="fill:#4a382e;fill-opacity:1;fill-rule:nonzero;stroke:none"
               id="path324"
               inkscape:connector-curvature="0" />
          </g>
          <g
             transform="translate(503.7773,494.4434)"
             id="g330">
            <path
               d="m 0,0 c -2.201,0.988 -13.904,7.781 -15.674,18.75 1.302,-5.762 1.48,13.982 10.61,24.52 C -14.194,32.732 -2.201,0.988 0,0"
               style="fill:#f6953f;fill-opacity:1;fill-rule:nonzero;stroke:none"
               id="path328"
               inkscape:connector-curvature="0" />
          </g>
          <g
             transform="translate(492.0498,533.9443)"
             id="g334">
            <path
               d="M 0,0 C -4.112,-6.254 -5.183,-13.135 -3.946,-20.75 -5.65,-13.224 -4.171,-6.266 0,0"
               style="fill:#4a382e;fill-opacity:1;fill-rule:nonzero;stroke:none"
               id="path332"
               inkscape:connector-curvature="0" />
          </g>
        </g>
      </g>
    </g>
    <g
       id="g340"
       transform="matrix(-0.35277777,0,0,0.35277777,203.78316,-51.57588)">
      <g
         id="g342" />
      <g
         id="g386">
        <g
           clip-path="url(#clipPath346)"
           id="g384">
          <g
             transform="translate(479.582,544.9243)"
             id="g350">
            <path
               d="m 0,0 c 7.434,-13.852 4.189,-34.589 -11.571,-44.313 -2.254,-1.387 -4.447,-2.873 -6.674,-4.295 -6.02,-3.855 -12.553,-5.56 -19.694,-4.747 -4.084,0.848 -7.983,2.253 -11.837,3.818 -1.255,0.681 -2.519,1.362 -3.775,2.051 -0.22,0.115 -0.432,0.239 -0.609,0.389 v 0.009 c -0.027,0.088 -0.168,0.716 -0.177,1.264 0.459,0.716 1.105,0.38 1.697,0.062 3.404,-1.795 6.877,-3.412 10.581,-4.526 7.205,-2.184 14.099,-1.635 20.658,2.13 4.446,2.555 8.866,5.145 12.676,8.628 0.177,0.15 0.354,0.309 0.531,0.459 0.168,0.151 0.336,0.301 0.504,0.451 v -0.018 c 0.318,0.23 0.68,0.425 0.954,0.699 10.334,10.651 11.491,28.171 2.652,40.149 -0.336,0.451 -0.84,0.884 -0.442,1.467 0.397,0.575 0.999,0.46 1.494,0.106 0.787,-0.556 0.954,-0.115 1.016,0.557 1.379,-0.044 0.672,1.485 1.432,1.892 C -0.327,4.597 0.354,2.997 -0.434,1.299 -0.575,0.999 -0.222,0.407 0,0"
               style="fill:#4c2f14;fill-opacity:1;fill-rule:nonzero;stroke:none"
               id="path348"
               inkscape:connector-curvature="0" />
          </g>
          <g
             transform="translate(479.0332,551.9517)"
             id="g354">
            <path
               d="m 0,0 c -0.009,-0.265 -0.018,-0.53 -0.035,-0.795 -0.76,-0.407 -0.053,-1.936 -1.432,-1.892 -0.274,0.822 -0.548,1.653 -0.822,2.475 -1.776,1.945 -3.527,2.369 -5.799,1.299 0.602,-0.459 1.15,-0.875 1.715,-1.299 0.071,-0.203 0.124,-0.398 0.15,-0.592 0.053,-0.53 -0.106,-1.008 -0.654,-1.3 -0.875,-0.468 -1.272,0.398 -1.697,0.884 -1.308,1.476 -2.28,3.298 -4.331,3.951 -4.287,2.326 -8.814,2.432 -13.313,1.008 -13.701,-4.322 -23.92,-13.082 -31.159,-25.343 -4.154,-7.027 -6.895,-14.488 -4.88,-22.903 0.115,-0.46 -0.212,-1.282 -0.212,-1.282 0,0 -3.783,-6.214 -3.076,-7.991 1.008,-2.536 6.1,-1.166 9.246,-0.053 0.009,0.009 0.027,0.009 0.035,0.009 0.77,0.097 2.025,0.265 2.476,0.972 -0.371,-0.583 -0.194,-0.972 0.177,-1.264 v -0.009 c -1.035,0.009 -6.118,-3.288 -10.634,-2.616 -4.623,0.69 -2.732,6.745 -0.681,9.246 0.849,1.026 1.096,3.307 1.096,3.307 -0.354,1.131 -0.822,1.785 -1.061,2.952 -0.026,0.477 -0.052,0.954 -0.088,1.432 0.036,0.946 0.08,1.891 0.115,2.837 0.052,0.345 0.106,0.681 0.159,1.026 3.536,19.482 21.533,38.355 40.184,42.058 5.039,0.999 9.927,0.646 14.214,-2.59 C -9.511,2.926 -8.954,3.165 -8.149,3.421 -5.136,4.376 -1.511,2.802 0,0"
               style="fill:#463024;fill-opacity:1;fill-rule:nonzero;stroke:none"
               id="path352"
               inkscape:connector-curvature="0" />
          </g>
          <g
             transform="translate(476.7441,551.7397)"
             id="g358">
            <path
               d="M 0,0 C 0.274,-0.822 0.548,-1.653 0.822,-2.475 0.76,-3.147 0.593,-3.589 -0.194,-3.032 c -0.495,0.354 -1.097,0.469 -1.494,-0.106 -0.398,-0.584 0.106,-1.017 0.442,-1.467 8.839,-11.978 7.682,-29.498 -2.652,-40.15 -0.274,-0.274 -0.636,-0.468 -0.955,-0.698 l 0.009,0.027 -0.009,-0.01 c -0.23,1.335 0.265,2.317 1.043,3.466 1.954,2.917 3.005,6.355 3.554,9.75 0.777,4.853 1.175,9.767 -0.274,14.691 -2.21,7.469 -7.036,12.862 -13.074,17.37 -1.079,0.805 -2.307,1.396 -2.97,2.643 1.944,0.645 3.96,0.442 5.958,0.459 2.051,-0.653 3.023,-2.475 4.331,-3.951 0.425,-0.486 0.822,-1.352 1.697,-0.884 0.548,0.292 0.707,0.769 0.654,1.3 C -3.951,-0.398 -4.004,-0.194 -4.075,0 -2.723,-0.601 -1.361,-0.911 0,0"
               style="fill:#fcd261;fill-opacity:1;fill-rule:nonzero;stroke:none"
               id="path356"
               inkscape:connector-curvature="0" />
          </g>
          <g
             transform="translate(476.2139,534.2109)"
             id="g362">
            <path
               d="m 0,0 c 1.449,-4.924 1.052,-9.838 0.274,-14.691 -0.548,-3.395 -1.6,-6.833 -3.553,-9.75 -0.779,-1.149 -1.274,-2.131 -1.043,-3.466 -0.168,-0.15 -0.336,-0.3 -0.504,-0.45 -0.177,-0.151 -0.354,-0.31 -0.53,-0.46 -3.811,-3.483 -8.231,-6.073 -12.677,-8.627 -6.559,-3.766 -13.453,-4.314 -20.657,-2.131 -3.705,1.114 -7.178,2.732 -10.581,4.526 -0.593,0.319 -1.239,0.654 -1.698,-0.062 -0.026,0 -1.043,-0.451 -2.475,-0.972 -0.009,0 -0.027,0 -0.035,-0.009 -0.16,-0.018 -0.301,-0.035 -0.407,-0.053 -1.326,-0.248 -2.617,-0.689 -3.987,-0.619 -0.45,1.414 0.663,2.219 1.273,3.2 0.911,1.432 1.848,2.829 1.458,4.668 -1.387,6.735 0.098,13.091 3.05,19.058 4.527,9.184 10.935,16.865 19.545,22.558 5.091,3.368 10.289,6.488 16.503,7.293 0.663,-1.247 1.892,-1.839 2.97,-2.643 C -7.036,12.861 -2.21,7.469 0,0"
               style="fill:#fcd261;fill-opacity:1;fill-rule:nonzero;stroke:none"
               id="path360"
               inkscape:connector-curvature="0" />
          </g>
          <g
             transform="translate(476.7441,551.7397)"
             id="g366">
            <path
               d="M 0,0 C -1.361,-0.911 -2.723,-0.601 -4.075,0 H -4.084 C -4.649,0.424 -5.197,0.84 -5.799,1.299 -3.527,2.369 -1.776,1.945 0,0"
               style="fill:#fcd261;fill-opacity:1;fill-rule:nonzero;stroke:none"
               id="path364"
               inkscape:connector-curvature="0" />
          </g>
          <g
             transform="translate(471.9004,506.3135)"
             id="g370">
            <path
               d="m 0,0 -0.009,-0.027 v 0.018 z"
               style="fill:#fcd261;fill-opacity:1;fill-rule:nonzero;stroke:none"
               id="path368"
               inkscape:connector-curvature="0" />
          </g>
          <g
             transform="translate(466.1279,554.6831)"
             id="g374">
            <path
               d="m 0,0 c -1.998,-0.018 -4.014,0.186 -5.958,-0.459 -6.214,-0.805 -11.412,-3.925 -16.503,-7.293 -8.61,-5.693 -15.018,-13.374 -19.545,-22.559 -2.952,-5.966 -4.437,-12.322 -3.05,-19.058 0.39,-1.839 -0.548,-3.235 -1.458,-4.667 -0.61,-0.981 -1.723,-1.786 -1.273,-3.2 1.37,-0.071 2.661,0.371 3.987,0.619 0.106,0.017 0.247,0.035 0.406,0.053 -3.146,-1.114 -8.238,-2.484 -9.246,0.053 -0.707,1.777 3.077,7.991 3.077,7.991 0,0 0.327,0.822 0.211,1.282 -2.015,8.415 0.726,15.876 4.88,22.903 7.24,12.26 17.458,21.021 31.159,25.343 C -8.813,2.431 -4.287,2.325 0,0"
               style="fill:#fcd261;fill-opacity:1;fill-rule:nonzero;stroke:none"
               id="path372"
               inkscape:connector-curvature="0" />
          </g>
          <g
             transform="translate(425.2451,499.1001)"
             id="g378">
            <path
               d="M 0,0 C 0.009,-0.548 0.15,-1.176 0.177,-1.264 -0.194,-0.972 -0.371,-0.583 0,0"
               style="fill:#463024;fill-opacity:1;fill-rule:nonzero;stroke:none"
               id="path376"
               inkscape:connector-curvature="0" />
          </g>
          <g
             transform="translate(425.2451,499.1001)"
             id="g382">
            <path
               d="M 0,0 C -0.451,-0.707 -1.706,-0.875 -2.476,-0.972 -1.043,-0.451 -0.026,0 0,0"
               style="fill:#463024;fill-opacity:1;fill-rule:nonzero;stroke:none"
               id="path380"
               inkscape:connector-curvature="0" />
          </g>
        </g>
      </g>
    </g>
    <g
       id="g500"
       transform="matrix(0.35277777,0,0,-0.35277777,44.724973,141.01794)">
      <path
         d="m 0,0 2.159,24.753 h -3.238 l 0.323,4.03 h 3.239 l 0.18,1.906 c 0.168,1.895 0.935,3.388 2.303,4.48 1.367,1.091 3.177,1.637 5.432,1.637 0.671,0 1.325,-0.084 1.961,-0.252 0.635,-0.168 1.277,-0.384 1.925,-0.648 l -0.863,-3.669 c -0.528,0.216 -1.014,0.383 -1.458,0.503 -0.443,0.12 -0.846,0.18 -1.205,0.18 -0.743,0 -1.343,-0.192 -1.799,-0.575 -0.456,-0.385 -0.72,-1.02 -0.791,-1.907 l -0.18,-1.655 h 5.397 l -0.324,-4.03 H 7.664 L 5.505,0 Z"
         style="fill:#333333;fill-opacity:1;fill-rule:nonzero;stroke:none"
         id="path502"
         inkscape:connector-curvature="0" />
    </g>
    <g
       id="g504"
       transform="matrix(0.35277777,0,0,-0.35277777,58.319999,140.26106)">
      <path
         d="M 0,0 -1.583,13.329 -5.619,0 h -6.648 l -2.137,21.732 h 5.262 l 1.386,-16.553 3.957,12.93 H 1.424 L 3.205,5.324 7.519,21.732 h 4.946 L 6.173,0 Z"
         style="fill:#333333;fill-opacity:1;fill-rule:nonzero;stroke:none"
         id="path506"
         inkscape:connector-curvature="0" />
    </g>
    <g
       id="g508"
       transform="matrix(0.35277777,0,0,-0.35277777,67.523221,140.44899)">
      <path
         d="m 0,0 c -1.644,0 -2.87,0.628 -3.679,1.886 -0.809,1.258 -1.115,2.97 -0.915,5.136 l 1.345,15.764 H 2.466 L 1.158,7.844 c -0.1,-1.146 -0.007,-1.998 0.28,-2.559 0.287,-0.56 0.766,-0.84 1.439,-0.84 0.697,0 1.362,0.249 1.998,0.746 0.635,0.498 1.214,1.208 1.736,2.13 l 1.345,15.465 h 5.716 L 11.729,0.373 H 6.014 L 6.275,3.511 H 5.454 C 5.006,2.415 4.289,1.556 3.306,0.934 2.321,0.311 1.221,0 0,0"
         style="fill:#333333;fill-opacity:1;fill-rule:nonzero;stroke:none"
         id="path510"
         inkscape:connector-curvature="0" />
    </g>
    <g
       id="g512"
       transform="matrix(0.35277777,0,0,-0.35277777,76.563405,132.32325)">
      <path
         d="m 0,0 c -1.039,0 -1.873,0.168 -2.501,0.507 -0.628,0.338 -0.905,0.954 -0.833,1.848 l 0.036,0.398 c 0.072,0.894 0.459,1.528 1.159,1.903 0.701,0.374 1.571,0.561 2.61,0.561 1.062,0 1.901,-0.187 2.517,-0.561 C 3.604,4.281 3.876,3.647 3.804,2.753 L 3.768,2.355 C 3.695,1.461 3.309,0.845 2.608,0.507 1.907,0.168 1.038,0 0,0 m -5.001,-25.399 1.885,21.739 h 5.58 L 0.579,-25.399 Z"
         style="fill:#333333;fill-opacity:1;fill-rule:nonzero;stroke:none"
         id="path514"
         inkscape:connector-curvature="0" />
    </g>
    <text
       y="141.34402"
       x="79.580093"
       style="font-style:italic;font-variant:normal;font-weight:bold;font-stretch:extra-condensed;font-size:12.87642384px;font-family:InputSansCompressed;-inkscape-font-specification:InputSansCompressed-BoldItalic;writing-mode:lr-tb;fill:#333333;fill-opacity:1;fill-rule:nonzero;stroke:none;stroke-width:0.35277775"
       id="text518">
      <tspan
         style="stroke-width:0.35277775"
         x="79.580093"
         y="141.34402"
         id="tspan516">t</tspan>
    </text>
  </g>
  <g
     inkscape:groupmode="layer"
     id="layer2"
     inkscape:label="Layer 2">
    <path
       transform="translate(0.08828707,0.16331125)"
       style="display:inline;fill:none;stroke:#000000;stroke-width:0.26458332px;stroke-linecap:butt;stroke-linejoin:miter;stroke-opacity:1"
       d="m 35.64738,141.48701 c -0.15618,-0.23522 -0.31147,-0.47103 -0.465867,-0.70743 -0.297617,-0.45568 -0.593261,-0.91602 -0.81095,-1.41485 -0.221552,-0.50768 -0.358985,-1.04757 -0.483122,-1.5874 -0.224213,-0.97503 -0.408952,-1.96733 -0.396849,-2.96773 0.01417,-1.17094 0.29723,-2.3207 0.603902,-3.45086 0.270976,-0.99861 0.568413,-2.00699 1.121528,-2.88147 0.524272,-0.82888 1.257599,-1.50378 2.018753,-2.12228 0.837854,-0.68083 1.719871,-1.30593 2.622653,-1.89797 0.85387,-0.55996 1.729309,-1.09207 2.657163,-1.51838 0.678605,-0.31179 1.383625,-0.56606 2.105024,-0.75919 0.666889,-0.18587 1.361106,-0.27338 2.053261,-0.25882 1.009243,0.0212 2.002222,0.25752 2.967738,0.55214 1.040532,0.31751 2.068244,0.70834 2.984995,1.29408 0.101338,0.0647 0.201558,0.13201 0.309739,0.18453 0.108181,0.0525 0.225675,0.0902 0.345924,0.0915 0.103717,0.001 0.206651,-0.0249 0.301393,-0.0671 0.09474,-0.0422 0.18171,-0.10035 0.262992,-0.16478 0.162564,-0.12887 0.303809,-0.28356 0.470872,-0.40654 0.411759,-0.30312 0.942133,-0.38882 1.3976,-0.62114 0.315317,-0.16084 0.602185,-0.395 0.948986,-0.46586 0.135241,-0.0276 0.275934,-0.0293 0.407465,-0.0712 0.06576,-0.0209 0.129064,-0.0523 0.180479,-0.0983 0.05142,-0.046 0.09038,-0.10764 0.102228,-0.17563 0.0092,-0.0529 0.0018,-0.10807 -0.01733,-0.15825 -0.01913,-0.0502 -0.04966,-0.0956 -0.08601,-0.13511 -0.07269,-0.0791 -0.166996,-0.13432 -0.259004,-0.18976 -0.645059,-0.38868 -1.266023,-0.86421 -1.639157,-1.51838 -0.07626,-0.13369 -0.144023,-0.27706 -0.258815,-0.37959 -0.08173,-0.073 -0.184983,-0.12159 -0.293323,-0.13804 1.075534,-0.25931 2.200419,-0.31231 3.295571,-0.15529 0.982867,0.14092 1.935386,0.44792 2.915976,0.6039 0.558491,0.0888 1.133155,0.1306 1.656413,0.34509 0.526731,0.21591 0.968027,0.59328 1.449361,0.89722 0.297011,0.18755 0.611215,0.34821 0.897224,0.55214 0.342835,0.24445 0.641997,0.54985 0.879969,0.89722 0.247284,0.36096 0.429162,0.76663 0.707426,1.10428 0.134964,0.16377 0.291418,0.30996 0.414103,0.48312 0.107303,0.15145 0.186621,0.32049 0.276069,0.48312 0.194662,0.35393 0.439412,0.68026 0.72468,0.96624 0.139317,0.27017 0.289002,0.535 0.448613,0.7937 0.119173,0.19316 0.244137,0.38336 0.345085,0.58664 0.137858,0.2776 0.23081,0.57921 0.404877,0.83567 0.08703,0.12822 0.194792,0.24441 0.326229,0.32651 0.131437,0.0821 0.28784,0.12857 0.442187,0.11464 0.158721,-0.0143 0.306091,-0.0906 0.433907,-0.18582 0.127817,-0.0952 0.239769,-0.2097 0.35979,-0.31455 0.504735,-0.44091 1.159692,-0.70661 1.828956,-0.74194 0.654597,0.0204 1.313322,-0.10422 1.915227,-0.36234 0.509303,-0.21841 0.988374,-0.53397 1.535632,-0.62115 0.590822,-0.0941 1.186155,0.0894 1.759939,0.25883 0.274084,0.0809 0.550034,0.15948 0.810951,0.27607 0.389728,0.17415 0.742127,0.43345 1.018004,0.75919 0.1267,0.1496 0.238073,0.31361 0.38358,0.44499 0.07275,0.0657 0.15404,0.12289 0.244089,0.16161 0.09005,0.0387 0.189243,0.0585 0.286809,0.0491 0.124653,-0.0121 0.242241,-0.0718 0.333973,-0.15708 0.09173,-0.0853 0.158651,-0.19494 0.204157,-0.31161 0.09101,-0.23335 0.09787,-0.4894 0.117533,-0.7391 0.08022,-1.01879 0.39556,-2.01834 0.914478,-2.89873 l 0.983495,0.48312 c -0.455336,1.01971 -0.808506,2.08502 -1.052512,3.17479 -0.0518,0.23133 -0.09955,0.46634 -0.201705,0.68026 -0.05108,0.10696 -0.115768,0.20806 -0.197331,0.29406 -0.08156,0.086 -0.180403,0.15669 -0.291136,0.19897 -0.116607,0.0445 -0.243316,0.0568 -0.360957,0.0985 -0.05882,0.0209 -0.115637,0.0494 -0.162685,0.0904 -0.04705,0.041 -0.08394,0.0952 -0.09751,0.15614 -0.01235,0.0555 -0.0048,0.11475 0.01878,0.16646 0.02354,0.0517 0.06262,0.0959 0.109646,0.12775 0.09405,0.0638 0.216184,0.0769 0.327502,0.054 0.111318,-0.0229 0.213298,-0.0787 0.306671,-0.14353 0.09337,-0.0648 0.179849,-0.13904 0.272661,-0.20463 0.414268,-0.29276 0.957131,-0.39868 1.449361,-0.27607 0.431855,0.10757 0.810061,0.37715 1.24231,0.48312 0.471358,0.11556 0.964852,0.028 1.449361,0 0.436481,-0.0252 0.87412,-0.001 1.311327,0 0.598304,0.002 1.197352,-0.038 1.794447,0 0.501158,0.0319 0.998954,0.11877 1.501124,0.12078 0.131387,5.3e-4 0.267894,-0.004 0.38788,0.0497 0.05999,0.0268 0.114456,0.0684 0.149637,0.12389 0.03518,0.0555 0.04958,0.12542 0.03187,0.18868 -0.01426,0.051 -0.04838,0.0951 -0.09089,0.12664 -0.04251,0.0315 -0.09304,0.051 -0.14478,0.0621 -0.103471,0.0222 -0.210827,0.012 -0.316472,0.0183 -0.270648,0.0161 -0.521871,0.13963 -0.762609,0.26435 -0.240737,0.12472 -0.486589,0.25534 -0.755769,0.28779 -0.102837,0.0124 -0.209221,0.0105 -0.306192,0.0469 -0.04848,0.0182 -0.09406,0.0463 -0.127371,0.086 -0.03331,0.0396 -0.05351,0.0915 -0.04956,0.14317 0.0037,0.0486 0.02863,0.0944 0.06402,0.12795 0.03539,0.0336 0.08066,0.0556 0.127794,0.0682 0.09428,0.0251 0.193778,0.0136 0.29131,0.0109 0.360909,-0.01 0.714918,0.10417 1.042187,0.25665 0.327269,0.15247 0.635004,0.34386 0.959311,0.50254 0.491334,0.2404 1.016454,0.40373 1.518378,0.62116 0.629742,0.2728 1.225813,0.63377 1.72543,1.10427 0.500293,0.47114 0.894089,1.04134 1.311327,1.5874 0.53171,0.69587 1.110672,1.36446 1.518378,2.13953 0.371315,0.70589 0.591341,1.48613 0.690172,2.27757 0.09428,0.755 0.07997,1.52091 0,2.27756 -0.07792,0.7373 -0.224416,1.48536 -0.6039,2.12228 -0.367591,0.61696 -0.933024,1.09319 -1.535633,1.48387 -0.947395,0.6142 -2.008782,1.0441 -3.105774,1.31133 -0.78642,0.19157 -1.591281,0.30067 -2.398347,0.36233 -1.062848,0.0812 -2.134313,0.0804 -3.192045,-0.0517 -0.951354,-0.11878 -1.888694,-0.34352 -2.795196,-0.65567 -0.704586,-0.24262 -1.392445,-0.5388 -2.036008,-0.91448 -0.800622,-0.46736 -1.524983,-1.05281 -2.243058,-1.63915 -0.163501,-0.1335 -0.328631,-0.26834 -0.517629,-0.36234 -0.243829,-0.12127 -0.523244,-0.16986 -0.793698,-0.13803 -1.253664,0.42419 -2.533787,0.77017 -3.830454,1.03525 -1.075433,0.21985 -2.162951,0.3843 -3.226555,0.65566 -0.79873,0.20379 -1.580807,0.46708 -2.363838,0.72468 -0.626613,0.20614 -1.259646,0.40997 -1.915228,0.48312 -0.62811,0.0701 -1.268247,0.0179 -1.880718,-0.13803 -0.567176,-0.1444 -1.129925,-0.39044 -1.518378,-0.82821 -0.304988,-0.34371 -0.483818,-0.7879 -0.552137,-1.24231 -0.0583,-0.38779 -0.03972,-0.78316 0,-1.17329 0.04228,-0.41528 0.113904,-0.84298 0.345085,-1.19054 0.06392,-0.0961 0.13994,-0.18593 0.183088,-0.29298 0.02157,-0.0535 0.0345,-0.1112 0.03166,-0.16884 -0.0028,-0.0576 -0.02219,-0.11527 -0.05946,-0.15934 -0.03198,-0.0378 -0.07612,-0.0645 -0.123466,-0.079 -0.04735,-0.0145 -0.09783,-0.0173 -0.147091,-0.0121 -0.09852,0.0104 -0.190677,0.0518 -0.281582,0.0911 -0.880649,0.38143 -1.821761,0.62528 -2.777941,0.70743 -0.712482,0.0612 -1.431723,0.0329 -2.139533,-0.069 -1.01209,-0.1457 -2.001318,-0.4419 -2.933231,-0.86272 -0.624682,-0.28209 -1.22672,-0.62184 -1.759938,-1.05251 -0.132747,-0.10722 -0.261942,-0.22054 -0.409567,-0.30612 -0.147625,-0.0856 -0.317906,-0.14262 -0.487657,-0.12524 -0.184564,0.0189 -0.351046,0.12399 -0.482958,0.25445 -0.131912,0.13046 -0.23498,0.28653 -0.345248,0.43573 -0.603806,0.81701 -1.432269,1.43798 -2.277567,2.0015 -0.995535,0.66367 -2.032603,1.26542 -3.105774,1.79444 -0.883716,0.43562 -1.79835,0.82401 -2.760688,1.03526 -0.92064,0.2021 -1.87359,0.23873 -2.81245,0.15529 -0.608275,-0.0541 -1.231917,-0.16566 -1.742685,-0.50038 -0.192601,-0.12622 -0.36492,-0.28161 -0.55895,-0.40562 -0.194031,-0.12401 -0.419371,-0.21737 -0.64885,-0.19827 -0.128364,0.0107 -0.251276,0.056 -0.369212,0.10776 -0.117936,0.0518 -0.233152,0.11067 -0.355469,0.15105 -0.296559,0.0979 -0.624004,0.0811 -0.921358,-0.0143 -0.297354,-0.0954 -0.566431,-0.2662 -0.804072,-0.46882 -0.360865,-0.30769 -0.657556,-0.69631 -0.828206,-1.13878 -0.07168,-0.18586 -0.121382,-0.3856 -0.09835,-0.58347 0.01151,-0.0989 0.0415,-0.19629 0.0928,-0.28167 0.0513,-0.0854 0.124373,-0.15843 0.212611,-0.20463 0.08396,-0.044 0.180826,-0.0629 0.275155,-0.0538 0.09433,0.009 0.185767,0.0463 0.259727,0.10555 z"
       id="path9965"
       inkscape:connector-curvature="0"
       inkscape:path-effect="#path-effect9967-3"
       inkscape:original-d="m 35.64738,141.48701 c -0.252799,-0.23032 -0.212539,-0.47764 -0.465867,-0.70743 -0.253326,-0.22979 -0.534617,-0.83997 -0.81095,-1.41485 -0.276334,-0.57488 -0.321816,-1.05853 -0.483122,-1.5874 -0.161306,-0.52886 -0.327568,-1.97875 -0.396849,-2.96773 -0.06928,-0.98899 0.46613,-2.30084 0.603902,-3.45086 0.137768,-1.15003 0.707691,-2.07654 1.121528,-2.88147 0.413838,-0.80494 1.420869,-1.34035 2.018753,-2.12228 0.597884,-0.78193 1.679684,-1.23107 2.622653,-1.89797 0.94297,-0.6669 1.806215,-0.96651 2.657163,-1.51838 0.850948,-0.55187 1.703106,-3.59251 2.105024,-0.75919 -6.620967,-17.48021 1.478382,-0.098 2.053261,-0.25882 0.574879,-0.16077 1.932746,0.29882 2.967738,0.55214 1.034994,0.25333 1.973006,0.90271 2.984995,1.29408 1.011986,0.39136 0.471881,0.18378 0.655663,0.27606 0.183783,0.0923 0.620889,-0.61513 1.035257,-0.6384 0.414368,-0.0233 1.006238,-0.34483 1.3976,-0.62114 0.391362,-0.27633 0.718664,-0.35057 0.948986,-0.46586 0.230322,-0.1153 0.919965,-0.0688 0.690172,-0.34509 -0.229793,-0.27633 0.0745,-0.0918 -0.362341,-0.48312 -0.436844,-0.39136 -1.547399,-1.40309 -1.639157,-1.51838 -0.09176,-0.11529 -0.995263,-0.31029 -0.258815,-0.37959 0.736448,-0.0693 -1.006765,-0.2298 -0.293323,-0.13804 0.799713,-0.0635 2.766175,-0.22407 3.295571,-0.15529 0.529396,0.0688 2.363574,0.48915 2.915976,0.6039 0.552402,0.11477 1.173028,0.0463 1.656413,0.34509 0.483385,0.29881 1.150022,0.71344 1.449361,0.89722 0.299339,0.18378 0.505862,0.29934 0.897224,0.55214 0.391362,0.2528 0.74167,0.48338 0.879969,0.89722 0.138299,0.41384 0.569127,0.9435 0.707426,1.10428 0.138299,0.16077 0.321816,0.32234 0.414103,0.48312 0.09229,0.16078 -0.02327,0.18431 0.276069,0.48312 0.299339,0.29881 -0.01752,0.78821 0.72468,0.96624 0.138299,0.2298 0.379331,0.5409 0.448613,0.7937 0.06928,0.25279 0.137769,0.1498 0.345085,0.58664 0.207316,0.43685 0.804937,1.41512 1.173293,1.27682 0.368356,-0.1383 2.366006,-3.62541 0.793697,-0.50037 -0.152887,0.30387 1.261395,-0.69567 1.828956,-0.74194 0.08724,-0.24156 1.477853,-0.22404 1.915227,-0.36234 0.437373,-0.13829 0.98323,-0.59788 1.535632,-0.62115 0.552403,-0.0233 1.345571,0.12104 1.759939,0.25883 0.414368,0.13777 0.465601,0.1383 0.810951,0.27607 0.345351,0.13777 0.69566,0.43739 1.018004,0.75919 0.322345,0.32182 0.706014,1.15049 0.914478,0.65566 1.140318,-2.70674 0.471353,-0.72441 0.655663,-1.20779 0.184311,-0.48339 1.195878,-1.98274 0.914478,-2.89873 1.491121,-0.48124 -1.343209,2.38037 0.983495,0.48312 45.686206,-76.834442 -0.822719,2.78396 -1.052512,3.17479 -0.229793,0.39083 -0.483385,1.05853 -0.690172,1.17329 -0.206787,0.11477 -0.966505,0.34535 -0.621155,0.34509 0.345351,-2.6e-4 0.551873,0.0923 1.035258,0 0.483385,-0.0923 1.034994,-0.43684 1.449361,-0.27607 0.414368,0.16078 0.758925,0.48339 1.24231,0.48312 0.483385,-2.6e-4 1.011987,2.7e-4 1.449361,0 0.437373,-2.6e-4 0.712913,2.7e-4 1.311327,0 0.598413,-2.6e-4 1.311062,-0.13777 1.794447,0 0.483385,0.13777 1.293807,0.098 1.501124,0.12078 0.207316,0.0228 0.753173,0.29359 0.569391,0.36232 -0.183781,0.0687 -0.04628,0.0233 -0.552137,0.20705 -0.505862,0.18378 -1.357603,0.46038 -1.518378,0.55214 -0.160776,0.0918 -0.644425,0.20732 -0.483121,0.27607 0.161305,0.0687 -0.18431,-0.0457 0.483121,0.20705 0.66743,0.2528 1.495108,0.5524 2.001498,0.75919 0.506391,0.20679 0.942971,0.25333 1.518378,0.62116 0.575408,0.36782 1.288057,0.5754 1.72543,1.10427 0.437374,0.52887 0.804936,0.87448 1.311327,1.5874 0.506391,0.71291 1.288056,1.3806 1.518378,2.13953 0.230322,0.75892 0.689907,1.51864 0.690172,2.27757 2.65e-4,0.75892 0.114764,1.54164 0,2.27756 -0.114764,0.73592 -0.236074,1.77746 -0.6039,2.12228 -0.367827,0.34483 -0.500638,0.88599 -1.535633,1.48387 -1.034993,0.59789 -2.162803,1.19656 -3.105774,1.31133 -0.94297,0.11476 -1.294336,0.3856 -2.398347,0.36233 -1.10401,-0.0233 -2.203063,0.15556 -3.192045,-0.0517 -0.988982,-0.20732 0.592884,-0.31032 -2.795196,-0.65567 -0.747145,-0.0762 -1.277083,-0.40808 -2.036008,-0.91448 -0.758924,-0.50639 -1.967254,-1.36282 -2.243058,-1.63915 -0.275804,-0.27634 -0.08078,-0.56913 -0.517629,-0.36234 -0.436845,0.20679 -3.149461,0.10114 -0.793698,-0.13803 -0.988982,0.20678 -2.726444,0.82846 -3.830454,1.03525 -1.104011,0.20679 -2.46763,0.40287 -3.226555,0.65566 -0.758924,0.2528 -1.696936,0.60992 -2.363838,0.72468 -0.666902,0.11477 -1.317343,0.48338 -1.915228,0.48312 -0.597884,-2.7e-4 -1.374856,0.1383 -1.880718,-0.13803 -0.505861,-0.27633 -1.334596,-0.41384 -1.518378,-0.82821 -0.183781,-0.41436 -0.552402,-0.85094 -0.552137,-1.24231 2.64e-4,-0.39136 -0.207316,-0.78193 0,-1.17329 0.207316,-0.39136 0.298809,-0.98322 0.345085,-1.19054 0.04628,-0.20732 0.4541,-0.75893 0.15529,-0.62116 -0.29881,0.13777 0.34482,-0.0918 -0.552139,0 -0.896959,0.0918 -2.065028,0.7307 -2.777941,0.70743 -0.712913,-0.0233 -1.127546,0.18431 -2.139533,-0.069 -1.011988,-0.25333 2.900222,-8.32471 -2.933231,-0.86272 -0.443487,0.5673 -1.553151,-0.84519 -1.759938,-1.05251 -0.206787,-0.20732 -0.62142,-0.66115 -0.897224,-0.43136 -0.275804,0.2298 -0.06928,0.0233 -0.828206,0.69018 -0.758925,0.6669 -1.242574,1.40361 -2.277567,2.0015 -1.034994,0.59788 -2.185809,1.44962 -3.105774,1.79444 -0.919965,0.34482 -1.771706,0.9205 -2.760688,1.03526 -0.988982,0.11476 -2.283583,0.38561 -2.81245,0.15529 -0.528867,-0.23033 -1.30584,-0.31607 -1.742685,-0.50038 -0.436844,-0.18431 -1.001013,-0.67265 -1.2078,-0.60389 -0.206787,0.0687 -0.149806,0.42011 -0.724681,0.25881 -0.574879,-0.16131 -1.495637,-0.0688 -1.72543,-0.48312 -0.229792,-0.41437 -0.851476,-0.81644 -0.828206,-1.13878 0.02327,-0.32235 -0.138299,-1.18454 0.207054,-1.06977 0.34535,0.11476 0.787681,0.28208 0.534882,0.0518 z"
       sodipodi:nodetypes="cccccccsssccccccccccccccccsssccscccssccccscscccscssccccsccccccsccccsscccccsccscscccsccscscccsscccsscsccccccc" />
  </g>
</svg>
